<?xml version="1.0" encoding="UTF-8" standalone="no"?>
<!-- Created with Inkscape (http://www.inkscape.org/) -->

<svg
   width="50.357231"
   height="70.79438"
   viewBox="0 0 50.357233 70.794383"
   version="1.1"
   id="svg1"
   inkscape:version="1.4 (e7c3feb100, 2024-10-09)"
   sodipodi:docname="0.svg"
   inkscape:export-filename="0.png"
   inkscape:export-xdpi="96"
   inkscape:export-ydpi="96"
   xmlns:inkscape="http://www.inkscape.org/namespaces/inkscape"
   xmlns:sodipodi="http://sodipodi.sourceforge.net/DTD/sodipodi-0.dtd"
   xmlns="http://www.w3.org/2000/svg"
   xmlns:svg="http://www.w3.org/2000/svg">
  <sodipodi:namedview
     id="namedview1"
     pagecolor="#ffffff"
     bordercolor="#cccccc"
     borderopacity="1"
     inkscape:showpageshadow="0"
     inkscape:pageopacity="1"
     inkscape:pagecheckerboard="true"
     inkscape:deskcolor="#d1d1d1"
     inkscape:document-units="mm"
     inkscape:zoom="5.8867564"
     inkscape:cx="88.843492"
     inkscape:cy="55.038798"
     inkscape:window-width="2752"
     inkscape:window-height="1086"
     inkscape:window-x="0"
     inkscape:window-y="0"
     inkscape:window-maximized="1"
     inkscape:current-layer="layer1" />
  <defs
     id="defs1" />
  <g
     inkscape:label="Layer 1"
     inkscape:groupmode="layer"
     id="layer1"
     transform="translate(-10.939976,-6.642343)">
    <path
       style="font-size:80.958px;font-family:'DejaVu Sans';-inkscape-font-specification:'DejaVu Sans';fill:none;stroke:#000000;stroke-width:9.56199;stroke-linecap:round"
       d="m 36.118592,17.748182 c -0.128473,0 -0.255956,0.002 -0.382448,0.0059 -0.126491,0.004 -0.251992,0.0099 -0.376502,0.01784 -0.12451,0.0079 -0.248029,0.01783 -0.370558,0.02972 -0.122528,0.01189 -0.244066,0.02576 -0.364613,0.04162 -0.120546,0.01585 -0.240102,0.03369 -0.358667,0.05351 -0.118565,0.01982 -0.236139,0.04161 -0.352723,0.06539 -0.116584,0.02378 -0.232176,0.04954 -0.346778,0.07728 -0.114602,0.02774 -0.228213,0.05747 -0.340833,0.08918 -0.11262,0.0317 -0.224249,0.06539 -0.334888,0.101063 -0.110638,0.03567 -0.220286,0.07332 -0.328942,0.112956 -0.108657,0.03963 -0.216323,0.08125 -0.322998,0.124846 -0.106675,0.0436 -0.21236,0.08917 -0.317053,0.136733 -0.104693,0.04756 -0.208396,0.0971 -0.311108,0.148625 -0.102711,0.05152 -0.204432,0.105028 -0.305163,0.160515 -0.10073,0.05549 -0.200469,0.112954 -0.299218,0.172404 -0.09875,0.05945 -0.196505,0.120882 -0.293272,0.184295 -0.09677,0.06341 -0.192543,0.128808 -0.287328,0.196184 -0.09478,0.06738 -0.188579,0.136734 -0.281383,0.208074 -0.0928,0.07134 -0.184616,0.144661 -0.275438,0.219965 -0.09082,0.0753 -0.180653,0.152587 -0.269493,0.231854 -0.08884,0.07927 -0.17669,0.160514 -0.263548,0.243744 -0.08686,0.08323 -0.172726,0.168441 -0.257603,0.255634 -0.08488,0.08719 -0.168763,0.176368 -0.251659,0.267525 -0.0829,0.09116 -0.164799,0.184294 -0.245713,0.279414 -0.08091,0.09512 -0.160836,0.192221 -0.239768,0.291304 -0.07893,0.09908 -0.156872,0.200147 -0.233823,0.303194 -0.07695,0.103046 -0.152909,0.208074 -0.227878,0.315084 -0.07497,0.10701 -0.148946,0.216001 -0.221933,0.326974 -0.07299,0.110973 -0.144983,0.223928 -0.215988,0.338864 -0.071,0.114936 -0.14102,0.231854 -0.210044,0.350754 -0.06902,0.118899 -0.137056,0.239781 -0.204098,0.362644 -0.06704,0.122863 -0.133093,0.247707 -0.198153,0.374534 -0.06424,0.126002 -0.127469,0.254 -0.189699,0.383992 -0.06223,0.129991 -0.123455,0.261978 -0.183677,0.395959 -0.06022,0.133981 -0.11944,0.269956 -0.177655,0.407926 -0.05821,0.13797 -0.115425,0.277934 -0.171632,0.419893 -0.05621,0.141959 -0.11141,0.285913 -0.16561,0.431861 -0.0542,0.145948 -0.107395,0.293891 -0.159588,0.443828 -0.05219,0.149937 -0.103381,0.301868 -0.153566,0.455794 -0.05018,0.153926 -0.09936,0.309847 -0.147543,0.467762 -0.04818,0.157915 -0.09535,0.317825 -0.141524,0.47973 -0.04617,0.161904 -0.09133,0.325802 -0.135497,0.491696 -0.04416,0.165894 -0.08732,0.333781 -0.129479,0.503663 -0.04215,0.169883 -0.0833,0.341759 -0.123453,0.515631 -0.04015,0.173871 -0.07929,0.349738 -0.117434,0.527598 -0.03814,0.177861 -0.07528,0.357716 -0.111409,0.539565 -0.03614,0.18185 -0.07126,0.365694 -0.10539,0.551532 -0.03413,0.185839 -0.06725,0.373673 -0.09937,0.5635 -0.03212,0.189828 -0.06323,0.38165 -0.09334,0.575467 -0.03011,0.193816 -0.05922,0.389628 -0.08732,0.587433 -0.02811,0.197806 -0.05521,0.397607 -0.0813,0.599401 -0.0261,0.201795 -0.05119,0.405585 -0.07528,0.611368 -0.02409,0.205784 -0.04717,0.413563 -0.06926,0.623336 -0.02208,0.209772 -0.04316,0.42154 -0.06323,0.635302 -0.02007,0.213762 -0.03915,0.429519 -0.05721,0.64727 -0.01807,0.217751 -0.03513,0.437496 -0.05119,0.659236 -0.01606,0.221741 -0.03111,0.445475 -0.04517,0.671205 -0.01405,0.225729 -0.0271,0.453453 -0.03914,0.683171 -0.01205,0.229718 -0.02308,0.461431 -0.03312,0.695138 -0.01004,0.233707 -0.01907,0.469409 -0.0271,0.707105 -0.008,0.237696 -0.01506,0.477387 -0.02108,0.719073 -0.006,0.241685 -0.01104,0.485366 -0.01505,0.73104 -0.004,0.245675 -0.007,0.493344 -0.009,0.743007 -0.002,0.249664 -0.003,0.501322 -0.003,0.754974 0,0.252829 0.001,0.503689 0.003,0.752581 0.002,0.248891 0.005,0.495814 0.009,0.740768 0.004,0.244954 0.009,0.487938 0.01504,0.728955 0.006,0.241016 0.01306,0.480064 0.02109,0.717142 0.008,0.237079 0.01706,0.472189 0.0271,0.70533 0.01004,0.233141 0.02108,0.464314 0.03312,0.693517 0.01205,0.229204 0.02509,0.456438 0.03914,0.681704 0.01405,0.225266 0.02911,0.448564 0.04517,0.669892 0.01606,0.221328 0.03312,0.440687 0.05119,0.658078 0.01807,0.217391 0.03714,0.432813 0.05721,0.646266 0.02008,0.213454 0.04115,0.424938 0.06323,0.634454 0.02208,0.209515 0.04517,0.417062 0.06925,0.62264 0.02409,0.205578 0.04918,0.409187 0.07528,0.610828 0.0261,0.20164 0.05319,0.401312 0.0813,0.599014 0.02811,0.197703 0.05721,0.393437 0.08732,0.587203 0.03011,0.193765 0.06122,0.385562 0.09334,0.575389 0.03212,0.189828 0.06524,0.377686 0.09937,0.563576 0.03413,0.18589 0.06926,0.369812 0.105388,0.551764 0.03613,0.181953 0.07327,0.361936 0.111412,0.539951 0.03814,0.178015 0.07728,0.354062 0.117431,0.528139 0.04015,0.174078 0.0813,0.346186 0.123456,0.516326 0.04216,0.170139 0.08531,0.33831 0.129476,0.504512 0.04416,0.166203 0.08933,0.330436 0.135501,0.492701 0.04617,0.162264 0.09334,0.32256 0.14152,0.480887 0.04817,0.158327 0.09736,0.314685 0.147541,0.469074 0.05019,0.15439 0.101376,0.30681 0.153568,0.457262 0.05219,0.150452 0.105389,0.298935 0.159588,0.445449 0.0542,0.146514 0.109403,0.29106 0.16561,0.433636 0.05621,0.142577 0.113418,0.283185 0.171632,0.421824 0.05822,0.138639 0.117433,0.27531 0.177655,0.410011 0.06022,0.134702 0.121448,0.267434 0.183677,0.398198 0.06223,0.130764 0.125463,0.259559 0.189699,0.386385 0.06506,0.126003 0.131111,0.250037 0.198153,0.372102 0.06704,0.122065 0.135075,0.242162 0.204098,0.360289 0.06902,0.118128 0.139039,0.234286 0.210044,0.348476 0.071,0.11419 0.143001,0.226412 0.215988,0.336664 0.07299,0.110253 0.146965,0.218536 0.221933,0.324851 0.07497,0.106315 0.150928,0.210661 0.227878,0.313038 0.07695,0.102377 0.154892,0.202786 0.233823,0.301225 0.07893,0.09844 0.158855,0.194911 0.239768,0.289413 0.08091,0.0945 0.162818,0.187035 0.245713,0.2776 0.0829,0.09056 0.166782,0.17916 0.251659,0.265787 0.08488,0.08663 0.170744,0.171285 0.257603,0.253974 0.08686,0.08269 0.174708,0.16341 0.263548,0.242161 0.08884,0.07875 0.178671,0.155535 0.269493,0.230349 0.09082,0.07481 0.182635,0.14766 0.275438,0.218536 0.0928,0.07088 0.186598,0.139784 0.281383,0.206723 0.09479,0.06694 0.190561,0.13191 0.287328,0.194911 0.09677,0.063 0.194524,0.124034 0.293272,0.183098 0.09875,0.05906 0.198488,0.116159 0.299218,0.171285 0.100731,0.05513 0.202452,0.108283 0.305163,0.159472 0.102712,0.05119 0.206415,0.100408 0.311108,0.147659 0.104693,0.04725 0.210378,0.09253 0.317053,0.135846 0.106675,0.04331 0.214341,0.08466 0.322998,0.124035 0.108656,0.03937 0.218304,0.07678 0.328942,0.112221 0.110639,0.03544 0.222268,0.06891 0.334888,0.100409 0.11262,0.0315 0.226231,0.06103 0.340833,0.0886 0.114602,0.02756 0.230194,0.05316 0.346778,0.07678 0.116584,0.02363 0.234158,0.04528 0.352723,0.06497 0.118565,0.01969 0.238121,0.03741 0.358667,0.05316 0.120547,0.01575 0.242085,0.02953 0.364613,0.04135 0.122529,0.01181 0.246048,0.02166 0.370558,0.02953 0.12451,0.0079 0.250011,0.01378 0.376502,0.01772 0.126492,0.0039 0.253975,0.0059 0.382448,0.0059 0.129297,0 0.257577,-0.002 0.384841,-0.0059 0.127264,-0.0039 0.253511,-0.0098 0.378742,-0.01771 0.12523,-0.0079 0.249444,-0.01772 0.372642,-0.02953 0.123197,-0.01181 0.245378,-0.0256 0.366543,-0.04135 0.121164,-0.01575 0.241312,-0.03347 0.360443,-0.05316 0.119132,-0.01969 0.237246,-0.04135 0.354345,-0.06497 0.117098,-0.02362 0.233179,-0.04922 0.348244,-0.07678 0.115065,-0.02756 0.229114,-0.0571 0.342146,-0.0886 0.113032,-0.0315 0.225047,-0.06497 0.336046,-0.100408 0.110998,-0.03544 0.220981,-0.07285 0.329946,-0.112222 0.108966,-0.03938 0.216915,-0.08072 0.323848,-0.124033 0.106932,-0.04331 0.212848,-0.0886 0.317747,-0.135848 0.1049,-0.04725 0.208782,-0.09647 0.311648,-0.147658 0.102867,-0.05119 0.204717,-0.104347 0.30555,-0.159473 0.100833,-0.05513 0.20065,-0.112221 0.299449,-0.171285 0.0988,-0.05906 0.196583,-0.120096 0.29335,-0.183098 0.09677,-0.063 0.192517,-0.127972 0.287251,-0.194911 0.09473,-0.06694 0.18845,-0.135846 0.281151,-0.206723 0.0927,-0.07088 0.184385,-0.143722 0.275052,-0.218536 0.09067,-0.07481 0.180319,-0.151597 0.268953,-0.230349 0.08864,-0.07875 0.176252,-0.159472 0.262853,-0.242161 0.0866,-0.08269 0.172186,-0.167347 0.256754,-0.253974 0.08457,-0.08663 0.16812,-0.175223 0.250654,-0.265787 0.08254,-0.09057 0.164054,-0.183098 0.244555,-0.2776 0.0805,-0.0945 0.159987,-0.190973 0.238456,-0.289413 0.07847,-0.09844 0.155921,-0.198848 0.232356,-0.301225 0.07644,-0.102377 0.151855,-0.206723 0.226257,-0.313038 0.0744,-0.106315 0.147788,-0.214598 0.220157,-0.324851 0.07237,-0.110252 0.143722,-0.222474 0.214058,-0.336664 0.07034,-0.11419 0.139656,-0.230348 0.207959,-0.348476 0.0683,-0.118127 0.135589,-0.238224 0.201859,-0.360289 0.06627,-0.122065 0.131523,-0.246099 0.19576,-0.372102 0.06506,-0.126826 0.129104,-0.255621 0.192131,-0.386385 0.06303,-0.130764 0.125038,-0.263496 0.186032,-0.398198 0.06099,-0.134701 0.120971,-0.271372 0.179932,-0.410011 0.05896,-0.138639 0.116905,-0.279247 0.173833,-0.421824 0.05693,-0.142576 0.112839,-0.287122 0.167733,-0.433636 0.0549,-0.146514 0.108773,-0.294997 0.161634,-0.445449 0.05286,-0.150452 0.104706,-0.302872 0.155535,-0.457262 0.05083,-0.154389 0.10064,-0.310747 0.149435,-0.469074 0.04879,-0.158327 0.09657,-0.318623 0.143336,-0.480887 0.04676,-0.162265 0.09251,-0.326498 0.137236,-0.492701 0.04473,-0.166202 0.08844,-0.334373 0.131138,-0.504512 0.04269,-0.17014 0.08437,-0.342248 0.125037,-0.516326 0.04066,-0.174077 0.08031,-0.350124 0.118936,-0.528139 0.03863,-0.178015 0.07624,-0.357998 0.112841,-0.539951 0.03659,-0.181952 0.07217,-0.365874 0.106738,-0.551764 0.03456,-0.18589 0.06811,-0.373748 0.100641,-0.563576 0.03253,-0.189827 0.06404,-0.381624 0.09454,-0.575389 0.0305,-0.193766 0.05998,-0.3895 0.08844,-0.587203 0.02846,-0.197702 0.05591,-0.397374 0.08234,-0.599014 0.02643,-0.201641 0.05184,-0.40525 0.07624,-0.610828 0.0244,-0.205578 0.04778,-0.413125 0.07014,-0.62264 0.02236,-0.209516 0.04371,-0.421 0.06404,-0.634454 0.02033,-0.213453 0.03965,-0.428875 0.05794,-0.646266 0.0183,-0.21739 0.03558,-0.43675 0.05185,-0.658078 0.01626,-0.221328 0.03151,-0.444626 0.04574,-0.669892 0.01423,-0.225266 0.02745,-0.4525 0.03965,-0.681704 0.0122,-0.229203 0.02338,-0.460376 0.03355,-0.693517 0.01017,-0.233141 0.01931,-0.468251 0.02744,-0.70533 0.0081,-0.237078 0.01525,-0.476126 0.02134,-0.717142 0.0061,-0.241016 0.01118,-0.484001 0.01526,-0.728955 0.004,-0.244954 0.0071,-0.491877 0.0091,-0.740768 0.002,-0.248892 0.0031,-0.499752 0.0031,-0.752581 0,-0.253652 -0.001,-0.50531 -0.0031,-0.754974 -0.002,-0.249663 -0.0051,-0.497332 -0.0091,-0.743007 -0.004,-0.245674 -0.0091,-0.489354 -0.01524,-0.73104 -0.0061,-0.241685 -0.01323,-0.481376 -0.02136,-0.719073 -0.0081,-0.237696 -0.01729,-0.473398 -0.02745,-0.707105 -0.01017,-0.233707 -0.02135,-0.46542 -0.03354,-0.695138 -0.0122,-0.229718 -0.02541,-0.457442 -0.03965,-0.683171 -0.01423,-0.22573 -0.02948,-0.449464 -0.04574,-0.671205 -0.01627,-0.22174 -0.03355,-0.441485 -0.05185,-0.659236 -0.0183,-0.217751 -0.03761,-0.433508 -0.05794,-0.64727 -0.02033,-0.213762 -0.04168,-0.425529 -0.06404,-0.635302 -0.02237,-0.209773 -0.04575,-0.417552 -0.07015,-0.623336 -0.02439,-0.205783 -0.04981,-0.409573 -0.07624,-0.611368 -0.02643,-0.201794 -0.05388,-0.401595 -0.08234,-0.599401 -0.02847,-0.197805 -0.05795,-0.393617 -0.08844,-0.587433 -0.0305,-0.193817 -0.06201,-0.385639 -0.09454,-0.575467 -0.03253,-0.189827 -0.06608,-0.377661 -0.10064,-0.563499 -0.03456,-0.185839 -0.07014,-0.369683 -0.106739,-0.551533 -0.0366,-0.181849 -0.07421,-0.361704 -0.112838,-0.539565 -0.03863,-0.17786 -0.07828,-0.353726 -0.118939,-0.527598 -0.04067,-0.173871 -0.08234,-0.345748 -0.125039,-0.51563 -0.0427,-0.169883 -0.08641,-0.33777 -0.131136,-0.503664 -0.04473,-0.165893 -0.09048,-0.329792 -0.137237,-0.491696 -0.04676,-0.161905 -0.09454,-0.321814 -0.143335,-0.47973 -0.0488,-0.157915 -0.09861,-0.313835 -0.149435,-0.467761 -0.05083,-0.153926 -0.102673,-0.305858 -0.155535,-0.455795 -0.05286,-0.149937 -0.106739,-0.29788 -0.161634,-0.443828 -0.05489,-0.145948 -0.110805,-0.289902 -0.167733,-0.431861 -0.05693,-0.141959 -0.114872,-0.281923 -0.173833,-0.419893 -0.05896,-0.13797 -0.118938,-0.273945 -0.179932,-0.407926 -0.06099,-0.133981 -0.123005,-0.265968 -0.186032,-0.395959 -0.06303,-0.129992 -0.127071,-0.257989 -0.192131,-0.383992 -0.06424,-0.126826 -0.12949,-0.251671 -0.19576,-0.374534 -0.06627,-0.122863 -0.133556,-0.243745 -0.201859,-0.362644 -0.0683,-0.1189 -0.137623,-0.235817 -0.207959,-0.350754 -0.07034,-0.114936 -0.141688,-0.227891 -0.214058,-0.338864 -0.07237,-0.110973 -0.145755,-0.219964 -0.220157,-0.326974 -0.0744,-0.107009 -0.149821,-0.212037 -0.226257,-0.315084 -0.07643,-0.103046 -0.153887,-0.204111 -0.232356,-0.303194 -0.07847,-0.09908 -0.157954,-0.196185 -0.238456,-0.291304 -0.0805,-0.09512 -0.16202,-0.188258 -0.244555,-0.279414 -0.08253,-0.09116 -0.166086,-0.180331 -0.250654,-0.267525 -0.08457,-0.08719 -0.170152,-0.172404 -0.256754,-0.255634 -0.0866,-0.08323 -0.174218,-0.164478 -0.262853,-0.243744 -0.08863,-0.07927 -0.178285,-0.156551 -0.268953,-0.231854 -0.09067,-0.0753 -0.182351,-0.148625 -0.275052,-0.219965 -0.0927,-0.07134 -0.186417,-0.140697 -0.281151,-0.208074 -0.09473,-0.06738 -0.190484,-0.132771 -0.287251,-0.196184 -0.09677,-0.06341 -0.19455,-0.124845 -0.29335,-0.184295 -0.0988,-0.05945 -0.198616,-0.116918 -0.299449,-0.172404 -0.100833,-0.05549 -0.202683,-0.108991 -0.305549,-0.160515 -0.102867,-0.05152 -0.206749,-0.101065 -0.311649,-0.148625 -0.104899,-0.04756 -0.210815,-0.09314 -0.317748,-0.136734 -0.106932,-0.0436 -0.214881,-0.08521 -0.323847,-0.124845 -0.108965,-0.03964 -0.218948,-0.07729 -0.329946,-0.112956 -0.110999,-0.03567 -0.223014,-0.06936 -0.336046,-0.101063 -0.113032,-0.03171 -0.227081,-0.06143 -0.342146,-0.08917 -0.115065,-0.02774 -0.231146,-0.05351 -0.348244,-0.07729 -0.117099,-0.02378 -0.235213,-0.04558 -0.354345,-0.06539 -0.119131,-0.01982 -0.239279,-0.03765 -0.360443,-0.0535 -0.121165,-0.01586 -0.243346,-0.02973 -0.366543,-0.04162 -0.123198,-0.01189 -0.247412,-0.0218 -0.372642,-0.02972 -0.125231,-0.0079 -0.251478,-0.01387 -0.378742,-0.01783 -0.127264,-0.004 -0.255544,-0.0059 -0.384841,-0.0059 z m 0,-6.324844 c 0.206711,0 0.41189,0.0026 0.615537,0.0077 0.203648,0.0051 0.405765,0.0128 0.60635,0.02305 0.200585,0.01024 0.399639,0.02304 0.597162,0.03841 0.197523,0.01537 0.393514,0.03329 0.587974,0.05378 0.19446,0.02049 0.387389,0.04353 0.578787,0.06914 0.191397,0.02561 0.381264,0.05378 0.569599,0.0845 0.188334,0.03073 0.375138,0.06402 0.56041,0.09987 0.185273,0.03585 0.369014,0.07426 0.551224,0.115232 0.18221,0.04097 0.362889,0.0845 0.542036,0.130596 0.179147,0.04609 0.356763,0.09475 0.532848,0.145961 0.176085,0.05122 0.350638,0.10499 0.52366,0.161326 0.173023,0.05634 0.344514,0.115232 0.514473,0.176689 0.16996,0.06146 0.338388,0.125475 0.505285,0.192054 0.166897,0.06658 0.332263,0.135718 0.496097,0.207418 0.163835,0.0717 0.326138,0.145961 0.48691,0.222782 0.160772,0.07682 0.320012,0.156204 0.477721,0.238147 0.15771,0.08194 0.313888,0.166447 0.468534,0.253511 0.154647,0.08707 0.307763,0.17669 0.459347,0.268875 0.151584,0.09219 0.301637,0.186933 0.450158,0.28424 0.148522,0.09731 0.295513,0.197176 0.440972,0.299604 0.145459,0.102429 0.289387,0.207418 0.431783,0.314968 0.142397,0.107551 0.283262,0.217662 0.422595,0.330333 0.139334,0.112672 0.277137,0.227904 0.413408,0.345697 0.136272,0.117793 0.271012,0.238147 0.404221,0.361061 0.133208,0.122915 0.264886,0.24839 0.395032,0.376425 0.130146,0.128036 0.258762,0.258633 0.385845,0.39179 0.127083,0.133158 0.252636,0.268876 0.376657,0.407154 0.124021,0.138279 0.246511,0.279118 0.367469,0.422518 0.120958,0.143401 0.240386,0.289362 0.358282,0.437883 0.117896,0.148522 0.23426,0.299604 0.349094,0.453247 0.114833,0.153643 0.228136,0.309847 0.339907,0.468611 0.11177,0.158765 0.22201,0.32009 0.330718,0.483976 0.109532,0.163063 0.217352,0.328441 0.323461,0.496136 0.106109,0.167695 0.210506,0.337706 0.313193,0.510033 0.102686,0.172328 0.20366,0.346971 0.302924,0.523931 0.09926,0.176959 0.196815,0.356235 0.292655,0.537827 0.09584,0.181593 0.189969,0.365501 0.282386,0.551726 0.09242,0.186224 0.183124,0.374765 0.272118,0.565622 0.089,0.190857 0.176278,0.384031 0.26185,0.57952 0.08557,0.19549 0.169432,0.393296 0.251581,0.593418 0.08215,0.200122 0.162586,0.40256 0.241312,0.607315 0.07872,0.204754 0.15574,0.411825 0.231043,0.621211 0.0753,0.209387 0.148895,0.42109 0.220776,0.63511 0.07188,0.214019 0.142049,0.430355 0.210506,0.649007 0.06846,0.218652 0.135204,0.43962 0.200238,0.662904 0.06503,0.223284 0.128358,0.448885 0.189969,0.676801 0.06161,0.227917 0.121512,0.45815 0.179701,0.690699 0.05819,0.232549 0.114666,0.467415 0.169432,0.704596 0.05477,0.237182 0.10782,0.47668 0.159163,0.718494 0.05134,0.241814 0.100975,0.485944 0.148895,0.732391 0.04792,0.246447 0.09413,0.495209 0.138626,0.746288 0.0445,0.251079 0.08728,0.504475 0.128357,0.760186 0.04107,0.255712 0.08044,0.513739 0.11809,0.774083 0.03765,0.260344 0.07359,0.523005 0.10782,0.787981 0.03423,0.264976 0.06675,0.532269 0.09755,0.801877 0.03081,0.269609 0.0599,0.541535 0.08728,0.815776 0.02739,0.274241 0.05306,0.550799 0.07702,0.829672 0.02396,0.278874 0.04621,0.560064 0.06674,0.84357 0.02054,0.283506 0.03936,0.569329 0.05647,0.857467 0.01711,0.288139 0.03252,0.578594 0.04621,0.871365 0.01369,0.292771 0.02567,0.587858 0.03594,0.885262 0.01027,0.297403 0.01883,0.597123 0.02567,0.899159 0.0068,0.302036 0.01198,0.606388 0.0154,0.913057 0.0034,0.306668 0.0051,0.615653 0.0051,0.926954 0,0.310478 -0.0017,0.618664 -0.0051,0.924561 -0.0034,0.305896 -0.0086,0.609502 -0.01542,0.910817 -0.0068,0.301315 -0.0154,0.60034 -0.02567,0.897075 -0.01027,0.296734 -0.02225,0.591178 -0.03594,0.883332 -0.01369,0.292154 -0.02909,0.582016 -0.04621,0.869589 -0.01711,0.287572 -0.03594,0.572854 -0.05648,0.855845 -0.02054,0.282992 -0.04278,0.563693 -0.06674,0.842103 -0.02396,0.278411 -0.04963,0.554531 -0.07702,0.82836 -0.02739,0.27383 -0.05648,0.545369 -0.08729,0.814617 -0.03081,0.269249 -0.06332,0.536206 -0.09755,0.800874 -0.03423,0.264667 -0.07017,0.527044 -0.107822,0.787131 -0.03765,0.260087 -0.07701,0.517883 -0.118088,0.773389 -0.04107,0.255505 -0.08386,0.50872 -0.128358,0.759645 -0.0445,0.250925 -0.0907,0.499558 -0.138625,0.745902 -0.04792,0.246343 -0.09755,0.490396 -0.148895,0.732159 -0.05134,0.241763 -0.104397,0.481235 -0.159163,0.718417 -0.05477,0.237181 -0.111243,0.472072 -0.169432,0.704673 -0.05819,0.232601 -0.118089,0.462911 -0.179701,0.690931 -0.06161,0.228019 -0.124935,0.453748 -0.189969,0.677187 -0.06503,0.223439 -0.13178,0.444587 -0.200238,0.663445 -0.06846,0.218857 -0.138626,0.435425 -0.210506,0.649701 -0.07188,0.214277 -0.145473,0.426263 -0.220776,0.635959 -0.0753,0.209696 -0.152318,0.417101 -0.231043,0.622216 -0.07873,0.205115 -0.159163,0.407939 -0.241312,0.608473 -0.08215,0.200533 -0.166009,0.398777 -0.251581,0.594729 -0.08557,0.195953 -0.172855,0.389615 -0.26185,0.580987 -0.08899,0.191372 -0.1797,0.380453 -0.272118,0.567244 -0.09242,0.186791 -0.186546,0.371291 -0.282386,0.553501 -0.09584,0.18221 -0.193392,0.362129 -0.292655,0.539758 -0.09926,0.177629 -0.200238,0.352968 -0.302924,0.526016 -0.102687,0.173047 -0.207084,0.343805 -0.313193,0.512272 -0.106109,0.168466 -0.213929,0.334643 -0.323461,0.498529 -0.108708,0.163062 -0.218948,0.323577 -0.330718,0.481544 -0.111771,0.157966 -0.225074,0.313385 -0.339907,0.466256 -0.114834,0.152871 -0.231198,0.303194 -0.349094,0.45097 -0.117896,0.147775 -0.237323,0.293003 -0.358282,0.435682 -0.120958,0.14268 -0.243448,0.282811 -0.367469,0.420395 -0.124021,0.137584 -0.249574,0.27262 -0.376657,0.405108 -0.127083,0.132488 -0.255698,0.262429 -0.385845,0.389821 -0.130146,0.127393 -0.261823,0.252237 -0.395032,0.374534 -0.133209,0.122297 -0.267949,0.242046 -0.404221,0.359247 -0.136271,0.117201 -0.274074,0.231854 -0.413408,0.34396 -0.139333,0.112105 -0.280198,0.221663 -0.422595,0.328673 -0.142396,0.107009 -0.286324,0.211471 -0.431783,0.313385 -0.145459,0.101914 -0.29245,0.20128 -0.440972,0.298099 -0.148521,0.09682 -0.298574,0.191088 -0.450158,0.282811 -0.151584,0.09172 -0.3047,0.180897 -0.459347,0.267524 -0.154646,0.08663 -0.310824,0.170706 -0.468534,0.252237 -0.157709,0.08153 -0.316949,0.160515 -0.477721,0.23695 -0.160772,0.07644 -0.323075,0.150323 -0.48691,0.221663 -0.163834,0.07134 -0.3292,0.140132 -0.496097,0.206376 -0.166897,0.06624 -0.335325,0.12994 -0.505285,0.191089 -0.169959,0.06115 -0.34145,0.119749 -0.514473,0.175802 -0.173022,0.05605 -0.347575,0.109557 -0.52366,0.160514 -0.176085,0.05096 -0.353701,0.09937 -0.532848,0.145228 -0.179147,0.04586 -0.359826,0.08917 -0.542036,0.12994 -0.18221,0.04077 -0.365951,0.07898 -0.551224,0.114653 -0.185272,0.03567 -0.372075,0.06879 -0.56041,0.09937 -0.188335,0.03057 -0.378201,0.0586 -0.569599,0.08408 -0.191398,0.02548 -0.384327,0.04841 -0.578787,0.06879 -0.19446,0.02039 -0.390451,0.03822 -0.587974,0.05351 -0.197523,0.01529 -0.396577,0.02802 -0.597162,0.03821 -0.200585,0.01019 -0.402702,0.01783 -0.60635,0.02293 -0.203647,0.0051 -0.408826,0.0076 -0.615537,0.0076 -0.20671,0 -0.411902,-0.0025 -0.615576,-0.0076 -0.203673,-0.0051 -0.405828,-0.01274 -0.606465,-0.02293 -0.200637,-0.01019 -0.399755,-0.02293 -0.597355,-0.03822 -0.1976,-0.01529 -0.393681,-0.03312 -0.588245,-0.0535 -0.194563,-0.02038 -0.387607,-0.04331 -0.579134,-0.06879 -0.191526,-0.02548 -0.381533,-0.05351 -0.570023,-0.08408 -0.188489,-0.03057 -0.37546,-0.0637 -0.560913,-0.09937 -0.185452,-0.03567 -0.369386,-0.07389 -0.551802,-0.114652 -0.182416,-0.04076 -0.363313,-0.08408 -0.542692,-0.12994 -0.179379,-0.04586 -0.35724,-0.09427 -0.533582,-0.145228 -0.176342,-0.05096 -0.351165,-0.104462 -0.524471,-0.160514 -0.173305,-0.05605 -0.345091,-0.114654 -0.51536,-0.175802 -0.170268,-0.06115 -0.339018,-0.124845 -0.50625,-0.191089 -0.167232,-0.06624 -0.332945,-0.135036 -0.49714,-0.206376 -0.164194,-0.07134 -0.326871,-0.145227 -0.488029,-0.221663 -0.161157,-0.07644 -0.320797,-0.155419 -0.478918,-0.23695 -0.158121,-0.08153 -0.314724,-0.16561 -0.469808,-0.252237 -0.155084,-0.08663 -0.30865,-0.175802 -0.460698,-0.267524 -0.152047,-0.09172 -0.302576,-0.185993 -0.451587,-0.282811 -0.14901,-0.09682 -0.296502,-0.196185 -0.442476,-0.298099 -0.145974,-0.101914 -0.290429,-0.206376 -0.433366,-0.313385 -0.142937,-0.10701 -0.284356,-0.216568 -0.424256,-0.328673 -0.1399,-0.112106 -0.278282,-0.226759 -0.415145,-0.34396 -0.136863,-0.117201 -0.272208,-0.23695 -0.406035,-0.359247 -0.133826,-0.122297 -0.266134,-0.247141 -0.396924,-0.374534 -0.13079,-0.127392 -0.260061,-0.257333 -0.387814,-0.389821 -0.127752,-0.132488 -0.253987,-0.267524 -0.378703,-0.405108 -0.124715,-0.137584 -0.247913,-0.277715 -0.369592,-0.420395 -0.121679,-0.142679 -0.24184,-0.287907 -0.360482,-0.435682 -0.118643,-0.147776 -0.235766,-0.298099 -0.351372,-0.45097 -0.115605,-0.152871 -0.229692,-0.30829 -0.342261,-0.466256 -0.112569,-0.157967 -0.223619,-0.318482 -0.333151,-0.481544 -0.108708,-0.163889 -0.215718,-0.330067 -0.321029,-0.498535 -0.105311,-0.168467 -0.208924,-0.339225 -0.310838,-0.512272 -0.101914,-0.173048 -0.202129,-0.348387 -0.300646,-0.526015 -0.09852,-0.177629 -0.195335,-0.357549 -0.290455,-0.539759 -0.09512,-0.182209 -0.18854,-0.36671 -0.280263,-0.553501 -0.09172,-0.186791 -0.181746,-0.375872 -0.270072,-0.567244 -0.08833,-0.191371 -0.174952,-0.385034 -0.259881,-0.580986 -0.08493,-0.195953 -0.168158,-0.394196 -0.249689,-0.59473 -0.08153,-0.200534 -0.161364,-0.403358 -0.239498,-0.608473 -0.07813,-0.205115 -0.15457,-0.41252 -0.229307,-0.622216 -0.07474,-0.209696 -0.147775,-0.421682 -0.219114,-0.635958 -0.07134,-0.214277 -0.140982,-0.430844 -0.208924,-0.649702 -0.06794,-0.218858 -0.134187,-0.440006 -0.198733,-0.663445 -0.06454,-0.223438 -0.127392,-0.449167 -0.18854,-0.677187 -0.06115,-0.22802 -0.120599,-0.45833 -0.17835,-0.690931 -0.05775,-0.2326 -0.113804,-0.467491 -0.168158,-0.704673 -0.05435,-0.237182 -0.10701,-0.476654 -0.157967,-0.718417 -0.05096,-0.241763 -0.100215,-0.485815 -0.147775,-0.732159 -0.04756,-0.246343 -0.09342,-0.494977 -0.137584,-0.745902 -0.04416,-0.250924 -0.08663,-0.504139 -0.127392,-0.759645 -0.04077,-0.255506 -0.07983,-0.513302 -0.117201,-0.773389 -0.03737,-0.260086 -0.07304,-0.522463 -0.10701,-0.787131 -0.03397,-0.264667 -0.06624,-0.531625 -0.09682,-0.800874 -0.03058,-0.269248 -0.05945,-0.540787 -0.08663,-0.814617 -0.02717,-0.273829 -0.05265,-0.549949 -0.07643,-0.82836 -0.02378,-0.27841 -0.04586,-0.559111 -0.06625,-0.842103 -0.02038,-0.282991 -0.03906,-0.568273 -0.05605,-0.855845 -0.01699,-0.287573 -0.03228,-0.577435 -0.04586,-0.869589 -0.01359,-0.292153 -0.02548,-0.586597 -0.03567,-0.883332 -0.01019,-0.296734 -0.01868,-0.595759 -0.02548,-0.897075 -0.0068,-0.301315 -0.01189,-0.604921 -0.01529,-0.910817 -0.0034,-0.305897 -0.0051,-0.614083 -0.0051,-0.924561 0,-0.311301 0.0017,-0.620286 0.0051,-0.926954 0.0034,-0.306669 0.0085,-0.611021 0.01528,-0.913057 0.0068,-0.302036 0.01529,-0.601756 0.02548,-0.899159 0.01019,-0.297404 0.02208,-0.592491 0.03567,-0.885262 0.01359,-0.292771 0.02888,-0.583226 0.04586,-0.871365 0.01699,-0.288138 0.03567,-0.573961 0.05605,-0.857467 0.02039,-0.283506 0.04247,-0.564696 0.06625,-0.84357 0.02378,-0.278873 0.04926,-0.555431 0.07643,-0.829672 0.02717,-0.274241 0.05605,-0.546167 0.08663,-0.815776 0.03057,-0.269608 0.06285,-0.536901 0.09682,-0.801877 0.03397,-0.264976 0.06964,-0.527637 0.107009,-0.787981 0.03737,-0.260344 0.07644,-0.518371 0.117202,-0.774083 0.04077,-0.255711 0.08323,-0.509107 0.127392,-0.760186 0.04416,-0.251079 0.09002,-0.499841 0.137584,-0.746288 0.04756,-0.246446 0.09682,-0.490577 0.147775,-0.732391 0.05096,-0.241814 0.103613,-0.481311 0.157967,-0.718493 0.05435,-0.237182 0.110407,-0.472047 0.168158,-0.704597 0.05775,-0.232549 0.117201,-0.462782 0.17835,-0.690699 0.06115,-0.227916 0.123995,-0.453517 0.18854,-0.676801 0.06455,-0.223284 0.13079,-0.444252 0.198733,-0.662904 0.06794,-0.218652 0.137584,-0.434988 0.208924,-0.649007 0.07134,-0.21402 0.144378,-0.425723 0.219114,-0.63511 0.07474,-0.209386 0.151173,-0.416457 0.229307,-0.621211 0.07813,-0.204755 0.157967,-0.407193 0.239498,-0.607315 0.08153,-0.200122 0.164761,-0.397928 0.249689,-0.593418 0.08493,-0.195489 0.171555,-0.388663 0.259881,-0.57952 0.08833,-0.190857 0.17835,-0.379398 0.270072,-0.565622 0.09172,-0.186225 0.185143,-0.370133 0.280263,-0.551726 0.09512,-0.181592 0.191938,-0.360868 0.290455,-0.537827 0.09852,-0.17696 0.198732,-0.351603 0.300646,-0.523931 0.101914,-0.172327 0.205527,-0.342338 0.310838,-0.510033 0.105311,-0.167695 0.212321,-0.333073 0.321029,-0.496136 0.109532,-0.163886 0.220582,-0.325211 0.333151,-0.483976 0.112568,-0.158764 0.226655,-0.314968 0.342261,-0.468611 0.115605,-0.153643 0.232729,-0.304725 0.351372,-0.453247 0.118642,-0.148521 0.238803,-0.294482 0.360482,-0.437883 0.121679,-0.1434 0.244876,-0.284239 0.369592,-0.422518 0.124716,-0.138278 0.25095,-0.273996 0.378703,-0.407154 0.127753,-0.133157 0.257024,-0.263754 0.387814,-0.39179 0.13079,-0.128035 0.263098,-0.25351 0.396924,-0.376425 0.133827,-0.122914 0.269172,-0.243268 0.406035,-0.361061 0.136863,-0.117793 0.275245,-0.233025 0.415145,-0.345697 0.1399,-0.112671 0.281318,-0.222782 0.424255,-0.330333 0.142937,-0.10755 0.287393,-0.212539 0.433367,-0.314968 0.145973,-0.102428 0.293465,-0.202296 0.442476,-0.299604 0.14901,-0.09731 0.299539,-0.192054 0.451587,-0.28424 0.152047,-0.09219 0.305613,-0.18181 0.460698,-0.268875 0.155084,-0.08706 0.311687,-0.171568 0.469808,-0.253511 0.158121,-0.08194 0.31776,-0.161325 0.478918,-0.238147 0.161158,-0.07682 0.323835,-0.151082 0.488029,-0.222782 0.164195,-0.0717 0.329908,-0.140839 0.49714,-0.207418 0.167231,-0.06658 0.335982,-0.130597 0.50625,-0.192054 0.170268,-0.06146 0.342055,-0.120353 0.51536,-0.176689 0.173305,-0.05634 0.348129,-0.110111 0.524471,-0.161326 0.176342,-0.05121 0.354203,-0.09987 0.533582,-0.14596 0.179378,-0.04609 0.360276,-0.08962 0.542692,-0.130597 0.182416,-0.04097 0.36635,-0.07938 0.551802,-0.115231 0.185453,-0.03585 0.372424,-0.06914 0.560913,-0.09987 0.18849,-0.03073 0.378497,-0.0589 0.570023,-0.0845 0.191526,-0.02561 0.384571,-0.04865 0.579134,-0.06914 0.194564,-0.02049 0.390645,-0.03841 0.588245,-0.05378 0.1976,-0.01536 0.396718,-0.02817 0.597355,-0.03841 0.200637,-0.01025 0.402792,-0.01793 0.606465,-0.02305 0.203674,-0.0051 0.408865,-0.0077 0.615576,-0.0077 v 3e-6 z"
       id="text1"
       aria-label="0"
       sodipodi:nodetypes="cccccccccccccccccccccccccccccccccccccccccccccccccccccccccccccccccccccccccccccccccccccccccccccccccccccccccccccccccccccccccccccccccccccccccccccccccccccccccccccccccccccccccccccccccccccccccccccccccccccccccccccccccccccccccccccccccccccccccccccccccccccccccccccccccccccccccccccccccccccccccccccccccccccccccccccccccccccccccccccccccccccccccccccccccccccccccccccccccccccccccccccccccccccccccccccccccccccccccccccccccccccccccccccccccccccccccccccccccccccccccccccccccccccccccccccccccccccccccccccccccccccccccccccccccccccccccccccccccccc" />
  </g>
</svg>
