<?xml version="1.0" encoding="UTF-8" standalone="no"?>
<!-- Created with Inkscape (http://www.inkscape.org/) -->

<svg
   width="47.036686"
   height="69.648003"
   viewBox="0 0 47.036687 69.648005"
   version="1.1"
   id="svg1"
   inkscape:version="1.4 (e7c3feb100, 2024-10-09)"
   sodipodi:docname="2.svg"
   inkscape:export-filename="3.png"
   inkscape:export-xdpi="96"
   inkscape:export-ydpi="96"
   xmlns:inkscape="http://www.inkscape.org/namespaces/inkscape"
   xmlns:sodipodi="http://sodipodi.sourceforge.net/DTD/sodipodi-0.dtd"
   xmlns="http://www.w3.org/2000/svg"
   xmlns:svg="http://www.w3.org/2000/svg">
  <sodipodi:namedview
     id="namedview1"
     pagecolor="#ffffff"
     bordercolor="#cccccc"
     borderopacity="1"
     inkscape:showpageshadow="0"
     inkscape:pageopacity="1"
     inkscape:pagecheckerboard="true"
     inkscape:deskcolor="#d1d1d1"
     inkscape:document-units="mm"
     inkscape:zoom="2.0812827"
     inkscape:cx="386.06"
     inkscape:cy="54.773914"
     inkscape:window-width="2752"
     inkscape:window-height="1086"
     inkscape:window-x="0"
     inkscape:window-y="0"
     inkscape:window-maximized="1"
     inkscape:current-layer="layer1" />
  <defs
     id="defs1" />
  <g
     inkscape:label="Layer 1"
     inkscape:groupmode="layer"
     id="layer1"
     transform="translate(-11.53293,-6.642343)">
    <path
       style="font-size:80.958px;font-family:'DejaVu Sans';-inkscape-font-specification:'DejaVu Sans';fill:none;stroke:#000000;stroke-width:9.56199;stroke-linecap:round"
       d="m 25.919782,64.789207 h 1.741803 1.741802 1.741803 1.741803 1.741802 1.741803 1.741802 1.741803 1.741803 1.741802 1.741803 1.741802 1.741803 1.741803 1.741802 1.741803 v 0.420009 0.420009 0.42001 0.420009 0.420009 0.420009 0.420009 0.42001 0.420009 0.420009 0.420009 0.420009 0.420009 0.42001 0.420009 0.420009 H 51.446455 49.104287 46.762118 44.419949 42.077781 39.735612 37.393443 35.051275 32.709106 30.366937 28.024768 25.6826 23.340431 20.998262 18.656094 16.313925 v -0.420009 -0.420009 -0.42001 -0.420009 -0.420009 -0.420009 -0.420009 -0.420009 -0.42001 -0.420009 -0.420009 -0.420009 -0.420009 -0.42001 -0.420009 -0.420009 c 0.189416,-0.196004 0.383104,-0.396178 0.581064,-0.60052 0.19796,-0.204343 0.400193,-0.412855 0.606697,-0.625536 0.206505,-0.212681 0.417282,-0.429531 0.63233,-0.650551 0.215049,-0.221019 0.43437,-0.446208 0.657963,-0.675566 0.223593,-0.229358 0.451459,-0.462885 0.683596,-0.700581 0.232138,-0.237697 0.468547,-0.479562 0.709229,-0.725597 0.240682,-0.246035 0.485635,-0.496239 0.734861,-0.750612 0.249226,-0.254373 0.502725,-0.512916 0.760495,-0.775627 0.25777,-0.262712 0.519813,-0.529593 0.786127,-0.800643 0.266315,-0.27105 0.536902,-0.546269 0.811761,-0.825657 0.274859,-0.279389 0.55399,-0.562946 0.837393,-0.850673 0.283403,-0.287727 0.571079,-0.579623 0.863026,-0.875689 0.291948,-0.296065 0.588167,-0.596299 0.888659,-0.900703 0.300492,-0.304404 0.605256,-0.612977 0.914292,-0.925719 0.309036,-0.312742 0.622345,-0.629653 0.939925,-0.950734 0.317581,-0.32108 0.639433,-0.64633 0.965558,-0.975749 0.327772,-0.331066 0.647926,-0.654772 0.960462,-0.971117 0.312536,-0.316345 0.617455,-0.62533 0.914755,-0.926954 0.297301,-0.301624 0.586984,-0.595888 0.869049,-0.882791 0.282065,-0.286903 0.556512,-0.566446 0.823341,-0.838629 0.266829,-0.272182 0.526041,-0.537004 0.777635,-0.794466 0.251593,-0.257461 0.495569,-0.507562 0.731927,-0.750303 0.236358,-0.24274 0.465099,-0.47812 0.686221,-0.70614 0.221123,-0.22802 0.434627,-0.448679 0.640514,-0.661978 0.205887,-0.213299 0.404156,-0.419237 0.594807,-0.617815 0.190651,-0.198578 0.373685,-0.389795 0.5491,-0.573652 0.175416,-0.183857 0.343214,-0.360353 0.503394,-0.529489 0.16018,-0.169136 0.312742,-0.330912 0.457686,-0.485327 0.144944,-0.154415 0.282271,-0.30147 0.41198,-0.441164 0.129708,-0.139694 0.251799,-0.272028 0.366272,-0.397002 0.114473,-0.124973 0.221329,-0.242586 0.320566,-0.352838 0.09924,-0.110253 0.190857,-0.213144 0.274859,-0.308676 0.159768,-0.179533 0.3165,-0.357317 0.470194,-0.53335 0.153695,-0.176033 0.304352,-0.350316 0.451973,-0.52285 0.147621,-0.172533 0.292205,-0.343316 0.433752,-0.512349 0.141548,-0.169033 0.280058,-0.336316 0.415532,-0.501849 0.135473,-0.165533 0.26791,-0.329316 0.39731,-0.491349 0.1294,-0.162033 0.255763,-0.322316 0.379089,-0.480849 0.123326,-0.158533 0.243616,-0.315315 0.360868,-0.470348 0.117253,-0.155033 0.231468,-0.308316 0.342647,-0.459848 0.111179,-0.151533 0.219321,-0.301316 0.324426,-0.449349 0.105106,-0.148032 0.207174,-0.294315 0.306206,-0.438847 0.09903,-0.144533 0.195026,-0.287315 0.287984,-0.428348 0.09296,-0.141032 0.182879,-0.280315 0.269763,-0.417847 0.08688,-0.137533 0.170732,-0.273315 0.251542,-0.407347 0.08081,-0.134033 0.158585,-0.266315 0.233322,-0.396847 0.07474,-0.130532 0.146437,-0.259314 0.2151,-0.386347 0.06866,-0.127032 0.134289,-0.252314 0.196879,-0.375846 0.06424,-0.125179 0.126466,-0.250204 0.186688,-0.375074 0.06022,-0.124871 0.118436,-0.249587 0.174643,-0.374148 0.05621,-0.124562 0.110407,-0.248969 0.1626,-0.373222 0.05219,-0.124252 0.102377,-0.248351 0.150554,-0.372295 0.04818,-0.123943 0.09435,-0.247733 0.138511,-0.371368 0.04416,-0.123635 0.08632,-0.247116 0.126466,-0.370442 0.04015,-0.123326 0.07829,-0.246498 0.114421,-0.369515 0.03613,-0.123018 0.07026,-0.245881 0.102378,-0.368589 0.03212,-0.122709 0.06223,-0.245263 0.09033,-0.367663 0.0281,-0.122399 0.0542,-0.244645 0.07829,-0.366736 0.02409,-0.122091 0.04617,-0.244027 0.06624,-0.365809 0.02007,-0.121782 0.03814,-0.24341 0.0542,-0.364883 0.01606,-0.121473 0.03011,-0.242792 0.04216,-0.363957 0.01205,-0.121164 0.02208,-0.242174 0.03011,-0.36303 0.008,-0.120855 0.01405,-0.241556 0.01807,-0.362103 0.004,-0.120547 0.006,-0.240939 0.006,-0.361177 0,-0.196004 -0.0043,-0.389744 -0.01297,-0.581219 -0.0086,-0.191474 -0.02162,-0.380684 -0.03891,-0.56763 -0.01729,-0.186945 -0.03891,-0.371625 -0.06486,-0.554041 -0.02594,-0.182416 -0.05621,-0.362567 -0.0908,-0.540453 -0.03459,-0.177886 -0.0735,-0.353508 -0.116738,-0.526865 -0.04324,-0.173356 -0.0908,-0.344448 -0.142679,-0.513276 -0.05188,-0.168827 -0.108091,-0.335389 -0.168622,-0.499687 -0.06053,-0.164298 -0.125385,-0.326331 -0.194563,-0.486099 -0.06918,-0.159768 -0.142679,-0.317271 -0.220505,-0.47251 -0.07782,-0.155239 -0.159974,-0.308213 -0.246446,-0.458922 -0.08647,-0.150709 -0.177269,-0.299153 -0.272388,-0.445333 -0.09512,-0.14618 -0.194563,-0.290095 -0.29833,-0.431745 -0.103767,-0.14165 -0.211858,-0.281035 -0.324272,-0.418156 -0.112414,-0.13712 -0.229152,-0.271976 -0.350214,-0.404567 C 42.784385,21.744033 42.659,21.613707 42.529291,21.485646 42.399582,21.357584 42.26555,21.231787 42.127194,21.108255 41.990485,20.984723 41.851151,20.865051 41.709192,20.74924 41.567233,20.633428 41.422649,20.521477 41.27544,20.413387 c -0.147209,-0.108091 -0.297043,-0.212321 -0.449502,-0.312691 -0.15246,-0.10037 -0.307544,-0.196879 -0.465253,-0.289528 -0.15771,-0.09265 -0.318044,-0.181438 -0.481003,-0.266366 -0.16296,-0.08493 -0.328544,-0.165997 -0.496754,-0.243204 -0.168209,-0.07721 -0.339044,-0.150555 -0.512504,-0.220042 -0.173459,-0.06949 -0.349544,-0.135113 -0.528254,-0.196879 -0.17871,-0.06177 -0.360045,-0.119672 -0.544005,-0.173717 -0.183959,-0.05405 -0.370544,-0.104231 -0.559754,-0.150555 -0.18921,-0.04632 -0.381046,-0.08879 -0.575506,-0.127393 -0.19446,-0.0386 -0.391545,-0.07335 -0.591255,-0.10423 -0.19971,-0.03088 -0.402046,-0.05791 -0.607006,-0.08107 -0.204961,-0.02316 -0.412546,-0.04246 -0.622756,-0.0579 -0.210211,-0.01544 -0.423046,-0.02702 -0.638507,-0.03474 -0.215461,-0.0077 -0.433546,-0.01158 -0.654257,-0.01158 -0.156474,0 -0.313514,0.0017 -0.471121,0.0051 -0.157606,0.0034 -0.315779,0.0085 -0.474517,0.01529 -0.158739,0.0068 -0.318044,0.01529 -0.477915,0.02548 -0.159871,0.01019 -0.320309,0.02208 -0.481312,0.03567 -0.161004,0.01359 -0.322573,0.02888 -0.484709,0.04586 -0.162136,0.01699 -0.324838,0.03567 -0.488106,0.05605 -0.163269,0.02038 -0.327103,0.04246 -0.491504,0.06624 -0.1644,0.02378 -0.329367,0.04926 -0.4949,0.07644 -0.165533,0.02718 -0.331632,0.05605 -0.498298,0.08663 -0.166665,0.03057 -0.333897,0.06285 -0.501695,0.09682 -0.167797,0.03397 -0.336161,0.06964 -0.505092,0.10701 -0.16893,0.03737 -0.338426,0.07644 -0.508489,0.117201 -0.170062,0.04077 -0.340691,0.08323 -0.511886,0.127392 -0.171195,0.04416 -0.342956,0.09002 -0.515283,0.137584 -0.172327,0.04756 -0.345221,0.09682 -0.51868,0.147775 -0.17346,0.05096 -0.347486,0.103613 -0.522078,0.157967 -0.172945,0.05435 -0.346662,0.110458 -0.521151,0.168312 -0.174489,0.05785 -0.34975,0.117459 -0.525783,0.178813 -0.176034,0.06136 -0.352839,0.124459 -0.530416,0.189313 -0.177578,0.06485 -0.355927,0.131459 -0.535049,0.199813 -0.179121,0.06836 -0.359015,0.138459 -0.539681,0.210314 -0.180665,0.07185 -0.362103,0.145459 -0.544313,0.220813 -0.18221,0.07535 -0.365192,0.15246 -0.548946,0.231314 -0.183754,0.07885 -0.36828,0.15946 -0.553578,0.241815 -0.185298,0.08235 -0.371368,0.166459 -0.55821,0.252314 -0.186843,0.08586 -0.374457,0.17346 -0.562844,0.262814 -0.188386,0.08935 -0.377545,0.18046 -0.567475,0.273315 -0.189931,0.09286 -0.380633,0.18746 -0.572108,0.283815 -0.191475,0.09635 -0.383722,0.194461 -0.576741,0.294316 -0.193019,0.09986 -0.38681,0.20146 -0.581373,0.304815 -0.194563,0.103355 -0.389898,0.208461 -0.586005,0.315316 -0.196107,0.106855 -0.392987,0.215461 -0.590638,0.325816 V 22.897 22.392989 21.888978 21.384967 20.880956 20.376945 19.872934 19.368923 18.864912 18.360901 17.85689 17.352879 16.848868 16.344857 15.840846 15.336835 c 0.200946,-0.08071 0.401068,-0.16018 0.600366,-0.238417 0.199298,-0.07824 0.397773,-0.155239 0.595425,-0.231005 0.197651,-0.07577 0.394479,-0.150297 0.590483,-0.223593 0.196004,-0.0733 0.391185,-0.145356 0.585542,-0.216181 0.194357,-0.07082 0.387891,-0.140415 0.580601,-0.208769 0.19271,-0.06836 0.384597,-0.135474 0.57566,-0.201358 0.191063,-0.06588 0.381302,-0.130532 0.570718,-0.193945 0.189416,-0.06341 0.378008,-0.125591 0.565777,-0.186533 0.187769,-0.06094 0.374714,-0.12065 0.560836,-0.179122 0.186121,-0.05847 0.37142,-0.115708 0.555894,-0.17171 0.184475,-0.056 0.368126,-0.110767 0.550953,-0.164297 0.182828,-0.05353 0.364832,-0.105826 0.546012,-0.156886 0.181181,-0.05106 0.361538,-0.100885 0.541071,-0.149474 0.179533,-0.04859 0.358243,-0.09594 0.536129,-0.142062 0.177886,-0.04612 0.354949,-0.091 0.531188,-0.13465 0.176239,-0.04365 0.351655,-0.08606 0.526247,-0.127238 0.174592,-0.04118 0.348258,-0.08107 0.520997,-0.119672 0.172739,-0.0386 0.344551,-0.07592 0.515437,-0.111951 0.170886,-0.03603 0.340846,-0.07077 0.509879,-0.10423 0.169033,-0.03346 0.33714,-0.06563 0.50432,-0.09651 0.16718,-0.03088 0.333434,-0.06048 0.498761,-0.08879 0.165327,-0.02831 0.329728,-0.05533 0.493202,-0.08107 0.163474,-0.02574 0.326022,-0.05019 0.487643,-0.07335 0.161621,-0.02316 0.322316,-0.04504 0.482084,-0.06563 0.159768,-0.02059 0.31861,-0.03989 0.476525,-0.0579 0.157915,-0.01802 0.314904,-0.03474 0.470966,-0.05018 0.156062,-0.01544 0.311198,-0.0296 0.465407,-0.04246 0.154209,-0.01287 0.307492,-0.02445 0.459848,-0.03474 0.152357,-0.01029 0.303786,-0.0193 0.45429,-0.02702 0.150503,-0.0077 0.30008,-0.01415 0.44873,-0.0193 0.14865,-0.0051 0.296374,-0.009 0.443172,-0.01158 0.146797,-0.0026 0.292668,-0.0039 0.437612,-0.0039 0.382126,0 0.759414,0.006 1.131863,0.01791 0.372449,0.01194 0.74006,0.02985 1.102833,0.05374 0.362773,0.02388 0.720707,0.05374 1.073803,0.08956 0.353096,0.03582 0.701353,0.07762 1.044773,0.125386 0.343419,0.04777 0.682,0.101502 1.015742,0.161209 0.333743,0.05971 0.662647,0.125385 0.986713,0.197034 0.324066,0.07165 0.643294,0.149268 0.957683,0.232858 0.314389,0.08359 0.62394,0.173151 0.928652,0.268682 0.304713,0.09553 0.604587,0.197034 0.899623,0.304507 0.295036,0.107473 0.585233,0.220916 0.870593,0.340331 0.285359,0.119414 0.56588,0.244799 0.841562,0.376155 0.275683,0.131356 0.546527,0.268682 0.812533,0.41198 0.266005,0.143297 0.527173,0.292565 0.783502,0.447803 0.256329,0.155239 0.50782,0.316449 0.754472,0.483629 0.246653,0.16718 0.488467,0.340331 0.725443,0.519452 0.236975,0.179122 0.469113,0.364214 0.696412,0.555277 0.227299,0.191063 0.447495,0.386141 0.660588,0.585233 0.213093,0.199093 0.419082,0.4022 0.617969,0.609322 0.198887,0.207122 0.39067,0.418259 0.575351,0.633411 0.18468,0.215152 0.362258,0.434318 0.532732,0.6575 0.170474,0.223181 0.333845,0.450377 0.490113,0.681588 0.156269,0.231211 0.305434,0.466437 0.447495,0.705677 0.142062,0.239241 0.277021,0.482496 0.404877,0.729766 0.127856,0.24727 0.248608,0.498555 0.362258,0.753855 0.113649,0.255299 0.220196,0.514614 0.319639,0.777943 0.09944,0.263329 0.191784,0.530673 0.277021,0.802032 0.08524,0.271359 0.163371,0.546733 0.234402,0.826121 0.07103,0.279388 0.134959,0.562792 0.191783,0.85021 0.05682,0.287418 0.106547,0.57885 0.149165,0.874298 0.04262,0.295448 0.07813,0.59491 0.106547,0.898387 0.02841,0.303477 0.04972,0.610969 0.06393,0.922476 0.01421,0.311507 0.02131,0.627029 0.02131,0.946565 0,0.151533 -0.0018,0.302602 -0.0054,0.453209 -0.0036,0.150606 -0.009,0.300749 -0.01621,0.450429 -0.0072,0.149679 -0.01621,0.298896 -0.02702,0.447649 -0.01081,0.148753 -0.02342,0.297043 -0.03783,0.44487 -0.01441,0.147827 -0.03063,0.29519 -0.04864,0.442091 -0.01801,0.1469 -0.03783,0.293337 -0.05945,0.439311 -0.02162,0.145974 -0.04504,0.291484 -0.07026,0.436531 -0.02522,0.145048 -0.05224,0.289632 -0.08107,0.433753 -0.02882,0.14412 -0.05945,0.287778 -0.09188,0.430972 -0.03243,0.143194 -0.06666,0.285925 -0.102686,0.428193 -0.03603,0.142268 -0.07386,0.284073 -0.113495,0.425414 -0.03963,0.141341 -0.08107,0.282219 -0.124304,0.422634 -0.04324,0.140415 -0.08827,0.280367 -0.135113,0.419855 -0.04684,0.139488 -0.09548,0.278513 -0.145922,0.417075 -0.05044,0.138562 -0.102686,0.27666 -0.156732,0.414296 -0.05405,0.137635 -0.109892,0.274807 -0.16754,0.411516 -0.056,0.135062 -0.114936,0.271668 -0.176805,0.409818 -0.06187,0.13815 -0.126672,0.277844 -0.194409,0.419083 -0.06774,0.141238 -0.138408,0.28402 -0.212012,0.428347 -0.07361,0.144327 -0.150143,0.290198 -0.229616,0.437613 -0.07947,0.147415 -0.161878,0.296374 -0.247218,0.446877 -0.08534,0.150503 -0.173614,0.302551 -0.264822,0.456142 -0.09121,0.153592 -0.18535,0.308728 -0.282425,0.465408 -0.09708,0.15668 -0.197086,0.314904 -0.300029,0.474672 -0.102943,0.159768 -0.208821,0.32108 -0.317632,0.483937 -0.108811,0.162856 -0.220556,0.327257 -0.335235,0.493202 -0.114679,0.165944 -0.232292,0.333433 -0.352839,0.502466 -0.120546,0.169034 -0.244027,0.339611 -0.370442,0.511732 -0.126414,0.172122 -0.255762,0.345787 -0.388045,0.520997 -0.132282,0.175209 -0.267498,0.351963 -0.405648,0.530261 -0.13815,0.178298 -0.279234,0.35814 -0.423252,0.539527 -0.144018,0.181386 -0.290969,0.364316 -0.440855,0.548791 -0.04118,0.04777 -0.08797,0.101193 -0.140363,0.160283 -0.0524,0.05909 -0.110407,0.123841 -0.174026,0.194254 -0.06362,0.07041 -0.132849,0.146489 -0.207689,0.228226 -0.07484,0.08174 -0.15529,0.169136 -0.241351,0.262197 -0.08606,0.09306 -0.177731,0.191783 -0.275013,0.296168 -0.09728,0.104384 -0.200173,0.214431 -0.308676,0.330139 -0.108502,0.115709 -0.222615,0.237079 -0.342338,0.364111 -0.119723,0.127032 -0.245057,0.259727 -0.376001,0.398083 -0.130944,0.138355 -0.267499,0.282373 -0.409663,0.432053 -0.142165,0.14968 -0.289941,0.305021 -0.443326,0.466025 -0.153386,0.161003 -0.312382,0.327669 -0.476989,0.499996 -0.164606,0.172327 -0.334823,0.350317 -0.510651,0.533968 -0.175827,0.183651 -0.357265,0.372964 -0.544313,0.567938 -0.187048,0.194975 -0.379707,0.395612 -0.577976,0.601911 -0.198269,0.206298 -0.402148,0.418259 -0.611638,0.635881 -0.20949,0.217623 -0.42459,0.440907 -0.645301,0.669853 -0.220711,0.227299 -0.447083,0.460312 -0.679118,0.699037 -0.232034,0.238726 -0.469731,0.483165 -0.713089,0.733318 -0.243358,0.250152 -0.492378,0.506018 -0.74706,0.767597 -0.254682,0.26158 -0.515026,0.528872 -0.781032,0.801878 -0.266006,0.273006 -0.537674,0.551726 -0.815003,0.836158 -0.27733,0.284433 -0.560321,0.574579 -0.848975,0.870438 -0.288653,0.29586 -0.582968,0.597432 -0.882945,0.904719 -0.299977,0.307286 -0.605616,0.620285 -0.916917,0.938998 -0.311301,0.318713 -0.628264,0.643139 -0.950889,0.973279 -0.322624,0.330139 -0.650911,0.665992 -0.984859,1.007558 -0.333949,0.341567 -0.673559,0.688846 -1.018831,1.041839 -0.345272,0.352993 -0.696207,0.7117 -1.052803,1.076119 -0.356596,0.36442 -0.718853,0.734553 -1.086773,1.110399 -0.36792,0.375847 -0.741502,0.757407 -1.120745,1.14468 -0.379244,0.387273 -0.764149,0.780259 -1.154716,1.178959 -0.390568,0.3987 -0.786797,0.803113 -1.188688,1.21324 z"
       id="text1"
       aria-label="2"
       sodipodi:nodetypes="cccccccccccccccccccccccccccccccccccccccccccccccccccccccccccccccccssssssssssssssscssssssssssssssscssssssssssssssscssssssssssssssssssssssssssssssscssssssssssssssssssssssssssssssscssssssssssssssscccccccccccccccccssssssssssssssssssssssssssssssssssssssssssssssssssssssssssssssssssssssssssssssscssssssssssssssscssssssssssssssscsssssssssssssssc" />
  </g>
</svg>
