<?xml version="1.0" encoding="UTF-8" standalone="no"?>
<!-- Created with Inkscape (http://www.inkscape.org/) -->

<svg
   width="48.420246"
   height="70.79438"
   viewBox="0 0 48.420247 70.794383"
   version="1.1"
   id="svg1"
   inkscape:version="1.4 (e7c3feb100, 2024-10-09)"
   sodipodi:docname="3.svg"
   inkscape:export-filename="4.png"
   inkscape:export-xdpi="96"
   inkscape:export-ydpi="96"
   xmlns:inkscape="http://www.inkscape.org/namespaces/inkscape"
   xmlns:sodipodi="http://sodipodi.sourceforge.net/DTD/sodipodi-0.dtd"
   xmlns="http://www.w3.org/2000/svg"
   xmlns:svg="http://www.w3.org/2000/svg">
  <sodipodi:namedview
     id="namedview1"
     pagecolor="#ffffff"
     bordercolor="#cccccc"
     borderopacity="1"
     inkscape:showpageshadow="0"
     inkscape:pageopacity="1"
     inkscape:pagecheckerboard="true"
     inkscape:deskcolor="#d1d1d1"
     inkscape:document-units="mm"
     inkscape:zoom="2.0812827"
     inkscape:cx="386.06"
     inkscape:cy="54.773914"
     inkscape:window-width="2752"
     inkscape:window-height="1086"
     inkscape:window-x="0"
     inkscape:window-y="0"
     inkscape:window-maximized="1"
     inkscape:current-layer="layer1" />
  <defs
     id="defs1" />
  <g
     inkscape:label="Layer 1"
     inkscape:groupmode="layer"
     id="layer1"
     transform="translate(-11.770112,-6.642343)">
    <path
       style="font-size:80.958px;font-family:'DejaVu Sans';-inkscape-font-specification:'DejaVu Sans';fill:none;stroke:#000000;stroke-width:9.56199;stroke-linecap:round"
       d="m 43.234041,39.687483 c 0.238829,0.05106 0.474363,0.105569 0.706604,0.163526 0.23224,0.05796 0.461186,0.119363 0.686838,0.184217 0.225652,0.06485 0.44801,0.133157 0.667074,0.204909 0.219063,0.07175 0.434833,0.146952 0.647308,0.225601 0.212475,0.07865 0.421656,0.160746 0.627543,0.246292 0.205887,0.08555 0.408479,0.17454 0.607778,0.266983 0.199298,0.09244 0.395303,0.188336 0.588013,0.287676 0.19271,0.09934 0.382126,0.202129 0.568247,0.308367 0.186122,0.106238 0.36895,0.215924 0.548483,0.329059 0.179533,0.113135 0.355773,0.229718 0.528717,0.34975 0.172945,0.120032 0.342596,0.243513 0.508953,0.370442 0.166356,0.126929 0.329419,0.257307 0.489187,0.391134 0.159768,0.133826 0.316242,0.271101 0.469422,0.411825 0.15318,0.140723 0.303065,0.284896 0.449657,0.432516 0.146591,0.147621 0.289888,0.298691 0.429891,0.453209 0.140003,0.154518 0.276712,0.312485 0.410127,0.4739 0.135062,0.161415 0.265903,0.325198 0.392523,0.491349 0.126621,0.166151 0.249021,0.334669 0.3672,0.505555 0.118179,0.170886 0.232137,0.34414 0.341875,0.519761 0.109737,0.175622 0.215254,0.353611 0.316551,0.533968 0.101296,0.180357 0.198372,0.363081 0.291227,0.548174 0.09286,0.185092 0.181489,0.372552 0.265903,0.56238 0.08441,0.189827 0.164606,0.382023 0.240579,0.576586 0.07597,0.194563 0.147723,0.391494 0.215254,0.590792 0.06753,0.199298 0.130841,0.400965 0.189931,0.604998 0.05909,0.204034 0.113958,0.410436 0.164606,0.619205 0.05065,0.208769 0.09708,0.419906 0.139283,0.633411 0.04221,0.213505 0.08019,0.429377 0.113958,0.647617 0.03377,0.21824 0.06331,0.438848 0.08864,0.661823 0.02532,0.222976 0.04643,0.448319 0.06331,0.67603 0.01688,0.22771 0.02954,0.457789 0.03799,0.690235 0.0084,0.232446 0.01266,0.46726 0.01266,0.704442 0,0.364008 -0.0078,0.722869 -0.02347,1.076582 -0.01565,0.353714 -0.03912,0.70228 -0.07041,1.045699 -0.0313,0.34342 -0.07041,0.681692 -0.117356,1.014817 -0.04694,0.333125 -0.101708,0.661102 -0.164298,0.983933 -0.06259,0.32283 -0.133003,0.640514 -0.21124,0.95305 -0.07824,0.312536 -0.164297,0.619925 -0.258182,0.922167 -0.09388,0.302242 -0.195592,0.599337 -0.305124,0.891284 -0.109532,0.291948 -0.226887,0.578748 -0.352067,0.860401 -0.125179,0.281653 -0.258182,0.558159 -0.399008,0.829518 -0.140827,0.271359 -0.289477,0.537571 -0.445951,0.798635 -0.156474,0.261065 -0.320772,0.516982 -0.492893,0.767752 -0.172122,0.25077 -0.352067,0.496393 -0.539836,0.736869 -0.187768,0.240476 -0.383361,0.475805 -0.586777,0.705986 -0.203416,0.230182 -0.414656,0.455216 -0.63372,0.675103 -0.219064,0.219887 -0.445951,0.434627 -0.680662,0.64422 -0.234711,0.209593 -0.477246,0.414039 -0.727604,0.613337 -0.250358,0.199298 -0.507305,0.392369 -0.77084,0.579211 -0.263536,0.186842 -0.533659,0.367457 -0.810371,0.541843 -0.276712,0.174386 -0.560012,0.342544 -0.849901,0.504474 -0.289889,0.16193 -0.586366,0.317632 -0.889431,0.467106 -0.303065,0.149474 -0.612719,0.29272 -0.928961,0.429737 -0.316243,0.137018 -0.639073,0.267808 -0.968492,0.392369 -0.329419,0.124562 -0.665426,0.242895 -1.008022,0.355001 -0.342596,0.112105 -0.69178,0.217982 -1.047552,0.317632 -0.355773,0.09965 -0.718133,0.19307 -1.087083,0.280263 -0.368949,0.08719 -0.744486,0.168158 -1.126612,0.242895 -0.382126,0.07474 -0.770841,0.143246 -1.166144,0.205527 -0.395302,0.06228 -0.797193,0.118334 -1.205673,0.168158 -0.408479,0.04982 -0.823547,0.09342 -1.245203,0.13079 -0.421657,0.03737 -0.849901,0.06851 -1.284734,0.09342 -0.434833,0.02491 -0.876255,0.0436 -1.324265,0.05605 -0.448009,0.01246 -0.902607,0.01868 -1.363794,0.01868 -0.154827,0 -0.309963,-9.78e-4 -0.465407,-0.0029 -0.155445,-0.002 -0.311198,-0.0049 -0.46726,-0.0088 -0.156063,-0.0039 -0.312434,-0.0088 -0.469114,-0.01467 -0.15668,-0.0059 -0.313668,-0.01271 -0.470966,-0.02054 -0.157297,-0.0078 -0.314904,-0.01663 -0.472819,-0.0264 -0.157915,-0.0098 -0.316139,-0.02054 -0.474672,-0.03227 -0.158533,-0.01174 -0.317375,-0.02445 -0.476525,-0.03814 -0.159151,-0.01369 -0.31861,-0.02836 -0.478378,-0.04401 -0.159768,-0.01565 -0.319845,-0.03227 -0.480231,-0.04988 -0.160386,-0.0176 -0.321081,-0.03619 -0.482084,-0.05574 -0.161004,-0.01956 -0.322316,-0.0401 -0.483937,-0.06161 -0.161621,-0.02151 -0.323551,-0.04401 -0.48579,-0.06748 -0.162239,-0.02347 -0.324787,-0.04792 -0.487643,-0.07335 -0.162857,-0.02543 -0.326022,-0.05183 -0.489496,-0.07921 -0.163474,-0.02738 -0.327257,-0.05574 -0.491349,-0.08508 -0.164092,-0.02934 -0.328493,-0.05966 -0.493202,-0.09095 -0.163062,-0.02965 -0.326485,-0.06027 -0.490268,-0.09188 -0.163783,-0.0316 -0.327926,-0.06419 -0.49243,-0.09775 -0.164503,-0.03356 -0.329367,-0.0681 -0.494592,-0.103612 -0.165224,-0.03552 -0.330808,-0.07201 -0.496753,-0.109481 -0.165945,-0.03747 -0.33225,-0.07592 -0.498915,-0.115348 -0.166666,-0.03943 -0.333691,-0.07983 -0.501077,-0.121216 -0.167386,-0.04138 -0.335133,-0.08374 -0.503239,-0.127083 -0.168107,-0.04334 -0.336574,-0.08766 -0.505401,-0.132952 -0.168827,-0.04529 -0.338015,-0.09157 -0.507563,-0.138819 -0.169547,-0.04725 -0.339455,-0.09548 -0.509724,-0.144687 -0.170268,-0.04921 -0.340897,-0.09939 -0.511886,-0.150555 -0.170989,-0.05116 -0.342338,-0.103303 -0.514048,-0.156422 -0.17171,-0.05312 -0.34378,-0.107216 -0.51621,-0.16229 -0.17243,-0.05507 -0.345221,-0.111128 -0.518371,-0.168159 -0.173151,-0.05703 -0.346662,-0.115039 -0.520534,-0.174025 -0.173871,-0.05899 -0.348103,-0.118952 -0.522695,-0.179894 V 69.248716 68.766941 68.285165 67.80339 67.321615 66.83984 66.358065 65.876289 65.394514 64.912739 64.430964 63.949189 63.467414 62.985638 62.503863 62.022088 c 0.138356,0.08071 0.277535,0.16018 0.417539,0.238417 0.140003,0.07824 0.280829,0.155239 0.422479,0.231005 0.14165,0.07577 0.284124,0.150297 0.427421,0.223593 0.143298,0.0733 0.287418,0.145356 0.432363,0.216181 0.144944,0.07082 0.290712,0.140415 0.437303,0.208769 0.146592,0.06835 0.294007,0.135474 0.442245,0.201358 0.148239,0.06588 0.297301,0.130532 0.447187,0.193945 0.149885,0.06341 0.300594,0.125591 0.452127,0.186534 0.151533,0.06094 0.303889,0.120649 0.457069,0.179121 0.15318,0.05847 0.307183,0.115708 0.46201,0.17171 0.154827,0.056 0.310477,0.110767 0.466951,0.164297 0.156474,0.05353 0.313772,0.105826 0.471893,0.156886 0.158121,0.05106 0.317065,0.100885 0.476834,0.149474 0.159768,0.04859 0.32036,0.09594 0.481775,0.142062 0.161415,0.04612 0.323654,0.091 0.486716,0.13465 0.163063,0.04365 0.326949,0.08606 0.491658,0.127238 0.164709,0.04118 0.329882,0.08107 0.495518,0.119672 0.165636,0.0386 0.331735,0.07592 0.498298,0.111951 0.166562,0.03603 0.333588,0.07077 0.501077,0.10423 0.167489,0.03346 0.335441,0.06563 0.503857,0.09651 0.168415,0.03088 0.337294,0.06048 0.506636,0.08879 0.169342,0.02831 0.339147,0.05533 0.509415,0.08107 0.170269,0.02574 0.341,0.05018 0.512195,0.07335 0.171195,0.02316 0.342853,0.04504 0.514975,0.06563 0.172121,0.02059 0.344706,0.03989 0.517754,0.05791 0.173048,0.01802 0.346559,0.03474 0.520533,0.05018 0.173974,0.01544 0.348412,0.0296 0.523313,0.04247 0.174901,0.01287 0.350265,0.02445 0.526092,0.03474 0.175828,0.01029 0.352118,0.0193 0.528872,0.02702 0.176754,0.0077 0.353971,0.01415 0.531651,0.0193 0.17768,0.0051 0.355824,0.009 0.534431,0.01158 0.178607,0.0026 0.357677,0.0039 0.53721,0.0039 0.312948,0 0.621212,-0.0039 0.924792,-0.01158 0.30358,-0.0077 0.602477,-0.0193 0.896689,-0.03474 0.294212,-0.01544 0.583741,-0.03474 0.868585,-0.0579 0.284844,-0.02316 0.565005,-0.05018 0.840482,-0.08107 0.275476,-0.03088 0.546269,-0.06563 0.812378,-0.10423 0.266108,-0.0386 0.527533,-0.08107 0.784274,-0.127393 0.256741,-0.04632 0.508798,-0.09651 0.756171,-0.150555 0.247373,-0.05405 0.490062,-0.11195 0.728067,-0.173717 0.238005,-0.06177 0.471327,-0.127392 0.699964,-0.196879 0.228637,-0.06949 0.452591,-0.142834 0.67186,-0.220041 0.21927,-0.07721 0.433855,-0.158276 0.643757,-0.243204 0.209902,-0.08493 0.415119,-0.173717 0.615653,-0.266366 0.200534,-0.09265 0.396384,-0.189159 0.58755,-0.289528 0.191166,-0.10037 0.377648,-0.2046 0.559446,-0.312691 0.181798,-0.108091 0.358912,-0.220042 0.531342,-0.335853 0.17243,-0.115811 0.340177,-0.235483 0.503239,-0.359015 0.164709,-0.123532 0.324272,-0.250564 0.478687,-0.381097 0.154415,-0.130532 0.303683,-0.264564 0.447804,-0.402097 0.144121,-0.137532 0.283094,-0.278565 0.416921,-0.423097 0.133826,-0.144533 0.262506,-0.292565 0.386038,-0.444098 0.123532,-0.151533 0.241917,-0.306566 0.355155,-0.465099 0.113237,-0.158532 0.221328,-0.320565 0.324271,-0.486098 0.102944,-0.165533 0.20074,-0.334567 0.293389,-0.5071 0.09265,-0.172533 0.180151,-0.348566 0.262506,-0.528099 0.08235,-0.179534 0.159562,-0.362567 0.231623,-0.549101 0.07206,-0.186533 0.138973,-0.376567 0.200739,-0.5701 0.06177,-0.193534 0.118385,-0.390568 0.169857,-0.591102 0.05147,-0.200533 0.0978,-0.404567 0.138974,-0.612101 0.04118,-0.207534 0.07721,-0.418568 0.10809,-0.633102 0.03088,-0.214534 0.05662,-0.432568 0.07721,-0.654103 0.02059,-0.221534 0.03603,-0.446568 0.04632,-0.675103 0.0103,-0.228534 0.01544,-0.460568 0.01544,-0.696103 0,-0.217417 -0.0048,-0.431848 -0.01436,-0.643293 -0.0096,-0.211446 -0.02393,-0.419907 -0.04308,-0.625382 -0.01915,-0.205475 -0.04308,-0.407964 -0.0718,-0.607469 -0.02872,-0.199504 -0.06223,-0.396023 -0.100525,-0.589557 -0.0383,-0.193533 -0.08138,-0.384082 -0.129245,-0.571645 -0.04787,-0.187562 -0.100525,-0.37214 -0.157967,-0.553732 -0.05744,-0.181592 -0.119672,-0.360199 -0.186688,-0.535821 -0.06702,-0.175621 -0.138819,-0.348257 -0.215409,-0.517908 -0.07659,-0.169651 -0.157967,-0.336316 -0.24413,-0.499996 -0.08616,-0.16368 -0.177115,-0.324375 -0.272852,-0.482084 -0.09574,-0.15771 -0.196262,-0.312433 -0.301573,-0.464172 -0.105311,-0.151739 -0.215409,-0.300492 -0.330294,-0.44626 -0.114885,-0.145768 -0.234556,-0.28855 -0.359015,-0.428347 C 44.912379,47.247752 44.783134,47.11094 44.649102,46.977113 44.515069,46.843287 44.37625,46.712446 44.232644,46.58459 44.089038,46.456734 43.940645,46.331864 43.787465,46.209979 43.635932,46.086447 43.480642,45.966775 43.321595,45.850964 43.162547,45.735152 42.999742,45.623201 42.83318,45.515111 42.666617,45.40702 42.496297,45.30279 42.32222,45.20242 c -0.174077,-0.10037 -0.351912,-0.196879 -0.533504,-0.289528 -0.181593,-0.09265 -0.366942,-0.181438 -0.556049,-0.266366 -0.189107,-0.08493 -0.381972,-0.165997 -0.578594,-0.243204 -0.196622,-0.07721 -0.397001,-0.150555 -0.601138,-0.220042 -0.204137,-0.06949 -0.412031,-0.135113 -0.623683,-0.196879 -0.211651,-0.06177 -0.42706,-0.119672 -0.646227,-0.173717 -0.219166,-0.05405 -0.44209,-0.104231 -0.668772,-0.150555 -0.226681,-0.04633 -0.45712,-0.08879 -0.691316,-0.127393 -0.234197,-0.0386 -0.47215,-0.07335 -0.713861,-0.10423 -0.241712,-0.03088 -0.48718,-0.0579 -0.736406,-0.08107 -0.249226,-0.02316 -0.50221,-0.04246 -0.75895,-0.0579 -0.256741,-0.01544 -0.51724,-0.02702 -0.781495,-0.03474 -0.264256,-0.0077 -0.532269,-0.01158 -0.80404,-0.01158 H 33.198293 32.768401 32.33851 31.908618 31.478726 31.048834 30.618943 30.189051 29.759159 29.329267 28.899376 28.469484 28.039592 27.6097 27.179809 26.749917 V 42.835081 42.424955 42.014828 41.604702 41.194575 40.784449 40.374322 39.964196 39.554069 39.143942 38.733816 38.323689 37.913563 37.503436 37.09331 36.683183 h 0.449657 0.449657 0.449657 0.449656 0.449657 0.449657 0.449657 0.449657 0.449657 0.449657 0.449657 0.449656 0.449657 0.449657 0.449657 0.449657 c 0.245417,0 0.487231,-0.003 0.725442,-0.0091 0.238211,-0.0061 0.472819,-0.01519 0.703825,-0.02733 0.231005,-0.01215 0.458407,-0.02733 0.682206,-0.04555 0.223799,-0.01822 0.443995,-0.03948 0.660588,-0.06377 0.216593,-0.0243 0.429582,-0.05163 0.638969,-0.08199 0.209387,-0.03037 0.415171,-0.06377 0.617352,-0.100216 0.202181,-0.03644 0.400759,-0.07592 0.595734,-0.118436 0.194975,-0.04252 0.386346,-0.08807 0.574115,-0.136658 0.187769,-0.04859 0.371935,-0.100215 0.552498,-0.154878 0.180562,-0.05466 0.357522,-0.112363 0.530879,-0.173099 0.173357,-0.06074 0.34311,-0.12451 0.509261,-0.191321 0.166151,-0.06681 0.328698,-0.136657 0.487643,-0.209541 0.158945,-0.07288 0.314286,-0.148805 0.466025,-0.227762 0.151739,-0.07896 0.299874,-0.160952 0.444407,-0.245983 0.144532,-0.08503 0.285462,-0.1731 0.422788,-0.264205 0.137327,-0.0911 0.27105,-0.185246 0.401171,-0.282425 0.13012,-0.09883 0.256175,-0.200328 0.378163,-0.304507 0.121988,-0.104178 0.239909,-0.211034 0.353765,-0.320566 0.113855,-0.109531 0.223644,-0.22174 0.329367,-0.336625 0.105723,-0.114885 0.207379,-0.232446 0.30497,-0.352684 0.09759,-0.120238 0.191114,-0.243152 0.280572,-0.368743 0.08946,-0.125591 0.174849,-0.253859 0.256175,-0.384803 0.08132,-0.130944 0.158584,-0.264564 0.231777,-0.400862 0.07319,-0.136297 0.142319,-0.27527 0.207379,-0.416921 0.06506,-0.14165 0.126054,-0.285976 0.182982,-0.43298 0.05693,-0.147003 0.109789,-0.296683 0.158584,-0.449039 0.0488,-0.152356 0.09352,-0.307389 0.134187,-0.465098 0.04066,-0.15771 0.07726,-0.318095 0.109789,-0.481158 0.03253,-0.163062 0.06099,-0.328801 0.08539,-0.497217 0.0244,-0.168415 0.04473,-0.339507 0.06099,-0.513276 0.01626,-0.173768 0.02846,-0.350213 0.0366,-0.529335 0.0081,-0.179121 0.0122,-0.360919 0.0122,-0.545394 0,-0.189416 -0.0042,-0.376052 -0.01266,-0.559909 -0.0084,-0.183857 -0.0211,-0.364935 -0.03799,-0.543233 -0.01688,-0.178298 -0.03799,-0.353816 -0.06331,-0.526555 -0.02532,-0.172739 -0.05487,-0.342699 -0.08863,-0.509879 -0.03377,-0.16718 -0.07175,-0.331581 -0.113958,-0.493202 -0.04221,-0.161621 -0.08863,-0.320463 -0.139282,-0.476525 -0.05065,-0.156062 -0.105517,-0.309345 -0.164607,-0.459848 -0.05909,-0.150503 -0.1224,-0.298227 -0.189931,-0.443171 -0.06753,-0.144945 -0.139282,-0.28711 -0.215254,-0.426495 -0.07597,-0.139385 -0.156165,-0.275991 -0.240579,-0.409818 -0.08441,-0.133826 -0.173048,-0.264873 -0.265903,-0.393141 -0.09286,-0.128267 -0.18993,-0.253755 -0.291227,-0.376464 -0.101296,-0.122708 -0.206813,-0.242638 -0.316551,-0.359787 -0.109737,-0.11715 -0.223696,-0.23152 -0.341875,-0.343111 -0.118179,-0.11159 -0.240578,-0.220401 -0.367199,-0.326433 -0.12662,-0.106032 -0.257461,-0.209284 -0.392523,-0.309757 -0.133415,-0.10212 -0.270484,-0.201049 -0.411207,-0.296786 -0.140724,-0.09574 -0.285102,-0.188283 -0.433135,-0.277638 -0.148033,-0.08935 -0.29972,-0.175519 -0.455061,-0.258491 -0.155342,-0.08297 -0.314338,-0.162754 -0.476989,-0.239344 -0.16265,-0.07659 -0.328955,-0.149988 -0.498915,-0.220196 -0.16996,-0.07021 -0.343574,-0.137223 -0.520842,-0.201048 -0.177269,-0.06382 -0.358192,-0.124459 -0.542769,-0.181901 -0.184578,-0.05744 -0.37281,-0.111694 -0.564697,-0.162754 -0.191886,-0.05106 -0.387427,-0.09893 -0.586623,-0.143606 -0.199195,-0.04468 -0.402045,-0.08616 -0.60855,-0.124458 -0.206504,-0.0383 -0.416663,-0.0734 -0.630477,-0.105312 -0.213813,-0.03191 -0.431281,-0.06063 -0.652404,-0.08616 -0.221122,-0.02553 -0.445899,-0.04787 -0.674331,-0.06702 -0.228431,-0.01915 -0.460517,-0.0351 -0.696257,-0.04787 -0.235741,-0.01276 -0.475136,-0.02234 -0.718185,-0.02872 -0.24305,-0.0064 -0.489754,-0.0096 -0.740112,-0.0096 -0.136709,0 -0.274035,9.26e-4 -0.41198,0.0028 -0.137944,0.0019 -0.276506,0.0046 -0.415685,0.0083 -0.13918,0.0037 -0.278977,0.0083 -0.419392,0.0139 -0.140415,0.0056 -0.281447,0.01205 -0.423097,0.01946 -0.14165,0.0074 -0.283918,0.01575 -0.426804,0.02501 -0.142885,0.0093 -0.286388,0.01946 -0.430509,0.03057 -0.144121,0.01112 -0.288859,0.02316 -0.434215,0.03613 -0.145357,0.01297 -0.29133,0.02687 -0.437922,0.04169 -0.146591,0.01482 -0.2938,0.03057 -0.441627,0.04725 -0.147827,0.01668 -0.296271,0.03428 -0.445333,0.05281 -0.149062,0.01853 -0.298742,0.03799 -0.44904,0.05837 -0.150297,0.02038 -0.301212,0.04169 -0.452745,0.06393 -0.151532,0.02224 -0.303683,0.0454 -0.456451,0.06949 -0.152768,0.02409 -0.306154,0.0491 -0.460157,0.07505 -0.154003,0.02594 -0.308624,0.05281 -0.463863,0.0806 -0.155239,0.02779 -0.311095,0.05652 -0.467569,0.08616 -0.156474,0.02965 -0.313926,0.06033 -0.472356,0.09203 -0.15843,0.03171 -0.317838,0.06444 -0.478224,0.09821 -0.160385,0.03377 -0.321749,0.06856 -0.484091,0.104385 -0.162342,0.03582 -0.325661,0.07268 -0.489959,0.110561 -0.164298,0.03788 -0.329574,0.0768 -0.495827,0.116738 -0.166254,0.03994 -0.333485,0.08091 -0.501695,0.122915 -0.168209,0.042 -0.337397,0.08503 -0.507562,0.129091 -0.170166,0.04406 -0.341309,0.08915 -0.513431,0.135268 -0.172121,0.04612 -0.345221,0.09327 -0.519298,0.141444 -0.174077,0.04818 -0.349132,0.09738 -0.525166,0.147621 -0.176033,0.05024 -0.353044,0.101502 -0.531033,0.153797 -0.177989,0.0523 -0.356957,0.10562 -0.536902,0.159974 -0.179945,0.05436 -0.360868,0.109738 -0.542769,0.166151 -0.181901,0.05641 -0.36478,0.113856 -0.548637,0.172327 -0.183857,0.05847 -0.368692,0.117974 -0.554505,0.178504 -0.185812,0.06053 -0.372603,0.122091 -0.560372,0.184681 V 20.624009 20.179294 19.734578 19.289862 18.845147 18.400431 17.955716 17.511 17.066284 16.621569 16.176853 15.732138 15.287422 14.842706 14.397991 13.953275 c 0.189416,-0.05271 0.37806,-0.10459 0.565932,-0.15565 0.187871,-0.05106 0.374971,-0.101297 0.561299,-0.150709 0.186327,-0.04941 0.371883,-0.098 0.556666,-0.145768 0.184784,-0.04777 0.368795,-0.09471 0.552034,-0.140827 0.18324,-0.04612 0.365707,-0.09141 0.547402,-0.135885 0.181695,-0.04447 0.362618,-0.08812 0.542769,-0.130944 0.180151,-0.04282 0.35953,-0.08482 0.538137,-0.126003 0.178607,-0.04118 0.356442,-0.08153 0.533504,-0.121061 0.177063,-0.03953 0.353354,-0.07824 0.528872,-0.11612 0.175519,-0.03788 0.350265,-0.07494 0.524239,-0.111179 0.173975,-0.03624 0.347177,-0.07165 0.519607,-0.106238 0.172431,-0.03459 0.344089,-0.06835 0.514975,-0.101296 0.170886,-0.03294 0.341,-0.06506 0.510342,-0.09636 0.169342,-0.0313 0.337912,-0.06177 0.505709,-0.09141 0.167798,-0.02965 0.334824,-0.05847 0.501077,-0.08647 0.166254,-0.028 0.331736,-0.05518 0.496445,-0.08153 0.166357,-0.02635 0.332096,-0.05188 0.497217,-0.07659 0.165121,-0.02471 0.329625,-0.04859 0.493511,-0.07165 0.163886,-0.02306 0.327154,-0.0453 0.489804,-0.06671 0.162651,-0.02141 0.324684,-0.042 0.486099,-0.06177 0.161416,-0.01976 0.322213,-0.03871 0.482393,-0.05682 0.16018,-0.01812 0.319742,-0.03541 0.478687,-0.05188 0.158945,-0.01647 0.317272,-0.03212 0.474981,-0.04694 0.157709,-0.01482 0.314801,-0.02882 0.471275,-0.042 0.156474,-0.01318 0.31233,-0.02553 0.467569,-0.03706 0.155239,-0.01153 0.30986,-0.02224 0.463863,-0.03212 0.154003,-0.0099 0.307389,-0.01894 0.460157,-0.02718 0.152768,-0.0082 0.304919,-0.01565 0.456451,-0.02224 0.151533,-0.0066 0.302448,-0.01235 0.452745,-0.01729 0.150298,-0.0049 0.299978,-0.0091 0.44904,-0.01235 0.149062,-0.0033 0.297506,-0.0058 0.445333,-0.0074 0.147827,-0.0016 0.295036,-0.0025 0.441627,-0.0025 0.378832,0 0.752722,0.0054 1.121672,0.01621 0.368949,0.01081 0.732957,0.02702 1.092023,0.04864 0.359067,0.02162 0.713192,0.04864 1.062376,0.08107 0.349185,0.03243 0.693427,0.07026 1.032729,0.113495 0.339301,0.04324 0.673662,0.09188 1.00308,0.145923 0.329419,0.05405 0.653897,0.113495 0.973433,0.178349 0.319537,0.06485 0.634132,0.135113 0.943786,0.210777 0.309654,0.07566 0.614366,0.156731 0.914137,0.243204 0.299771,0.08647 0.594601,0.178349 0.88449,0.275631 0.289889,0.09728 0.574836,0.199967 0.854842,0.308058 0.280006,0.108091 0.555071,0.221586 0.825195,0.340485 0.270123,0.1189 0.535305,0.243204 0.795546,0.372913 0.260241,0.129709 0.515541,0.264822 0.765899,0.40534 0.250359,0.140517 0.495776,0.28644 0.736252,0.437767 0.240475,0.151326 0.47601,0.308058 0.706603,0.470194 0.230593,0.162136 0.456245,0.329676 0.676956,0.502621 0.220711,0.171298 0.434524,0.346405 0.64144,0.52532 0.206917,0.178916 0.406936,0.36164 0.600058,0.548174 0.193122,0.186533 0.379346,0.376876 0.558674,0.571027 0.179327,0.194151 0.351757,0.392111 0.51729,0.593881 0.165533,0.201769 0.324169,0.407347 0.475908,0.616734 0.151739,0.209386 0.29658,0.422582 0.434524,0.639587 0.137944,0.217005 0.268991,0.437818 0.393141,0.662441 0.12415,0.224622 0.241402,0.453054 0.351758,0.685294 0.110355,0.232241 0.213813,0.46829 0.310374,0.708148 0.09656,0.239858 0.186225,0.483525 0.268991,0.731001 0.08277,0.247476 0.158636,0.498761 0.227608,0.753855 0.06897,0.255094 0.131047,0.513996 0.186225,0.776708 0.05518,0.262712 0.103458,0.529232 0.144841,0.799562 0.04138,0.270329 0.07587,0.544467 0.103458,0.822415 0.02759,0.277947 0.04828,0.559703 0.06208,0.845268 0.0138,0.285565 0.02069,0.574939 0.02069,0.868122 0,0.20424 -0.0037,0.406524 -0.01096,0.606851 -0.0073,0.200328 -0.01827,0.3987 -0.03289,0.595116 -0.01462,0.196416 -0.03289,0.390877 -0.05482,0.583381 -0.02193,0.192504 -0.04751,0.383052 -0.07675,0.571645 -0.02923,0.188592 -0.06213,0.375228 -0.09867,0.559909 -0.03655,0.18468 -0.07674,0.367405 -0.120598,0.548174 -0.04385,0.180768 -0.09136,0.359581 -0.142525,0.536438 -0.05116,0.176856 -0.10598,0.351757 -0.164452,0.524702 -0.05847,0.172945 -0.120598,0.343934 -0.186379,0.512967 -0.06578,0.169033 -0.135216,0.336111 -0.208306,0.501232 -0.07309,0.165121 -0.149834,0.328286 -0.230233,0.489496 -0.0804,0.161209 -0.164452,0.320463 -0.25216,0.47776 -0.08771,0.157298 -0.17907,0.312639 -0.274087,0.466025 -0.09502,0.153386 -0.193688,0.304815 -0.296014,0.454289 -0.102325,0.149474 -0.208306,0.296992 -0.31794,0.442554 -0.109635,0.145562 -0.222924,0.289168 -0.339868,0.430818 -0.116944,0.140003 -0.236976,0.27733 -0.360096,0.41198 -0.123121,0.13465 -0.249329,0.266623 -0.378626,0.39592 -0.129297,0.129297 -0.261682,0.255917 -0.397156,0.379861 -0.135473,0.123944 -0.274035,0.245211 -0.415686,0.363802 -0.14165,0.118591 -0.286388,0.234505 -0.434215,0.347743 -0.147827,0.113238 -0.298742,0.223799 -0.452745,0.331684 -0.154004,0.107884 -0.311095,0.213093 -0.471275,0.315624 -0.16018,0.102532 -0.323448,0.202387 -0.489805,0.299565 -0.166357,0.09718 -0.335801,0.191681 -0.508335,0.283507 -0.172533,0.09183 -0.348154,0.180974 -0.526864,0.267447 -0.17871,0.08647 -0.360508,0.170268 -0.545394,0.251387 -0.184887,0.08112 -0.372862,0.159563 -0.563925,0.235329 -0.191063,0.07577 -0.385214,0.148856 -0.582453,0.21927 -0.19724,0.07041 -0.397568,0.13815 -0.600984,0.20321 -0.203416,0.06506 -0.409921,0.127444 -0.619514,0.187151 -0.209592,0.05971 -0.422274,0.116738 -0.638043,0.171092 z"
       id="text1"
       aria-label="3"
       sodipodi:nodetypes="cssssssssssssssscssssssssssssssssssssssssssssssssssssssssssssssssssssssssssssssscssssssssssssssscccccccccccccccccssssssssssssssssssssssssssssssssssssssssssssssscssssssssssssssssssssssssssssssscsssssssssssssssscccccccccccccccccccccccccccccccccccccccccccccccsssssssssssssssscssssssssssssssssssssssssssssssscssssssssssssssssssssssssssssssssssssssssssssssscccccccccccccccccssssssssssssssscssssssssssssssssssssssssssssssscssssssssssssssssssssssssssssssscsssssssssssssssc" />
  </g>
</svg>
