<?xml version="1.0" encoding="UTF-8" standalone="no"?>
<!-- Created with Inkscape (http://www.inkscape.org/) -->

<svg
   width="47.748234"
   height="69.727066"
   viewBox="0 0 47.748235 69.727069"
   version="1.1"
   id="svg1"
   inkscape:version="1.4 (e7c3feb100, 2024-10-09)"
   sodipodi:docname="5.svg"
   inkscape:export-filename="6.png"
   inkscape:export-xdpi="96"
   inkscape:export-ydpi="96"
   xmlns:inkscape="http://www.inkscape.org/namespaces/inkscape"
   xmlns:sodipodi="http://sodipodi.sourceforge.net/DTD/sodipodi-0.dtd"
   xmlns="http://www.w3.org/2000/svg"
   xmlns:svg="http://www.w3.org/2000/svg">
  <sodipodi:namedview
     id="namedview1"
     pagecolor="#ffffff"
     bordercolor="#cccccc"
     borderopacity="1"
     inkscape:showpageshadow="0"
     inkscape:pageopacity="1"
     inkscape:pagecheckerboard="true"
     inkscape:deskcolor="#d1d1d1"
     inkscape:document-units="mm"
     inkscape:zoom="2.0812827"
     inkscape:cx="385.57953"
     inkscape:cy="53.812968"
     inkscape:window-width="2752"
     inkscape:window-height="1086"
     inkscape:window-x="0"
     inkscape:window-y="0"
     inkscape:window-maximized="1"
     inkscape:current-layer="layer1"
     showguides="false" />
  <defs
     id="defs1" />
  <g
     inkscape:label="Layer 1"
     inkscape:groupmode="layer"
     id="layer1"
     transform="translate(-11.849172,-7.7096604)">
    <path
       style="font-size:80.958px;font-family:'DejaVu Sans';-inkscape-font-specification:'DejaVu Sans';fill:none;stroke:#000000;stroke-width:9.56199;stroke-linecap:round"
       d="m 19.120575,12.490655 h 1.959219 1.959219 1.95922 1.959219 1.959219 1.959219 1.959219 1.959219 1.95922 1.959219 1.959219 1.959219 1.959219 1.95922 1.959219 1.959219 v 0.420009 0.420009 0.42001 0.420009 0.420009 0.420009 0.420009 0.42001 0.420009 0.420009 0.420009 0.420009 0.420009 0.42001 0.420009 0.420009 h -1.50215 -1.502151 -1.50215 -1.502151 -1.50215 -1.502151 -1.50215 -1.50215 -1.502151 -1.50215 -1.502151 -1.50215 -1.502151 -1.50215 -1.502151 -1.50215 v 0.904255 0.904255 0.904255 0.904255 0.904255 0.904255 0.904255 0.904255 0.904255 0.904255 0.904255 0.904255 0.904255 0.904255 0.904255 0.904255 c 0.07247,-0.02471 0.144944,-0.049 0.217417,-0.07288 0.07247,-0.02388 0.144944,-0.04735 0.217416,-0.07041 0.07247,-0.02306 0.144944,-0.04571 0.217417,-0.06794 0.07247,-0.02224 0.144944,-0.04406 0.217416,-0.06547 0.07247,-0.02141 0.144944,-0.04241 0.217417,-0.063 0.07247,-0.02059 0.144944,-0.04077 0.217416,-0.06053 0.07247,-0.01976 0.144944,-0.03912 0.217417,-0.05806 0.07247,-0.01894 0.144944,-0.03747 0.217416,-0.05559 0.07247,-0.01812 0.144944,-0.03582 0.217417,-0.05312 0.07247,-0.0173 0.144944,-0.03418 0.217416,-0.05065 0.07247,-0.01647 0.144944,-0.03253 0.217417,-0.04818 0.07247,-0.01565 0.144944,-0.03088 0.217416,-0.04571 0.07247,-0.01482 0.144944,-0.02924 0.217417,-0.04324 0.07247,-0.014 0.144944,-0.02759 0.217416,-0.04077 0.07247,-0.01318 0.144944,-0.02594 0.217417,-0.0383 0.07247,-0.01235 0.144944,-0.02429 0.217416,-0.03582 0.07247,-0.01318 0.144944,-0.02594 0.217417,-0.03829 0.07247,-0.01235 0.144944,-0.0243 0.217416,-0.03582 0.07247,-0.01153 0.144944,-0.02265 0.217417,-0.03335 0.07247,-0.01071 0.144944,-0.021 0.217416,-0.03088 0.07247,-0.0099 0.144944,-0.01935 0.217417,-0.02841 0.07247,-0.0091 0.144944,-0.01771 0.217416,-0.02594 0.07247,-0.0082 0.144944,-0.01606 0.217417,-0.02347 0.07247,-0.0074 0.144944,-0.01441 0.217416,-0.021 0.07247,-0.0066 0.144944,-0.01277 0.217417,-0.01853 0.07247,-0.0058 0.144944,-0.01112 0.217416,-0.01606 0.07247,-0.0049 0.144944,-0.0095 0.217417,-0.01359 0.07247,-0.0041 0.144944,-0.0078 0.217416,-0.01112 0.07247,-0.0033 0.144944,-0.0062 0.217417,-0.0086 0.07247,-0.0025 0.144944,-0.0045 0.217416,-0.0062 0.07247,-0.0016 0.144944,-0.0029 0.217417,-0.0037 0.07247,-8.23e-4 0.144944,-0.0012 0.217416,-0.0012 0.411774,0 0.818194,0.0071 1.219262,0.02116 0.401068,0.0141 0.796782,0.03526 1.187144,0.06346 0.390361,0.02821 0.775369,0.06347 1.155025,0.105775 0.379655,0.04231 0.753957,0.09167 1.122907,0.148084 0.368949,0.05641 0.732545,0.119878 1.090788,0.190394 0.358243,0.07052 0.711133,0.148084 1.05867,0.232703 0.347537,0.08462 0.689721,0.176291 1.026552,0.275014 0.336831,0.09872 0.668309,0.204497 0.994434,0.317323 0.326125,0.112826 0.646896,0.232703 0.962315,0.359633 0.315419,0.126929 0.625484,0.26091 0.930197,0.401942 0.304712,0.141033 0.604072,0.289117 0.898078,0.444252 0.294007,0.155136 0.58266,0.317323 0.86596,0.486562 0.2833,0.169239 0.561248,0.34553 0.833842,0.528872 0.272594,0.183342 0.539835,0.373736 0.801723,0.571182 0.261888,0.197445 0.518423,0.401942 0.769605,0.613491 0.251182,0.211549 0.497011,0.430149 0.737487,0.655801 0.240476,0.225652 0.473437,0.456297 0.698883,0.691934 0.225446,0.235638 0.443377,0.476268 0.653794,0.721891 0.210416,0.245623 0.413318,0.496239 0.608704,0.751847 0.195387,0.255609 0.383259,0.51621 0.563615,0.781804 0.180357,0.265594 0.353199,0.536181 0.518526,0.81176 0.165328,0.27558 0.32314,0.556152 0.473437,0.841717 0.150298,0.285565 0.29308,0.576123 0.428348,0.871674 0.135267,0.29555 0.26302,0.596094 0.383258,0.90163 0.120238,0.305536 0.232961,0.616065 0.338169,0.931586 0.105208,0.315522 0.202902,0.636036 0.29308,0.961543 0.09018,0.325508 0.172842,0.656007 0.247991,0.9915 0.07515,0.335493 0.142782,0.675978 0.202901,1.021456 0.06012,0.345478 0.112723,0.695949 0.157813,1.051413 0.04509,0.355464 0.08266,0.71592 0.112723,1.081369 0.03006,0.365449 0.0526,0.735891 0.06763,1.111326 0.01503,0.375434 0.02255,0.755862 0.02255,1.141282 0,0.39695 -0.0077,0.788392 -0.02316,1.174327 -0.01544,0.385935 -0.0386,0.766362 -0.06949,1.141282 -0.03088,0.37492 -0.06949,0.744333 -0.115811,1.108238 -0.04632,0.363905 -0.10037,0.722302 -0.162136,1.075192 -0.06177,0.35289 -0.131253,0.700273 -0.208461,1.042148 -0.07721,0.341875 -0.162136,0.678243 -0.254785,1.009103 -0.09265,0.33086 -0.193019,0.656213 -0.301109,0.976058 -0.108091,0.319845 -0.223902,0.634183 -0.347434,0.943013 -0.123532,0.30883 -0.254785,0.612153 -0.393759,0.909968 -0.138973,0.297816 -0.285668,0.590123 -0.440083,0.876924 -0.154415,0.2868 -0.316551,0.568093 -0.486408,0.843878 -0.169856,0.275786 -0.347434,0.546064 -0.532732,0.810834 -0.185298,0.264771 -0.378317,0.524034 -0.579057,0.777789 -0.200739,0.253756 -0.4092,0.502004 -0.625381,0.744744 -0.216181,0.242741 -0.440083,0.479974 -0.671706,0.7117 -0.231622,0.231725 -0.470966,0.457943 -0.71803,0.678654 -0.247064,0.219064 -0.500459,0.431282 -0.760186,0.636654 -0.259726,0.205372 -0.525783,0.403898 -0.798171,0.595579 -0.272389,0.191681 -0.551108,0.376515 -0.836158,0.554505 -0.285051,0.177989 -0.576432,0.349132 -0.874144,0.51343 -0.297713,0.164298 -0.601756,0.32175 -0.912131,0.472356 -0.310374,0.150606 -0.62708,0.294367 -0.950116,0.431282 -0.323036,0.136914 -0.652404,0.266983 -0.988102,0.390207 -0.335699,0.123223 -0.677728,0.2396 -1.026089,0.349132 -0.348361,0.109532 -0.703052,0.212218 -1.064075,0.308058 -0.361022,0.09584 -0.728376,0.184835 -1.10206,0.266984 -0.373685,0.08215 -0.753701,0.157452 -1.140047,0.22591 -0.386347,0.06846 -0.779025,0.130069 -1.178033,0.184835 -0.399009,0.05477 -0.804349,0.102686 -1.21602,0.14376 -0.41167,0.04107 -0.829672,0.0753 -1.254005,0.102686 -0.424333,0.02738 -0.854997,0.04792 -1.291991,0.06161 -0.436995,0.01369 -0.880321,0.02054 -1.329978,0.02054 -0.154827,0 -0.30986,-8.24e-4 -0.465098,-0.0025 -0.155239,-0.0016 -0.310684,-0.0041 -0.466334,-0.0074 -0.155651,-0.0033 -0.311507,-0.0074 -0.467569,-0.01235 -0.156062,-0.0049 -0.312331,-0.01071 -0.468805,-0.01729 -0.156474,-0.0066 -0.313153,-0.014 -0.470039,-0.02224 -0.156886,-0.0082 -0.313978,-0.01729 -0.471275,-0.02718 -0.157298,-0.0099 -0.314801,-0.02059 -0.472511,-0.03212 -0.157709,-0.01153 -0.315624,-0.02388 -0.473745,-0.03706 -0.158121,-0.01318 -0.316448,-0.02718 -0.474981,-0.042 -0.158533,-0.01482 -0.317272,-0.03047 -0.476217,-0.04694 -0.158944,-0.01647 -0.318095,-0.03377 -0.477451,-0.05188 -0.159357,-0.01812 -0.318919,-0.03706 -0.478687,-0.05683 -0.159768,-0.01977 -0.319742,-0.04035 -0.479922,-0.06177 -0.16018,-0.02141 -0.320566,-0.04365 -0.481158,-0.06671 -0.160592,-0.02306 -0.321389,-0.04694 -0.482393,-0.07165 -0.161003,-0.02471 -0.322213,-0.05024 -0.483628,-0.07659 -0.159768,-0.02635 -0.319897,-0.05353 -0.480385,-0.08153 -0.160489,-0.028 -0.321338,-0.05683 -0.482548,-0.08647 -0.161209,-0.02965 -0.322779,-0.06012 -0.484709,-0.09141 -0.16193,-0.0313 -0.32422,-0.06341 -0.486871,-0.09636 -0.16265,-0.03294 -0.325661,-0.06671 -0.489032,-0.101297 -0.163371,-0.03459 -0.327103,-0.07 -0.491195,-0.106237 -0.164092,-0.03624 -0.328544,-0.0733 -0.493356,-0.111179 -0.164813,-0.03788 -0.329985,-0.07659 -0.495518,-0.11612 -0.165533,-0.03953 -0.331427,-0.07988 -0.49768,-0.121062 -0.166254,-0.04118 -0.332868,-0.08318 -0.499842,-0.126002 -0.166974,-0.04283 -0.334309,-0.08647 -0.502004,-0.130944 -0.167694,-0.04447 -0.33575,-0.08977 -0.504165,-0.135886 -0.168416,-0.04612 -0.337191,-0.09306 -0.506327,-0.140826 -0.169136,-0.04777 -0.338633,-0.09636 -0.508489,-0.145768 -0.169857,-0.04941 -0.340074,-0.09965 -0.510651,-0.15071 -0.170578,-0.05106 -0.341515,-0.102943 -0.512813,-0.15565 v -0.50154 -0.501541 -0.50154 -0.50154 -0.501541 -0.50154 -0.50154 -0.50154 -0.501541 -0.50154 -0.50154 -0.501541 -0.50154 -0.50154 -0.501541 -0.50154 c 0.148239,0.08071 0.296786,0.160128 0.445642,0.238262 0.148856,0.07814 0.298021,0.154982 0.447495,0.230542 0.149474,0.07556 0.299257,0.149834 0.449348,0.222821 0.150092,0.07299 0.300492,0.144687 0.451201,0.2151 0.150709,0.07041 0.301727,0.13954 0.453054,0.20738 0.151327,0.06784 0.302963,0.134393 0.454907,0.199659 0.151945,0.06527 0.304198,0.129245 0.45676,0.191938 0.152562,0.06269 0.305433,0.124098 0.458613,0.184217 0.15318,0.06012 0.306669,0.118951 0.460466,0.176496 0.153798,0.05755 0.307904,0.113804 0.462319,0.168776 0.154415,0.05497 0.309139,0.108657 0.464172,0.161055 0.155033,0.0524 0.310374,0.10351 0.466025,0.153334 0.15565,0.04982 0.31161,0.09836 0.467878,0.145614 0.156268,0.04725 0.312845,0.09322 0.46973,0.137893 0.156886,0.04468 0.314081,0.08807 0.471584,0.130172 0.157504,0.0421 0.315316,0.08292 0.473437,0.122451 0.158121,0.03953 0.316808,0.07783 0.476062,0.114885 0.159253,0.03706 0.319073,0.07288 0.479459,0.107473 0.160386,0.03459 0.321338,0.06794 0.482856,0.100061 0.161518,0.03212 0.323603,0.063 0.486253,0.09265 0.162651,0.02965 0.325868,0.05806 0.489651,0.08524 0.163783,0.02718 0.328132,0.05312 0.493047,0.07782 0.164916,0.02471 0.330397,0.04818 0.496445,0.07041 0.166048,0.02224 0.332662,0.04324 0.499842,0.063 0.16718,0.01977 0.334926,0.0383 0.503239,0.05559 0.168312,0.0173 0.337191,0.03335 0.506636,0.04818 0.169445,0.01482 0.339456,0.02841 0.510033,0.04076 0.170577,0.01235 0.341721,0.02347 0.51343,0.03335 0.17171,0.0099 0.343986,0.01853 0.516828,0.02594 0.172842,0.0074 0.34625,0.01359 0.520224,0.01853 0.173975,0.0049 0.348515,0.0086 0.523622,0.01112 0.175107,0.0025 0.35078,0.0037 0.527019,0.0037 0.284947,0 0.566189,-0.0047 0.843724,-0.01405 0.277536,-0.0094 0.551365,-0.02342 0.821489,-0.04215 0.270123,-0.01874 0.536541,-0.04216 0.799252,-0.07026 0.262712,-0.0281 0.521718,-0.06089 0.777017,-0.09836 0.2553,-0.03747 0.506894,-0.07963 0.754781,-0.126466 0.247888,-0.04684 0.49207,-0.09836 0.732546,-0.15457 0.240476,-0.05621 0.477246,-0.117098 0.710309,-0.182673 0.233064,-0.06558 0.462422,-0.135834 0.688074,-0.210777 0.225652,-0.07494 0.447598,-0.154569 0.665838,-0.23888 0.21824,-0.08431 0.432774,-0.173305 0.643603,-0.266984 0.210828,-0.09368 0.41795,-0.192041 0.621366,-0.295087 0.203416,-0.103046 0.403127,-0.210777 0.599131,-0.323191 0.196004,-0.112414 0.388302,-0.229512 0.576895,-0.351294 0.188592,-0.121782 0.373479,-0.248248 0.554659,-0.379398 0.18118,-0.13115 0.358655,-0.266984 0.532423,-0.407502 0.173769,-0.140518 0.343831,-0.285719 0.510188,-0.435605 0.166357,-0.149886 0.327514,-0.303117 0.483474,-0.459694 0.155959,-0.156577 0.30672,-0.316499 0.452282,-0.479768 0.145562,-0.163268 0.285925,-0.329882 0.42109,-0.499841 0.135164,-0.16996 0.26513,-0.343265 0.389898,-0.519916 0.124767,-0.176651 0.244336,-0.356648 0.358706,-0.53999 0.11437,-0.183342 0.223542,-0.37003 0.327515,-0.560063 0.103972,-0.190034 0.202747,-0.383413 0.296322,-0.580138 0.09358,-0.196725 0.181953,-0.396795 0.265131,-0.600212 0.08318,-0.203416 0.161158,-0.410178 0.233939,-0.620285 0.07278,-0.210108 0.140363,-0.423561 0.202747,-0.64036 0.06238,-0.216799 0.119569,-0.436943 0.171555,-0.660433 0.05199,-0.22349 0.09877,-0.450326 0.140363,-0.680508 0.04159,-0.230181 0.07798,-0.463708 0.109172,-0.700581 0.03119,-0.236873 0.05718,-0.477091 0.07798,-0.720655 0.02079,-0.243565 0.03639,-0.490474 0.04679,-0.74073 0.0104,-0.250255 0.0156,-0.503856 0.0156,-0.760803 0,-0.256947 -0.0052,-0.510548 -0.0156,-0.760803 -0.0104,-0.250256 -0.02599,-0.497166 -0.04679,-0.74073 -0.02079,-0.243564 -0.04679,-0.483782 -0.07798,-0.720655 -0.03119,-0.236873 -0.06758,-0.4704 -0.109172,-0.700582 -0.04159,-0.230181 -0.08838,-0.457017 -0.140363,-0.680507 -0.05199,-0.22349 -0.109172,-0.443635 -0.171555,-0.660434 -0.06238,-0.216799 -0.129966,-0.430252 -0.202747,-0.640359 -0.07278,-0.210108 -0.150761,-0.41687 -0.233939,-0.620286 -0.08318,-0.203416 -0.171555,-0.403487 -0.265131,-0.600212 -0.09358,-0.196725 -0.19235,-0.390104 -0.296323,-0.580137 -0.103972,-0.190034 -0.213144,-0.376722 -0.327514,-0.560064 -0.11437,-0.183342 -0.233939,-0.363339 -0.358706,-0.53999 -0.124768,-0.176651 -0.254734,-0.349956 -0.389898,-0.519916 -0.135165,-0.169959 -0.275528,-0.336573 -0.42109,-0.499841 -0.145562,-0.163269 -0.296323,-0.323191 -0.452282,-0.479768 -0.15596,-0.156577 -0.317117,-0.309808 -0.483474,-0.459694 -0.166357,-0.149886 -0.336419,-0.295087 -0.510188,-0.435605 -0.173768,-0.140518 -0.351243,-0.276352 -0.532423,-0.407502 -0.18118,-0.13115 -0.366067,-0.257616 -0.554659,-0.379398 -0.188592,-0.121782 -0.380891,-0.23888 -0.576895,-0.351294 -0.196004,-0.112414 -0.395715,-0.220145 -0.599131,-0.323191 -0.203416,-0.103046 -0.410538,-0.201409 -0.621366,-0.295087 -0.210828,-0.09368 -0.425363,-0.182674 -0.643603,-0.266984 -0.21824,-0.08431 -0.440186,-0.163938 -0.665838,-0.23888 -0.225652,-0.07494 -0.45501,-0.145202 -0.688073,-0.210777 -0.233064,-0.06558 -0.469834,-0.126466 -0.71031,-0.182673 -0.240476,-0.05621 -0.484658,-0.10773 -0.732545,-0.15457 -0.247888,-0.04684 -0.499482,-0.08899 -0.754782,-0.126466 -0.255299,-0.03747 -0.514305,-0.07026 -0.777017,-0.09836 -0.262711,-0.0281 -0.529129,-0.05152 -0.799252,-0.07026 -0.270124,-0.01874 -0.543953,-0.03279 -0.821489,-0.04215 -0.277535,-0.0094 -0.558777,-0.01405 -0.843724,-0.01405 -0.133415,0 -0.266829,9.26e-4 -0.400244,0.0028 -0.133415,0.0019 -0.266829,0.0046 -0.400244,0.0083 -0.133415,0.0037 -0.266829,0.0083 -0.400244,0.0139 -0.133415,0.0056 -0.266829,0.01205 -0.400244,0.01946 -0.133415,0.0074 -0.266829,0.01575 -0.400244,0.02501 -0.133415,0.0093 -0.266829,0.01946 -0.400244,0.03057 -0.133415,0.01112 -0.26683,0.02316 -0.400244,0.03613 -0.133415,0.01297 -0.26683,0.02687 -0.400244,0.04169 -0.133415,0.01482 -0.26683,0.03057 -0.400244,0.04725 -0.133415,0.01668 -0.26683,0.03428 -0.400244,0.05281 -0.133415,0.01853 -0.26683,0.03799 -0.400244,0.05837 -0.133415,0.02038 -0.26683,0.04169 -0.400245,0.06393 -0.133414,0.02224 -0.266829,0.0454 -0.400244,0.06949 -0.133414,0.02409 -0.266829,0.0491 -0.400244,0.07505 -0.133414,0.02594 -0.266829,0.05281 -0.400244,0.0806 -0.133415,0.02779 -0.266829,0.05652 -0.400244,0.08616 -0.131768,0.02965 -0.263741,0.06033 -0.39592,0.09203 -0.13218,0.03171 -0.264565,0.06444 -0.397156,0.09821 -0.132591,0.03377 -0.265388,0.06856 -0.398391,0.104385 -0.133003,0.03582 -0.266211,0.07268 -0.399626,0.110561 -0.133415,0.03788 -0.267035,0.0768 -0.400862,0.116738 -0.133826,0.03994 -0.267858,0.08091 -0.402097,0.122915 -0.134238,0.042 -0.268682,0.08503 -0.403332,0.129091 -0.13465,0.04406 -0.269506,0.08915 -0.404567,0.135267 -0.135062,0.04612 -0.27033,0.09327 -0.405803,0.141444 -0.135474,0.04818 -0.271153,0.09739 -0.407039,0.147621 -0.135885,0.05024 -0.271976,0.101503 -0.408273,0.153798 -0.136297,0.0523 -0.2728,0.10562 -0.409509,0.159974 -0.136709,0.05435 -0.273624,0.109737 -0.410744,0.16615 -0.137121,0.05641 -0.274447,0.113856 -0.41198,0.172328 -0.137532,0.05847 -0.275271,0.117973 -0.413215,0.178504 -0.137944,0.06053 -0.276094,0.12209 -0.41445,0.18468 v -1.852982 -1.852981 -1.852982 -1.852981 -1.852982 -1.852981 -1.852982 -1.852982 -1.852981 l 0,-1.852982 V 21.755563 19.902581 18.0496 16.196618 l 0,-1.852981 z"
       id="text1"
       aria-label="5"
       sodipodi:nodetypes="cccccccccccccccccccccccccccccccccccccccccccccccccccccccccccccccccssssssssssssssscssssssssssssssssssssssssssssssssssssssssssssssssssssssssssssssscssssssssssssssssssssssssssssssscssssssssssssssscccccccccccccccccssssssssssssssssssssssssssssssssssssssssssssssssssssssssssssssssssssssssssssssssssssssssssssssssssssssssssssssscsssssssssssssssccccccccccccccccc" />
  </g>
</svg>
