<?xml version="1.0" encoding="UTF-8" standalone="no"?>
<!-- Created with Inkscape (http://www.inkscape.org/) -->

<svg
   width="50.317699"
   height="70.79438"
   viewBox="0 0 50.317701 70.794383"
   version="1.1"
   id="svg1"
   inkscape:version="1.4 (e7c3feb100, 2024-10-09)"
   sodipodi:docname="6.svg"
   inkscape:export-filename="7.png"
   inkscape:export-xdpi="96"
   inkscape:export-ydpi="96"
   xmlns:inkscape="http://www.inkscape.org/namespaces/inkscape"
   xmlns:sodipodi="http://sodipodi.sourceforge.net/DTD/sodipodi-0.dtd"
   xmlns="http://www.w3.org/2000/svg"
   xmlns:svg="http://www.w3.org/2000/svg">
  <sodipodi:namedview
     id="namedview1"
     pagecolor="#ffffff"
     bordercolor="#cccccc"
     borderopacity="1"
     inkscape:showpageshadow="0"
     inkscape:pageopacity="1"
     inkscape:pagecheckerboard="true"
     inkscape:deskcolor="#d1d1d1"
     inkscape:document-units="mm"
     inkscape:zoom="2.0812827"
     inkscape:cx="386.54047"
     inkscape:cy="54.773914"
     inkscape:window-width="2752"
     inkscape:window-height="1086"
     inkscape:window-x="0"
     inkscape:window-y="0"
     inkscape:window-maximized="1"
     inkscape:current-layer="layer1" />
  <defs
     id="defs1" />
  <g
     inkscape:label="Layer 1"
     inkscape:groupmode="layer"
     id="layer1"
     transform="translate(-11.256218,-6.642343)">
    <path
       style="font-size:80.958px;font-family:'DejaVu Sans';-inkscape-font-specification:'DejaVu Sans';fill:none;stroke:#000000;stroke-width:9.56199;stroke-linecap:round"
       d="m 37.106849,38.817817 c -0.224005,0 -0.445127,0.0048 -0.663367,0.01436 -0.21824,0.0096 -0.433598,0.02393 -0.646073,0.04308 -0.212475,0.01915 -0.422068,0.04308 -0.628779,0.0718 -0.20671,0.02872 -0.410538,0.06223 -0.611484,0.100525 -0.200945,0.03829 -0.399008,0.08138 -0.594189,0.129245 -0.195181,0.04787 -0.387479,0.100524 -0.576895,0.157967 -0.189416,0.05744 -0.375949,0.119672 -0.5596,0.186688 -0.183651,0.06702 -0.36442,0.138819 -0.542306,0.215409 -0.177886,0.07659 -0.35289,0.157967 -0.525012,0.24413 -0.172121,0.08616 -0.34136,0.177115 -0.507717,0.272852 -0.166356,0.09574 -0.32983,0.196262 -0.490422,0.301573 -0.160592,0.105311 -0.318301,0.215409 -0.473128,0.330294 -0.154827,0.114885 -0.306771,0.234556 -0.455834,0.359015 -0.149062,0.124459 -0.295241,0.253704 -0.438539,0.387736 -0.143297,0.134033 -0.283712,0.272852 -0.421244,0.416458 -0.137532,0.143606 -0.272182,0.291999 -0.40395,0.445179 -0.130121,0.15318 -0.256175,0.309911 -0.378163,0.470194 -0.121988,0.160283 -0.239909,0.324117 -0.353765,0.491503 -0.113855,0.167386 -0.223644,0.338324 -0.329367,0.512813 -0.105723,0.174489 -0.20738,0.35253 -0.30497,0.534122 -0.09759,0.181592 -0.191115,0.366736 -0.280573,0.555431 -0.08946,0.188695 -0.174849,0.380942 -0.256174,0.576741 -0.08133,0.195798 -0.158585,0.395148 -0.231777,0.598049 -0.07319,0.202902 -0.14232,0.409355 -0.20738,0.619359 -0.06506,0.210005 -0.126054,0.423561 -0.182982,0.640669 -0.05693,0.217108 -0.109789,0.437767 -0.158584,0.661978 -0.0488,0.22421 -0.09352,0.451973 -0.134187,0.683287 -0.04066,0.231313 -0.07726,0.466179 -0.109789,0.704596 -0.03253,0.238417 -0.06099,0.480385 -0.08539,0.725905 -0.0244,0.245521 -0.04473,0.494592 -0.06099,0.747215 -0.01626,0.252624 -0.02846,0.508798 -0.0366,0.768525 -0.0081,0.259726 -0.0122,0.523004 -0.0122,0.789833 0,0.265182 0.0041,0.526916 0.0122,0.785201 0.0081,0.258285 0.02033,0.513121 0.0366,0.764509 0.01627,0.251388 0.0366,0.499327 0.06099,0.743818 0.0244,0.244491 0.05286,0.485533 0.08539,0.723126 0.03253,0.237593 0.06913,0.471738 0.109789,0.702434 0.04066,0.230697 0.08539,0.457944 0.134187,0.681743 0.04879,0.223799 0.101656,0.444149 0.158584,0.661051 0.05693,0.216902 0.117922,0.430355 0.182982,0.64036 0.06506,0.210004 0.134187,0.41656 0.20738,0.619668 0.07319,0.203107 0.150451,0.402766 0.231777,0.598976 0.08132,0.19621 0.166717,0.388972 0.256174,0.578284 0.08946,0.189313 0.182982,0.375178 0.280573,0.557593 0.09759,0.182416 0.199247,0.361383 0.30497,0.536902 0.105723,0.175518 0.215512,0.347588 0.329367,0.516209 0.113856,0.168622 0.231777,0.333794 0.353765,0.495519 0.121988,0.161724 0.248042,0.319999 0.378163,0.474826 0.131768,0.15318 0.266418,0.301573 0.40395,0.445179 0.137532,0.143606 0.277947,0.282425 0.421244,0.416458 0.143298,0.134032 0.289477,0.263277 0.438539,0.387736 0.149063,0.124459 0.301007,0.24413 0.455834,0.359015 0.154827,0.114885 0.312536,0.224983 0.473128,0.330294 0.160592,0.105311 0.324066,0.205836 0.490422,0.301573 0.166357,0.09574 0.335596,0.186688 0.507717,0.272852 0.172122,0.08616 0.347126,0.16754 0.525012,0.24413 0.177886,0.07659 0.358655,0.148393 0.542306,0.215409 0.183651,0.06702 0.370184,0.129246 0.5596,0.186688 0.189416,0.05744 0.381714,0.110098 0.576895,0.157967 0.195181,0.04787 0.393244,0.09095 0.594189,0.129245 0.200946,0.0383 0.404774,0.0718 0.611484,0.100525 0.206711,0.02872 0.416304,0.05266 0.628779,0.0718 0.212475,0.01915 0.427833,0.03351 0.646073,0.04308 0.21824,0.0096 0.439362,0.01436 0.663367,0.01436 0.224005,0 0.445076,-0.0048 0.663213,-0.01436 0.218137,-0.0096 0.43334,-0.02393 0.64561,-0.04308 0.212269,-0.01915 0.421604,-0.04308 0.628006,-0.0718 0.206401,-0.02872 0.409869,-0.06223 0.610403,-0.100525 0.200534,-0.0383 0.398134,-0.08138 0.5928,-0.129245 0.194666,-0.04787 0.386398,-0.100524 0.575196,-0.157967 0.188798,-0.05744 0.374663,-0.119672 0.557593,-0.186688 0.18293,-0.06702 0.362927,-0.138819 0.53999,-0.215409 0.177062,-0.07659 0.351191,-0.157967 0.522386,-0.24413 0.171195,-0.08616 0.339456,-0.177115 0.504783,-0.272852 0.165327,-0.09574 0.327721,-0.196262 0.48718,-0.301573 0.159459,-0.105311 0.315985,-0.215409 0.469576,-0.330294 0.153592,-0.114885 0.30425,-0.234556 0.451974,-0.359015 0.147723,-0.124459 0.292513,-0.253704 0.434369,-0.387736 0.141856,-0.134033 0.280779,-0.272852 0.416767,-0.416458 0.135988,-0.143606 0.269043,-0.291999 0.399163,-0.445179 0.131768,-0.154827 0.259417,-0.313102 0.38295,-0.474826 0.123532,-0.161725 0.242946,-0.326897 0.358243,-0.495519 0.115296,-0.168621 0.226475,-0.340691 0.333536,-0.516209 0.107062,-0.175519 0.210005,-0.354486 0.308831,-0.536902 0.09882,-0.182415 0.193533,-0.36828 0.284123,-0.557593 0.09059,-0.189312 0.177063,-0.382074 0.259418,-0.578284 0.08235,-0.19621 0.160592,-0.395869 0.234711,-0.598976 0.07412,-0.203108 0.144121,-0.409664 0.210005,-0.619668 0.06588,-0.210005 0.127649,-0.423458 0.185298,-0.64036 0.05765,-0.216902 0.111179,-0.437252 0.160591,-0.661051 0.04941,-0.223799 0.09471,-0.451046 0.135886,-0.681743 0.04118,-0.230696 0.07824,-0.464841 0.111179,-0.702434 0.03294,-0.237593 0.06177,-0.478635 0.08647,-0.723126 0.02471,-0.244491 0.0453,-0.49243 0.06177,-0.743818 0.01647,-0.251388 0.02882,-0.506224 0.03706,-0.764509 0.0082,-0.258285 0.01235,-0.520019 0.01235,-0.785201 0,-0.266829 -0.0041,-0.530107 -0.01235,-0.789833 -0.0082,-0.259727 -0.02059,-0.515901 -0.03706,-0.768525 -0.01647,-0.252623 -0.03706,-0.501694 -0.06177,-0.747215 -0.02471,-0.24552 -0.05353,-0.487488 -0.08647,-0.725905 -0.03294,-0.238417 -0.07,-0.473283 -0.111179,-0.704596 -0.04118,-0.231314 -0.08647,-0.459077 -0.135886,-0.683287 -0.04941,-0.224211 -0.102943,-0.44487 -0.160591,-0.661978 -0.05765,-0.217108 -0.119415,-0.430664 -0.185298,-0.640668 -0.06588,-0.210005 -0.135886,-0.416458 -0.210005,-0.61936 -0.07412,-0.202901 -0.152356,-0.402251 -0.234711,-0.598049 -0.08235,-0.195799 -0.168827,-0.388046 -0.259418,-0.576741 -0.09059,-0.188695 -0.185298,-0.373839 -0.284123,-0.555431 -0.09883,-0.181592 -0.201769,-0.359633 -0.308831,-0.534122 -0.107061,-0.174489 -0.21824,-0.345427 -0.333536,-0.512813 -0.115297,-0.167386 -0.234711,-0.33122 -0.358243,-0.491503 -0.123533,-0.160283 -0.251182,-0.317014 -0.38295,-0.470194 -0.13012,-0.15318 -0.263175,-0.301573 -0.399163,-0.445179 -0.135988,-0.143606 -0.274911,-0.282425 -0.416767,-0.416458 -0.141856,-0.134032 -0.286646,-0.263277 -0.434369,-0.387736 -0.147724,-0.124459 -0.298382,-0.24413 -0.451974,-0.359015 -0.153591,-0.114885 -0.310117,-0.224983 -0.469576,-0.330294 -0.159459,-0.105311 -0.321853,-0.205836 -0.48718,-0.301573 -0.165327,-0.09574 -0.333588,-0.186688 -0.504783,-0.272852 -0.171195,-0.08616 -0.345324,-0.16754 -0.522386,-0.24413 -0.177063,-0.07659 -0.35706,-0.148393 -0.53999,-0.215409 -0.18293,-0.06702 -0.368795,-0.129246 -0.557593,-0.186688 -0.188798,-0.05744 -0.38053,-0.110098 -0.575196,-0.157967 -0.194666,-0.04787 -0.392266,-0.09095 -0.5928,-0.129245 -0.200534,-0.03829 -0.404002,-0.0718 -0.610403,-0.100525 -0.206402,-0.02872 -0.415737,-0.05266 -0.628006,-0.0718 -0.21227,-0.01915 -0.427473,-0.03351 -0.64561,-0.04308 -0.218137,-0.0096 -0.439208,-0.01436 -0.663213,-0.01436 z m 15.85164,-25.022663 v 0.454598 0.454598 0.454599 0.454598 0.454598 0.454598 0.454598 0.454598 0.454599 0.454598 0.454598 0.454598 0.454598 0.454599 0.454598 0.454598 c -0.125179,-0.0593 -0.250461,-0.117716 -0.375846,-0.175261 -0.125386,-0.05755 -0.250874,-0.114216 -0.376465,-0.170011 -0.125591,-0.0558 -0.251284,-0.110716 -0.377081,-0.164761 -0.125797,-0.05405 -0.251697,-0.107216 -0.3777,-0.159511 -0.126002,-0.05229 -0.252108,-0.103716 -0.378317,-0.154261 -0.126208,-0.05054 -0.25252,-0.100215 -0.378935,-0.14901 -0.126414,-0.0488 -0.252932,-0.09672 -0.379552,-0.143761 -0.12662,-0.04704 -0.253344,-0.09321 -0.38017,-0.13851 -0.126826,-0.04529 -0.253756,-0.08971 -0.380788,-0.133261 -0.127032,-0.04355 -0.254167,-0.08621 -0.381405,-0.12801 -0.127238,-0.0418 -0.254579,-0.08272 -0.382023,-0.12276 -0.127444,-0.04005 -0.254991,-0.07922 -0.382641,-0.11751 -0.12765,-0.03829 -0.255402,-0.07571 -0.383258,-0.112259 -0.127856,-0.03655 -0.255814,-0.07221 -0.383876,-0.10701 -0.128062,-0.03479 -0.256226,-0.06871 -0.384494,-0.10176 -0.128267,-0.03304 -0.256638,-0.06521 -0.385111,-0.09651 -0.126826,-0.0313 -0.253601,-0.06161 -0.380324,-0.09095 -0.126724,-0.02934 -0.253396,-0.0577 -0.380016,-0.08508 -0.12662,-0.02738 -0.253189,-0.05379 -0.379707,-0.07922 -0.126517,-0.02543 -0.252983,-0.04988 -0.379398,-0.07335 -0.126414,-0.02347 -0.252777,-0.04596 -0.379089,-0.06748 -0.126312,-0.02151 -0.252572,-0.04205 -0.37878,-0.06161 -0.126209,-0.01956 -0.252366,-0.03814 -0.378472,-0.05574 -0.126106,-0.0176 -0.25216,-0.03423 -0.378163,-0.04988 -0.126002,-0.01565 -0.251954,-0.03032 -0.377853,-0.04401 -0.1259,-0.01369 -0.251748,-0.0264 -0.377545,-0.03814 -0.125797,-0.01173 -0.251543,-0.02249 -0.377237,-0.03227 -0.125693,-0.0098 -0.251336,-0.01858 -0.376927,-0.02641 -0.125591,-0.0078 -0.25113,-0.01467 -0.376618,-0.02054 -0.125488,-0.0059 -0.250925,-0.01076 -0.37631,-0.01467 -0.125385,-0.0039 -0.250719,-0.0068 -0.376001,-0.0088 -0.125282,-0.002 -0.250513,-0.0029 -0.375692,-0.0029 -0.329419,0 -0.654,0.0069 -0.973742,0.02085 -0.319742,0.0139 -0.634646,0.03474 -0.944712,0.06254 -0.310065,0.0278 -0.615293,0.06254 -0.915681,0.10423 -0.300389,0.04169 -0.59594,0.09033 -0.886652,0.145923 -0.290712,0.05559 -0.576586,0.118127 -0.857622,0.187614 -0.281035,0.06949 -0.557233,0.145922 -0.828591,0.229307 -0.271359,0.08338 -0.53788,0.173717 -0.799562,0.270998 -0.261682,0.09728 -0.518526,0.201512 -0.770532,0.312691 -0.252005,0.111179 -0.499172,0.229306 -0.741501,0.354382 -0.242329,0.125077 -0.479819,0.257102 -0.712471,0.396075 -0.232653,0.138974 -0.460466,0.284896 -0.683442,0.437767 -0.222975,0.152871 -0.441112,0.312691 -0.654411,0.479459 -0.213299,0.166769 -0.421759,0.340486 -0.625381,0.521151 -0.203623,0.180666 -0.402406,0.36828 -0.596352,0.562843 -0.193945,0.194563 -0.383052,0.396075 -0.567321,0.604536 -0.184269,0.20846 -0.363699,0.423869 -0.538291,0.646227 -0.172945,0.222358 -0.341257,0.451819 -0.504938,0.688383 -0.16368,0.236564 -0.322727,0.480231 -0.477142,0.731001 -0.154415,0.25077 -0.304198,0.508643 -0.449348,0.77362 -0.145151,0.264976 -0.285668,0.537056 -0.421554,0.816238 -0.135885,0.279183 -0.267138,0.565468 -0.393758,0.858857 -0.126621,0.293389 -0.248609,0.593881 -0.365964,0.901476 -0.117356,0.307595 -0.230079,0.622293 -0.338169,0.944094 -0.108091,0.321801 -0.211549,0.650705 -0.310375,0.986712 -0.09882,0.336008 -0.193019,0.679118 -0.282579,1.029332 -0.08956,0.350213 -0.17449,0.70753 -0.254785,1.07195 -0.0803,0.364419 -0.15596,0.735942 -0.226991,1.114568 -0.07103,0.378626 -0.137429,0.764355 -0.199195,1.157187 -0.06177,0.392832 -0.1189,0.792767 -0.171401,1.199806 -0.0525,0.407038 -0.10037,0.821179 -0.143606,1.242424 -0.04324,0.421244 -0.08184,0.849592 -0.115811,1.285043 -0.03397,0.43545 -0.06331,0.878004 -0.08802,1.327661 0.09718,-0.143297 0.195901,-0.284484 0.296168,-0.423561 0.100267,-0.139076 0.202078,-0.276043 0.305433,-0.410898 0.103356,-0.134856 0.208255,-0.267602 0.314698,-0.398237 0.106444,-0.130635 0.214432,-0.25916 0.323963,-0.385575 0.109532,-0.126414 0.220608,-0.250718 0.333228,-0.372912 0.11262,-0.122194 0.226785,-0.242278 0.342493,-0.360251 0.115708,-0.117973 0.232961,-0.233836 0.351758,-0.347588 0.118796,-0.113753 0.239137,-0.225395 0.361022,-0.334927 0.121885,-0.109531 0.245314,-0.216953 0.370288,-0.322264 0.124973,-0.105311 0.251491,-0.208512 0.379552,-0.309602 0.128062,-0.101091 0.257668,-0.200071 0.388818,-0.29694 0.131149,-0.09687 0.263844,-0.19163 0.398082,-0.284279 0.134238,-0.09265 0.27002,-0.183187 0.407347,-0.271616 0.137327,-0.08843 0.276197,-0.174746 0.416612,-0.258954 0.140415,-0.08421 0.282374,-0.166305 0.425877,-0.246292 0.143503,-0.07999 0.288551,-0.157864 0.435142,-0.23363 0.146591,-0.07741 0.294109,-0.152408 0.442554,-0.224983 0.148444,-0.07258 0.297815,-0.142731 0.448112,-0.210468 0.150298,-0.06774 0.301522,-0.133054 0.453672,-0.195953 0.15215,-0.0629 0.305227,-0.123377 0.459231,-0.181437 0.154003,-0.05806 0.308933,-0.113701 0.464789,-0.166923 0.155856,-0.05322 0.312639,-0.104024 0.470349,-0.152408 0.157709,-0.04838 0.316345,-0.09435 0.475907,-0.137893 0.159562,-0.04355 0.320051,-0.08467 0.481466,-0.123377 0.161416,-0.03871 0.323757,-0.075 0.487026,-0.108863 0.163268,-0.03387 0.327463,-0.06532 0.492584,-0.09435 0.165121,-0.02903 0.331169,-0.05564 0.498143,-0.07983 0.166974,-0.02419 0.334875,-0.04596 0.503702,-0.06532 0.168827,-0.01935 0.338581,-0.03629 0.509261,-0.0508 0.17068,-0.01452 0.342287,-0.02661 0.51482,-0.03629 0.172533,-0.0097 0.345993,-0.01693 0.520379,-0.02177 0.174386,-0.0048 0.349699,-0.0073 0.525938,-0.0073 0.370596,0 0.736303,0.0071 1.09712,0.02116 0.360816,0.0141 0.716743,0.03526 1.06778,0.06346 0.351037,0.02821 0.697185,0.06347 1.038442,0.105775 0.341257,0.04231 0.677625,0.09167 1.009103,0.148084 0.331478,0.05641 0.658066,0.119878 0.979764,0.190394 0.321698,0.07052 0.638507,0.148084 0.950425,0.232703 0.311919,0.08462 0.618947,0.176291 0.921086,0.275014 0.302139,0.09872 0.599388,0.204497 0.891748,0.317323 0.292359,0.112826 0.579829,0.232703 0.862408,0.359633 0.28258,0.126929 0.56027,0.26091 0.83307,0.401942 0.2728,0.141033 0.54071,0.289117 0.803731,0.444252 0.26302,0.155136 0.521151,0.317323 0.774391,0.486562 0.253241,0.169239 0.501592,0.34553 0.745053,0.528872 0.243462,0.183342 0.482033,0.373736 0.715714,0.571182 0.233682,0.197445 0.462474,0.401942 0.686376,0.613491 0.223902,0.211549 0.442914,0.430149 0.657036,0.655801 0.215769,0.224005 0.424796,0.453105 0.62708,0.687302 0.202284,0.234196 0.397825,0.473488 0.586623,0.717876 0.188798,0.244387 0.370854,0.493871 0.546166,0.74845 0.175313,0.254579 0.343883,0.514254 0.50571,0.779024 0.161827,0.264771 0.316911,0.534637 0.465253,0.809599 0.148341,0.274962 0.28994,0.555019 0.424796,0.840172 0.134856,0.285154 0.262969,0.575403 0.384339,0.870747 0.12137,0.295345 0.235998,0.595785 0.343883,0.901322 0.107884,0.305536 0.209026,0.616167 0.303425,0.931895 0.0944,0.315727 0.182056,0.636551 0.262969,0.962469 0.08091,0.325919 0.155084,0.656934 0.222512,0.993044 0.06743,0.33611 0.128114,0.677316 0.182056,1.023618 0.05394,0.346302 0.101142,0.697699 0.141599,1.054192 0.04046,0.356493 0.07417,0.718082 0.101141,1.084767 0.02697,0.366684 0.0472,0.738464 0.06069,1.11534 0.01348,0.376876 0.02023,0.758848 0.02023,1.145915 0,0.378832 -0.007,0.75298 -0.021,1.122444 -0.014,0.369464 -0.035,0.734244 -0.063,1.09434 -0.028,0.360096 -0.063,0.715508 -0.105002,1.066236 -0.042,0.350728 -0.091,0.696773 -0.147003,1.038133 -0.056,0.34136 -0.119003,0.678037 -0.189004,1.010029 -0.07,0.331993 -0.147004,0.659302 -0.231005,0.981926 -0.084,0.322625 -0.175004,0.640566 -0.273006,0.953823 -0.098,0.313256 -0.203005,0.621829 -0.315007,0.925718 -0.112003,0.303889 -0.231005,0.603094 -0.357008,0.897615 -0.126003,0.294522 -0.259006,0.584359 -0.399009,0.869512 -0.140003,0.285153 -0.287006,0.565623 -0.441009,0.841408 -0.154004,0.275785 -0.315007,0.546887 -0.483011,0.813305 -0.168003,0.266417 -0.343007,0.528151 -0.525011,0.785201 -0.182004,0.257049 -0.371008,0.509415 -0.567013,0.757097 -0.196004,0.247682 -0.399008,0.49068 -0.609013,0.728994 -0.210004,0.238314 -0.427009,0.471944 -0.651014,0.70089 -0.224005,0.228946 -0.452642,0.450738 -0.685912,0.665375 -0.23327,0.214637 -0.471172,0.422119 -0.713707,0.622447 -0.242534,0.200328 -0.489702,0.393501 -0.741501,0.57952 -0.2518,0.186019 -0.508232,0.364883 -0.769296,0.536593 -0.261065,0.171709 -0.526762,0.336264 -0.797091,0.493665 -0.27033,0.1574 -0.545291,0.307646 -0.824886,0.450738 -0.279594,0.143091 -0.563821,0.279028 -0.85268,0.40781 -0.288859,0.128782 -0.582351,0.25041 -0.880475,0.364883 -0.298124,0.114473 -0.600881,0.221792 -0.90827,0.321956 -0.307389,0.100163 -0.619411,0.193173 -0.936065,0.279028 -0.316654,0.08585 -0.63794,0.164555 -0.963859,0.2361 -0.325919,0.07155 -0.65647,0.135937 -0.991654,0.193174 -0.335184,0.05724 -0.675,0.107318 -1.019449,0.150246 -0.344448,0.04293 -0.693529,0.0787 -1.047243,0.107318 -0.353714,0.02862 -0.71206,0.05008 -1.075038,0.06439 -0.362979,0.01431 -0.73059,0.02146 -1.102833,0.02146 -0.426598,0 -0.846916,-0.01019 -1.260954,-0.03057 -0.414038,-0.02038 -0.821797,-0.05096 -1.223277,-0.09172 -0.401479,-0.04076 -0.796679,-0.09172 -1.185599,-0.152871 -0.38892,-0.06115 -0.771561,-0.132488 -1.147922,-0.214019 -0.376361,-0.08153 -0.746443,-0.173254 -1.110245,-0.275168 -0.363802,-0.101914 -0.721324,-0.214019 -1.072567,-0.336316 -0.351243,-0.122297 -0.696207,-0.254785 -1.034891,-0.397465 -0.338683,-0.142679 -0.671088,-0.29555 -0.997212,-0.458613 -0.326125,-0.163062 -0.64597,-0.336316 -0.959536,-0.519761 -0.313566,-0.183445 -0.620852,-0.377082 -0.921858,-0.58091 -0.301007,-0.203828 -0.595734,-0.417847 -0.884181,-0.642058 -0.288448,-0.224211 -0.570616,-0.458613 -0.846504,-0.703207 -0.275888,-0.244593 -0.545497,-0.499378 -0.808827,-0.764355 -0.263329,-0.264976 -0.520379,-0.540144 -0.771149,-0.825503 -0.25077,-0.285359 -0.49526,-0.58091 -0.733471,-0.886652 -0.238212,-0.305742 -0.470143,-0.621675 -0.695795,-0.9478 -0.225652,-0.327772 -0.444252,-0.664706 -0.655801,-1.010801 -0.211549,-0.346096 -0.416046,-0.701354 -0.613492,-1.065774 -0.197445,-0.364419 -0.387839,-0.738001 -0.571181,-1.120745 -0.183342,-0.382743 -0.359633,-0.774649 -0.528872,-1.175716 -0.169239,-0.401068 -0.331426,-0.811297 -0.486562,-1.230689 -0.155136,-0.419391 -0.30322,-0.847945 -0.444253,-1.28566 -0.141032,-0.437716 -0.275013,-0.884593 -0.401942,-1.340632 -0.126929,-0.45604 -0.246807,-0.921241 -0.359633,-1.395604 -0.112826,-0.474364 -0.2186,-0.957889 -0.317323,-1.450576 -0.09872,-0.492687 -0.190394,-0.994536 -0.275014,-1.505547 -0.08462,-0.511012 -0.162187,-1.031185 -0.232703,-1.56052 -0.07052,-0.529335 -0.133981,-1.067832 -0.190394,-1.615491 -0.05641,-0.547659 -0.105774,-1.10448 -0.148084,-1.670463 -0.04231,-0.565983 -0.07757,-1.141127 -0.105775,-1.725434 -0.02821,-0.584307 -0.04936,-1.177776 -0.06346,-1.780407 -0.0141,-0.602631 -0.02116,-1.214423 -0.02116,-1.835378 0,-0.583072 0.0086,-1.158731 0.02594,-1.726979 0.01729,-0.568248 0.04324,-1.129083 0.07783,-1.682507 0.03459,-0.553424 0.07783,-1.099436 0.129709,-1.638036 0.05188,-0.5386 0.112414,-1.069788 0.181592,-1.593564 0.06918,-0.523776 0.147003,-1.04014 0.233476,-1.549093 0.08647,-0.508952 0.181592,-1.010492 0.285359,-1.504621 0.103767,-0.494128 0.216181,-0.980845 0.337242,-1.460149 0.121062,-0.479305 0.250771,-0.951197 0.389126,-1.415678 0.138356,-0.464481 0.28536,-0.921549 0.44101,-1.371206 0.155651,-0.449657 0.319948,-0.891902 0.492893,-1.326735 0.172945,-0.434833 0.354537,-0.862254 0.544777,-1.282263 0.190239,-0.420009 0.389126,-0.832607 0.59666,-1.237792 0.207534,-0.405185 0.423715,-0.802959 0.648543,-1.19332 0.224829,-0.390362 0.458305,-0.773311 0.700427,-1.148849 0.242123,-0.375537 0.492894,-0.743663 0.752311,-1.104377 0.259417,-0.360713 0.527482,-0.714015 0.804194,-1.059905 0.276712,-0.347537 0.559343,-0.684213 0.847893,-1.010029 0.288551,-0.325816 0.583021,-0.640772 0.883409,-0.944867 0.300389,-0.304094 0.606698,-0.597329 0.918925,-0.879703 0.312227,-0.282373 0.630374,-0.553887 0.95444,-0.814539 0.324066,-0.260653 0.654051,-0.510445 0.989955,-0.749377 0.335905,-0.238932 0.677728,-0.467003 1.025471,-0.684214 0.347743,-0.21721 0.701405,-0.42356 1.060987,-0.61905 0.359581,-0.195489 0.725082,-0.380118 1.096501,-0.553887 0.37142,-0.173768 0.748759,-0.336676 1.132018,-0.488724 0.383258,-0.152047 0.772436,-0.293234 1.167533,-0.423561 0.395097,-0.130326 0.796113,-0.249792 1.203048,-0.358397 0.406935,-0.108605 0.81979,-0.20635 1.238564,-0.293234 0.418774,-0.08689 0.843467,-0.162908 1.274079,-0.228072 0.430613,-0.06516 0.867144,-0.119465 1.309595,-0.162908 0.442451,-0.04344 0.890821,-0.07602 1.34511,-0.09774 0.45429,-0.02172 0.914498,-0.03258 1.380626,-0.03258 0.125179,0 0.25041,7.72e-4 0.375692,0.0023 0.125282,0.0015 0.250616,0.0039 0.376001,0.0069 0.125385,0.0031 0.250821,0.0069 0.376309,0.01158 0.125488,0.0046 0.251028,0.01004 0.376619,0.01621 0.125591,0.0062 0.251233,0.01313 0.376927,0.02085 0.125694,0.0077 0.251439,0.01621 0.377236,0.02548 0.125797,0.0093 0.251645,0.0193 0.377545,0.03011 0.1259,0.01081 0.251851,0.02239 0.377854,0.03474 0.126002,0.01235 0.252057,0.02548 0.378162,0.03937 0.126106,0.0139 0.252263,0.02857 0.378472,0.04401 0.126208,0.01544 0.252469,0.03166 0.37878,0.04864 0.126312,0.01699 0.252675,0.03474 0.379089,0.05327 0.126415,0.01853 0.252881,0.03783 0.379398,0.0579 0.126518,0.02007 0.253087,0.04092 0.379707,0.06254 0.12662,0.02162 0.253292,0.04401 0.380016,0.06717 0.126723,0.02316 0.253498,0.0471 0.380324,0.0718 0.128473,0.02471 0.257256,0.05019 0.386347,0.07644 0.129091,0.02625 0.258491,0.05327 0.388199,0.08107 0.129709,0.02779 0.259727,0.05636 0.390053,0.0857 0.130327,0.02934 0.260962,0.05945 0.391906,0.09033 0.130944,0.03088 0.262197,0.06254 0.393758,0.09497 0.131562,0.03243 0.263433,0.06563 0.395612,0.0996 0.132179,0.03397 0.264668,0.06871 0.397465,0.10423 0.132797,0.03552 0.265903,0.0718 0.399317,0.108863 0.133415,0.03706 0.267138,0.07489 0.401171,0.113495 0.134032,0.0386 0.268373,0.07798 0.403023,0.118127 0.13465,0.04015 0.269609,0.08107 0.404877,0.12276 0.135267,0.04169 0.270844,0.08416 0.406729,0.127393 0.135886,0.04324 0.27208,0.08724 0.408583,0.132025 0.136503,0.04478 0.273315,0.09033 0.410435,0.136657 0.137121,0.04632 0.27455,0.09342 0.412289,0.14129 0.137738,0.04787 0.275785,0.09651 0.414141,0.145922 z"
       id="text1"
       aria-label="6"
       sodipodi:nodetypes="sssssssssssssssscssssssssssssssssssssssssssssssscssssssssssssssssssssssssssssssscssssssssssssssssssssssssssssssscsssssssssssssssscccccccccccccccccssssssssssssssscssssssssssssssssssssssssssssssscssssssssssssssscssssssssssssssscssssssssssssssssssssssssssssssscssssssssssssssssssssssssssssssssssssssssssssssssssssssssssssssscssssssssssssssssssssssssssssssscssssssssssssssssssssssssssssssscsssssssssssssssc" />
  </g>
</svg>
