<?xml version="1.0" encoding="UTF-8" standalone="no"?>
<!-- Created with Inkscape (http://www.inkscape.org/) -->

<svg
   width="50.040989"
   height="70.79438"
   viewBox="0 0 50.04099 70.794383"
   version="1.1"
   id="svg1"
   inkscape:version="1.4 (e7c3feb100, 2024-10-09)"
   sodipodi:docname="8.svg"
   inkscape:export-filename="9.png"
   inkscape:export-xdpi="96"
   inkscape:export-ydpi="96"
   xmlns:inkscape="http://www.inkscape.org/namespaces/inkscape"
   xmlns:sodipodi="http://sodipodi.sourceforge.net/DTD/sodipodi-0.dtd"
   xmlns="http://www.w3.org/2000/svg"
   xmlns:svg="http://www.w3.org/2000/svg">
  <sodipodi:namedview
     id="namedview1"
     pagecolor="#ffffff"
     bordercolor="#cccccc"
     borderopacity="1"
     inkscape:showpageshadow="0"
     inkscape:pageopacity="1"
     inkscape:pagecheckerboard="true"
     inkscape:deskcolor="#d1d1d1"
     inkscape:document-units="mm"
     inkscape:zoom="2.0812827"
     inkscape:cx="386.54047"
     inkscape:cy="54.773914"
     inkscape:window-width="2752"
     inkscape:window-height="1086"
     inkscape:window-x="0"
     inkscape:window-y="0"
     inkscape:window-maximized="1"
     inkscape:current-layer="layer1" />
  <defs
     id="defs1" />
  <g
     inkscape:label="Layer 1"
     inkscape:groupmode="layer"
     id="layer1"
     transform="translate(-10.979506,-6.6028075)">
    <path
       style="font-size:80.958px;font-family:'DejaVu Sans';-inkscape-font-specification:'DejaVu Sans';fill:none;stroke:#000000;stroke-width:9.56199;stroke-linecap:round"
       d="m 36.000001,43.442854 c -0.237182,0 -0.471223,0.004 -0.702126,0.01189 -0.230902,0.0079 -0.458664,0.01982 -0.683286,0.03567 -0.224623,0.01585 -0.446106,0.03567 -0.664449,0.05945 -0.218343,0.02378 -0.433546,0.05152 -0.645609,0.08323 -0.212064,0.03171 -0.420987,0.06738 -0.626771,0.10701 -0.205784,0.03963 -0.408428,0.08323 -0.607933,0.13079 -0.199504,0.04756 -0.395869,0.09908 -0.589093,0.154569 -0.193225,0.05549 -0.38331,0.114937 -0.570255,0.17835 -0.186946,0.06341 -0.370751,0.130789 -0.551417,0.202129 -0.180666,0.07134 -0.358192,0.146643 -0.532578,0.225909 -0.174386,0.07927 -0.345632,0.162497 -0.513739,0.24969 -0.168106,0.08719 -0.333073,0.178349 -0.4949,0.273469 -0.161827,0.09512 -0.320515,0.194203 -0.476062,0.297249 -0.155548,0.103046 -0.307956,0.210056 -0.457223,0.321029 -0.149268,0.110973 -0.295397,0.225909 -0.438385,0.344809 -0.142988,0.1189 -0.282837,0.241763 -0.419546,0.368589 -0.135062,0.126826 -0.265903,0.256638 -0.392523,0.389435 -0.126621,0.132797 -0.249021,0.268579 -0.3672,0.407347 -0.118179,0.138768 -0.232137,0.280521 -0.341875,0.425259 -0.109737,0.144739 -0.215254,0.292463 -0.316551,0.443172 -0.101296,0.150709 -0.198372,0.304403 -0.291227,0.461083 -0.09286,0.15668 -0.181489,0.316345 -0.265903,0.478996 -0.08441,0.162651 -0.164606,0.328287 -0.240579,0.496908 -0.07597,0.168621 -0.147723,0.340228 -0.215254,0.51482 -0.06753,0.174592 -0.130841,0.352169 -0.189931,0.532732 -0.05909,0.180563 -0.113958,0.364111 -0.164606,0.550645 -0.05065,0.186533 -0.09708,0.376052 -0.139283,0.568556 -0.04221,0.192504 -0.08019,0.387994 -0.113958,0.586469 -0.03377,0.198475 -0.06331,0.399935 -0.08864,0.604381 -0.02532,0.204445 -0.04643,0.411876 -0.06331,0.622293 -0.01688,0.210416 -0.02954,0.423818 -0.03799,0.640205 -0.0084,0.216387 -0.01266,0.435759 -0.01266,0.658117 0,0.222358 0.0042,0.44173 0.01266,0.658117 0.0084,0.216387 0.0211,0.429789 0.03799,0.640205 0.01688,0.210417 0.03799,0.417848 0.06331,0.622293 0.02532,0.204446 0.05487,0.405906 0.08864,0.604381 0.03376,0.198475 0.07175,0.393965 0.113958,0.586469 0.04221,0.192504 0.08863,0.382023 0.139283,0.568556 0.05065,0.186534 0.105517,0.370082 0.164606,0.550645 0.05909,0.180563 0.1224,0.35814 0.189931,0.532732 0.06753,0.174592 0.139282,0.346199 0.215254,0.51482 0.07597,0.168621 0.156166,0.334257 0.240579,0.496908 0.08441,0.162651 0.173048,0.322316 0.265903,0.478996 0.09286,0.15668 0.189931,0.310374 0.291227,0.461083 0.101297,0.150709 0.206814,0.298433 0.316551,0.443172 0.109738,0.144738 0.223696,0.286491 0.341875,0.425259 0.118179,0.138768 0.240579,0.27455 0.3672,0.407347 0.12662,0.132797 0.257461,0.262609 0.392523,0.389435 0.136709,0.126826 0.276558,0.249689 0.419546,0.368589 0.142988,0.1189 0.289117,0.233836 0.438385,0.344809 0.149267,0.110973 0.301675,0.217983 0.457223,0.321029 0.155547,0.103046 0.314235,0.202129 0.476062,0.297249 0.161827,0.09512 0.326794,0.186276 0.4949,0.273469 0.168107,0.08719 0.339353,0.170423 0.513739,0.24969 0.174386,0.07927 0.351912,0.154569 0.532578,0.225909 0.180666,0.07134 0.364471,0.138716 0.551417,0.202129 0.186945,0.06341 0.37703,0.122863 0.570255,0.17835 0.193224,0.05549 0.389589,0.107009 0.589093,0.154569 0.199505,0.04756 0.402149,0.09116 0.607933,0.13079 0.205784,0.03963 0.414707,0.0753 0.626771,0.10701 0.212063,0.03171 0.427266,0.05945 0.645609,0.08323 0.218343,0.02378 0.439826,0.0436 0.664449,0.05945 0.224622,0.01585 0.452384,0.02774 0.683286,0.03567 0.230903,0.0079 0.464944,0.01189 0.702126,0.01189 0.237182,0 0.471223,-0.004 0.702126,-0.01189 0.230902,-0.0079 0.458664,-0.01982 0.683286,-0.03567 0.224623,-0.01585 0.446106,-0.03567 0.664449,-0.05945 0.218343,-0.02378 0.433546,-0.05152 0.645609,-0.08323 0.212064,-0.03171 0.420987,-0.06738 0.626771,-0.10701 0.205784,-0.03963 0.408428,-0.08323 0.607933,-0.13079 0.199504,-0.04756 0.395869,-0.09908 0.589093,-0.154569 0.193225,-0.05549 0.38331,-0.114937 0.570256,-0.17835 0.186945,-0.06341 0.37075,-0.130789 0.551416,-0.202129 0.180666,-0.07134 0.358192,-0.146643 0.532578,-0.225909 0.174386,-0.07927 0.345632,-0.162497 0.513739,-0.24969 0.168106,-0.08719 0.333073,-0.178349 0.4949,-0.273469 0.161827,-0.09512 0.320515,-0.194203 0.476062,-0.297249 0.155548,-0.103046 0.307956,-0.210056 0.457223,-0.321029 0.149268,-0.110973 0.295397,-0.225909 0.438385,-0.344809 0.142988,-0.1189 0.282837,-0.241763 0.419546,-0.368589 0.136709,-0.128473 0.269146,-0.259829 0.39731,-0.394067 0.128165,-0.134239 0.252057,-0.271359 0.371677,-0.411362 0.119621,-0.140003 0.234969,-0.282889 0.346045,-0.428657 0.111076,-0.145768 0.21788,-0.294418 0.320411,-0.445951 0.102532,-0.151532 0.200791,-0.305947 0.294779,-0.463245 0.09399,-0.157297 0.183702,-0.317477 0.269145,-0.48054 0.08544,-0.163062 0.166614,-0.329007 0.243513,-0.497834 0.0769,-0.168827 0.149525,-0.340537 0.21788,-0.515129 0.06835,-0.174592 0.132436,-0.352067 0.192247,-0.532423 0.05981,-0.180357 0.115348,-0.363597 0.166614,-0.549718 0.05127,-0.186122 0.09826,-0.375126 0.140981,-0.567013 0.04272,-0.191886 0.08117,-0.386655 0.115348,-0.584307 0.03418,-0.197651 0.06408,-0.398185 0.08971,-0.601601 0.02563,-0.203416 0.04699,-0.409715 0.06408,-0.618896 0.01709,-0.209181 0.0299,-0.421244 0.03845,-0.63619 0.0085,-0.214946 0.01282,-0.432774 0.01282,-0.653485 0,-0.222358 -0.0043,-0.44173 -0.01282,-0.658117 -0.0085,-0.216387 -0.02136,-0.429789 -0.03845,-0.640205 -0.01709,-0.210417 -0.03845,-0.417848 -0.06408,-0.622293 -0.02563,-0.204446 -0.05554,-0.405906 -0.08971,-0.604381 -0.03418,-0.198475 -0.07263,-0.393965 -0.115348,-0.586469 -0.04272,-0.192504 -0.08972,-0.382023 -0.140981,-0.568556 -0.05127,-0.186534 -0.106804,-0.370082 -0.166614,-0.550645 -0.05981,-0.180563 -0.123893,-0.35814 -0.192247,-0.532732 -0.06836,-0.174592 -0.140981,-0.346199 -0.21788,-0.51482 -0.0769,-0.168621 -0.15807,-0.334257 -0.243513,-0.496908 -0.08544,-0.162651 -0.175158,-0.322316 -0.269145,-0.478996 -0.09399,-0.15668 -0.192247,-0.310374 -0.294779,-0.461083 -0.102531,-0.150709 -0.209335,-0.298433 -0.320411,-0.443172 -0.111076,-0.144738 -0.226424,-0.286491 -0.346045,-0.425259 -0.11962,-0.138768 -0.243512,-0.27455 -0.371677,-0.407347 -0.128164,-0.132797 -0.260601,-0.262609 -0.39731,-0.389435 -0.135062,-0.126826 -0.273366,-0.249689 -0.414913,-0.368589 -0.141548,-0.1189 -0.286337,-0.233836 -0.43437,-0.344809 -0.148033,-0.110973 -0.299308,-0.217983 -0.453826,-0.321029 -0.154518,-0.103046 -0.312279,-0.202129 -0.473282,-0.297249 -0.161004,-0.09512 -0.32525,-0.186276 -0.492739,-0.273469 -0.167489,-0.08719 -0.338221,-0.170423 -0.512195,-0.24969 -0.173975,-0.07927 -0.351192,-0.154569 -0.531651,-0.225909 -0.18046,-0.07134 -0.364163,-0.138716 -0.551108,-0.202129 -0.186945,-0.06341 -0.377133,-0.122863 -0.570564,-0.17835 -0.193431,-0.05549 -0.390104,-0.107009 -0.59002,-0.154569 -0.199916,-0.04756 -0.403075,-0.09116 -0.609477,-0.13079 -0.206401,-0.03963 -0.416045,-0.0753 -0.628933,-0.10701 -0.212886,-0.03171 -0.429016,-0.05945 -0.648389,-0.08323 -0.219372,-0.02378 -0.441987,-0.0436 -0.667845,-0.05945 -0.225858,-0.01585 -0.454959,-0.02774 -0.687302,-0.03567 -0.232343,-0.0079 -0.467929,-0.01189 -0.706758,-0.01189 z m -7.985115,-3.399603 c -0.214122,-0.05271 -0.425311,-0.108348 -0.633565,-0.166923 -0.208255,-0.05857 -0.413576,-0.120083 -0.615962,-0.184526 -0.202387,-0.06444 -0.40184,-0.131819 -0.598359,-0.202129 -0.196519,-0.07031 -0.390104,-0.143555 -0.580755,-0.219733 -0.190652,-0.07618 -0.378369,-0.15529 -0.563152,-0.237336 -0.184784,-0.08205 -0.366633,-0.167026 -0.545549,-0.25494 -0.178916,-0.08791 -0.354898,-0.178761 -0.527945,-0.272542 -0.173048,-0.09378 -0.343162,-0.190497 -0.510343,-0.290146 -0.16718,-0.09965 -0.331426,-0.202233 -0.492738,-0.30775 -0.161313,-0.105517 -0.319691,-0.213967 -0.475136,-0.325352 -0.155444,-0.111385 -0.307955,-0.225704 -0.457532,-0.342956 -0.149576,-0.117253 -0.296219,-0.237439 -0.439928,-0.36056 -0.143709,-0.12312 -0.284485,-0.249174 -0.422326,-0.378162 -0.137841,-0.128988 -0.272748,-0.26091 -0.404722,-0.395766 -0.131973,-0.134856 -0.261013,-0.272646 -0.387119,-0.413369 -0.126105,-0.140724 -0.249277,-0.284382 -0.369515,-0.430973 -0.118591,-0.146591 -0.233476,-0.29519 -0.344655,-0.445797 -0.111179,-0.150606 -0.218651,-0.303219 -0.322418,-0.457841 -0.103767,-0.154621 -0.203828,-0.311249 -0.300183,-0.469885 -0.09636,-0.158636 -0.189005,-0.319279 -0.277948,-0.48193 -0.08894,-0.16265 -0.17418,-0.327308 -0.255711,-0.493974 -0.08153,-0.166665 -0.159357,-0.335338 -0.233476,-0.506018 -0.07412,-0.17068 -0.144533,-0.343368 -0.21124,-0.518063 -0.06671,-0.174695 -0.129709,-0.351397 -0.189004,-0.530107 -0.0593,-0.17871 -0.114885,-0.359427 -0.166768,-0.542152 -0.05188,-0.182724 -0.100061,-0.367456 -0.144533,-0.554196 -0.04447,-0.186739 -0.08524,-0.375486 -0.122297,-0.56624 -0.03706,-0.190754 -0.07041,-0.383516 -0.100061,-0.578285 -0.02965,-0.194768 -0.05559,-0.391545 -0.07783,-0.590329 -0.02224,-0.198783 -0.04077,-0.399574 -0.05559,-0.602373 -0.01482,-0.202799 -0.02594,-0.407604 -0.03335,-0.614418 -0.0074,-0.206813 -0.01112,-0.415634 -0.01112,-0.626462 0,-0.29483 0.0065,-0.5858 0.01961,-0.872909 0.01307,-0.287109 0.03268,-0.570358 0.05883,-0.849746 0.02615,-0.279389 0.05883,-0.554917 0.09805,-0.826584 0.03922,-0.271668 0.08498,-0.539475 0.137275,-0.803422 0.0523,-0.263947 0.111127,-0.524034 0.176496,-0.78026 0.06537,-0.256226 0.137275,-0.508592 0.215718,-0.757097 0.07844,-0.248506 0.163423,-0.493151 0.254939,-0.733935 0.09152,-0.240785 0.189571,-0.477709 0.294161,-0.710773 0.104591,-0.233064 0.215718,-0.462268 0.333383,-0.687611 0.117664,-0.225343 0.241865,-0.446826 0.372603,-0.664448 0.130738,-0.217622 0.268013,-0.431384 0.411825,-0.641286 0.143812,-0.209902 0.294161,-0.415943 0.451047,-0.618124 0.156886,-0.202181 0.320309,-0.400501 0.490268,-0.594961 0.16996,-0.19446 0.346456,-0.38506 0.52949,-0.571799 0.183033,-0.18674 0.372603,-0.369619 0.568711,-0.548637 0.196107,-0.179019 0.398751,-0.354177 0.607932,-0.525475 0.210828,-0.171298 0.426495,-0.337243 0.646999,-0.497834 0.220505,-0.160592 0.445848,-0.315831 0.67603,-0.465717 0.230181,-0.149885 0.465201,-0.294418 0.705059,-0.433597 0.239859,-0.13918 0.484555,-0.273006 0.73409,-0.40148 0.249535,-0.128473 0.503908,-0.251593 0.763119,-0.369361 0.259212,-0.117767 0.523262,-0.230181 0.79215,-0.337242 0.268888,-0.107062 0.542615,-0.20877 0.82118,-0.305125 0.278565,-0.09635 0.561968,-0.187357 0.850209,-0.273006 0.288242,-0.08565 0.581322,-0.165945 0.87924,-0.240887 0.297919,-0.07494 0.600675,-0.144533 0.90827,-0.20877 0.307595,-0.06424 0.620028,-0.12312 0.9373,-0.176651 0.317272,-0.05353 0.639382,-0.101708 0.96633,-0.144532 0.326948,-0.04282 0.658735,-0.0803 0.99536,-0.112414 0.336625,-0.03212 0.678088,-0.05888 1.02439,-0.0803 0.346302,-0.02141 0.697442,-0.03747 1.05342,-0.04818 0.355978,-0.01071 0.716795,-0.01606 1.08245,-0.01606 0.367302,0 0.729663,0.0054 1.087083,0.01606 0.357419,0.01071 0.709897,0.02677 1.057434,0.04818 0.347537,0.02141 0.690133,0.04818 1.027787,0.0803 0.337655,0.03212 0.670368,0.06959 0.99814,0.112414 0.327772,0.04282 0.650602,0.091 0.968492,0.144532 0.317889,0.05353 0.630837,0.112415 0.938844,0.176651 0.308006,0.06424 0.611072,0.133827 0.909196,0.20877 0.298124,0.07494 0.591307,0.155238 0.879549,0.240887 0.288241,0.08565 0.571541,0.176651 0.8499,0.273006 0.278359,0.09636 0.551777,0.198063 0.820254,0.305125 0.268476,0.107061 0.532011,0.219475 0.790605,0.337242 0.258594,0.117768 0.512247,0.240888 0.760958,0.369361 0.248711,0.128474 0.492481,0.2623 0.73131,0.40148 0.238829,0.139179 0.472716,0.283712 0.701662,0.433597 0.228947,0.149886 0.452951,0.305125 0.672015,0.465717 0.219064,0.160591 0.433186,0.326536 0.642367,0.497834 0.209181,0.171298 0.411825,0.346456 0.607932,0.525475 0.196107,0.179018 0.385678,0.361897 0.568711,0.548637 0.183033,0.186739 0.35953,0.377339 0.52949,0.571799 0.169959,0.19446 0.333382,0.39278 0.490267,0.594961 0.156886,0.202181 0.307235,0.408222 0.451047,0.618124 0.143812,0.209902 0.281087,0.423664 0.411825,0.641286 0.130738,0.217622 0.254939,0.439105 0.372604,0.664448 0.117664,0.225343 0.228791,0.454547 0.333382,0.687611 0.10459,0.233064 0.202644,0.469988 0.294161,0.710773 0.09152,0.240784 0.176496,0.485429 0.254939,0.733935 0.07844,0.248505 0.150349,0.500871 0.215718,0.757097 0.06537,0.256226 0.124201,0.516313 0.176496,0.78026 0.0523,0.263947 0.09805,0.531754 0.137276,0.803422 0.03922,0.271667 0.07191,0.547195 0.09805,0.826584 0.02615,0.279388 0.04576,0.562637 0.05883,0.849746 0.01307,0.287109 0.01961,0.578079 0.01961,0.872909 0,0.210828 -0.0038,0.419649 -0.01127,0.626462 -0.0075,0.206814 -0.01879,0.411619 -0.03382,0.614418 -0.01503,0.202799 -0.03382,0.40359 -0.05636,0.602373 -0.02254,0.198784 -0.04885,0.395561 -0.07891,0.590329 -0.03006,0.194769 -0.06388,0.387531 -0.101451,0.578285 -0.03757,0.190754 -0.07891,0.379501 -0.123995,0.56624 -0.04509,0.18674 -0.09394,0.371472 -0.14654,0.554196 -0.0526,0.182725 -0.108966,0.363442 -0.169084,0.542152 -0.06012,0.17871 -0.123996,0.355412 -0.19163,0.530107 -0.06763,0.174695 -0.139025,0.347383 -0.214173,0.518063 -0.07515,0.17068 -0.154055,0.339353 -0.236719,0.506018 -0.08266,0.166666 -0.169084,0.331324 -0.259263,0.493974 -0.09018,0.162651 -0.184114,0.323294 -0.281807,0.48193 -0.09769,0.158636 -0.199145,0.315264 -0.304353,0.469885 -0.105208,0.154622 -0.214174,0.307235 -0.326897,0.457841 -0.112723,0.150607 -0.229203,0.299206 -0.349441,0.445797 -0.118591,0.146591 -0.240115,0.290249 -0.364574,0.430973 -0.124459,0.140723 -0.251851,0.278513 -0.382177,0.413369 -0.130327,0.134856 -0.263587,0.266778 -0.399781,0.395766 -0.136194,0.128988 -0.275322,0.255042 -0.417384,0.378162 -0.142062,0.123121 -0.287058,0.243307 -0.434988,0.36056 -0.147929,0.117252 -0.298793,0.231571 -0.45259,0.342956 -0.153798,0.111385 -0.310529,0.219835 -0.470194,0.325352 -0.159666,0.105517 -0.322265,0.208101 -0.487798,0.30775 -0.165533,0.09965 -0.334,0.196364 -0.5054,0.290146 -0.171401,0.09378 -0.345736,0.184629 -0.523005,0.272542 -0.177268,0.08791 -0.357471,0.172894 -0.540607,0.25494 -0.183136,0.08205 -0.369207,0.161158 -0.558211,0.237336 -0.189004,0.07618 -0.380942,0.149422 -0.575814,0.219733 -0.194872,0.07031 -0.392677,0.137687 -0.593417,0.202129 -0.20074,0.06444 -0.404413,0.125951 -0.611021,0.184526 -0.206607,0.05857 -0.416149,0.114216 -0.628624,0.166923 0.240476,0.056 0.477606,0.115348 0.711391,0.178041 0.233784,0.06269 0.464223,0.12873 0.691316,0.198114 0.227093,0.06938 0.450841,0.142114 0.671243,0.218189 0.220402,0.07608 0.437458,0.155496 0.651168,0.238262 0.213711,0.08277 0.424076,0.168879 0.631095,0.258337 0.207019,0.08946 0.410693,0.182261 0.611021,0.27841 0.200328,0.09615 0.39731,0.195644 0.590946,0.298485 0.193637,0.10284 0.383928,0.209026 0.570873,0.318558 0.186946,0.109532 0.370545,0.222409 0.550799,0.338632 0.180254,0.116223 0.357162,0.235792 0.530725,0.358707 0.173563,0.122914 0.34378,0.249174 0.510651,0.37878 0.166871,0.129606 0.330397,0.262557 0.490577,0.398854 0.16018,0.136297 0.317014,0.27594 0.470503,0.418928 0.153488,0.142989 0.303631,0.289323 0.450429,0.439003 0.146797,0.149679 0.290249,0.302705 0.430355,0.459076 0.140106,0.156371 0.276866,0.316088 0.410281,0.47915 0.135062,0.163062 0.265903,0.32839 0.392523,0.495981 0.126621,0.167592 0.24902,0.337449 0.367199,0.50957 0.118179,0.172122 0.232138,0.346508 0.341875,0.523159 0.109738,0.176651 0.215255,0.355566 0.316551,0.536747 0.101297,0.18118 0.198372,0.364625 0.291227,0.550335 0.09286,0.18571 0.181489,0.373685 0.265903,0.563924 0.08441,0.19024 0.164607,0.382744 0.240579,0.577513 0.07597,0.194769 0.147724,0.391803 0.215254,0.591101 0.06753,0.199298 0.130842,0.400862 0.189931,0.60469 0.05909,0.203828 0.113958,0.40992 0.164607,0.618278 0.05065,0.208357 0.09708,0.41898 0.139282,0.631867 0.04221,0.212887 0.08019,0.428038 0.113958,0.645455 0.03377,0.217416 0.06331,0.437098 0.08864,0.659044 0.02532,0.221946 0.04643,0.446156 0.06331,0.672632 0.01688,0.226475 0.02954,0.455216 0.03799,0.686221 0.0084,0.231005 0.01266,0.464274 0.01266,0.699809 0,0.35742 -0.0068,0.709641 -0.02054,1.056663 -0.01369,0.347022 -0.03423,0.688846 -0.06161,1.025471 -0.02738,0.336625 -0.06161,0.668051 -0.102686,0.994279 -0.04107,0.326228 -0.08899,0.647257 -0.14376,0.963087 -0.05477,0.31583 -0.116378,0.626462 -0.184835,0.931895 -0.06846,0.305434 -0.143761,0.605668 -0.22591,0.900704 -0.08215,0.295036 -0.171143,0.584873 -0.266983,0.869512 -0.09584,0.284638 -0.198527,0.564078 -0.308058,0.838319 -0.109532,0.274242 -0.22591,0.543284 -0.349133,0.807128 -0.123223,0.263844 -0.253292,0.522489 -0.390207,0.775936 -0.136915,0.253447 -0.280675,0.501695 -0.431282,0.744744 -0.150606,0.24305 -0.308058,0.4809 -0.472355,0.713553 -0.164298,0.232652 -0.335441,0.460105 -0.513431,0.68236 -0.177989,0.222255 -0.362824,0.439311 -0.554504,0.651169 -0.191681,0.211857 -0.390207,0.418516 -0.595579,0.619976 -0.205373,0.20146 -0.41759,0.397722 -0.636654,0.588785 -0.217417,0.191063 -0.440752,0.376155 -0.670007,0.555277 -0.229255,0.179121 -0.46443,0.352272 -0.705523,0.519452 -0.241094,0.16718 -0.488106,0.32839 -0.741038,0.483629 -0.252932,0.155238 -0.511784,0.304506 -0.776554,0.447804 -0.264771,0.143297 -0.53546,0.280623 -0.812069,0.411979 -0.276609,0.131356 -0.559138,0.256741 -0.847585,0.376155 -0.288448,0.119415 -0.582814,0.232858 -0.8831,0.340331 -0.300286,0.107473 -0.606492,0.208976 -0.918616,0.304507 -0.312124,0.09553 -0.630168,0.185092 -0.954131,0.268682 -0.323963,0.08359 -0.653845,0.16121 -0.989647,0.232858 -0.335801,0.07165 -0.677522,0.137327 -1.025162,0.197034 -0.34764,0.05971 -0.701199,0.113444 -1.060677,0.16121 -0.359479,0.04777 -0.724876,0.08956 -1.096193,0.125385 -0.371317,0.03582 -0.748553,0.06568 -1.131709,0.08956 -0.383155,0.02388 -0.77223,0.0418 -1.167224,0.05374 -0.394993,0.01194 -0.795907,0.01791 -1.202739,0.01791 -0.406832,0 -0.807797,-0.006 -1.202894,-0.01791 -0.395097,-0.01194 -0.784326,-0.02985 -1.167687,-0.05374 -0.383361,-0.02388 -0.760855,-0.05374 -1.132481,-0.08956 -0.371626,-0.03583 -0.737384,-0.07762 -1.097274,-0.125385 -0.35989,-0.04777 -0.713912,-0.101503 -1.062067,-0.16121 -0.348155,-0.05971 -0.690442,-0.125385 -1.026861,-0.197034 C 28.974318,71.89971 28.643767,71.82209 28.319083,71.7385 27.9944,71.65491 27.675584,71.565349 27.362636,71.469818 27.049688,71.374287 26.742608,71.272784 26.441395,71.165311 26.140183,71.057838 25.844838,70.944395 25.555361,70.82498 25.265884,70.705566 24.982275,70.580181 24.704534,70.448825 24.426793,70.317469 24.154919,70.180143 23.888913,70.036846 23.622907,69.893548 23.362769,69.74428 23.108499,69.589042 22.854229,69.433803 22.605826,69.272593 22.363292,69.105413 22.120757,68.938233 21.88409,68.765082 21.653291,68.585961 21.422492,68.406839 21.197561,68.221747 20.978497,68.030684 20.76108,67.839621 20.550458,67.643359 20.34663,67.441899 20.142802,67.240439 19.945769,67.03378 19.755529,66.821923 19.56529,66.610065 19.381845,66.393009 19.205194,66.170754 c -0.176651,-0.222255 -0.346508,-0.449708 -0.50957,-0.68236 -0.163063,-0.232653 -0.319331,-0.470503 -0.468805,-0.713553 -0.149473,-0.243049 -0.292153,-0.491297 -0.428038,-0.744744 -0.135886,-0.253447 -0.264977,-0.512092 -0.387273,-0.775936 -0.122297,-0.263844 -0.2378,-0.532886 -0.346508,-0.807128 -0.108708,-0.274241 -0.210622,-0.553681 -0.305742,-0.838319 -0.09512,-0.284639 -0.183445,-0.574476 -0.264976,-0.869512 -0.08153,-0.295036 -0.156268,-0.59527 -0.224211,-0.900704 -0.06794,-0.305433 -0.129091,-0.616065 -0.183445,-0.931895 -0.05435,-0.31583 -0.101914,-0.636859 -0.14268,-0.963087 -0.04077,-0.326228 -0.07474,-0.657654 -0.101914,-0.994279 -0.02718,-0.336625 -0.04756,-0.678449 -0.06115,-1.025471 -0.01359,-0.347022 -0.02038,-0.699243 -0.02038,-1.056663 0,-0.235535 0.0042,-0.468804 0.01266,-0.699809 0.0084,-0.231005 0.0211,-0.459746 0.03799,-0.686221 0.01688,-0.226476 0.03799,-0.450686 0.06331,-0.672632 0.02532,-0.221946 0.05487,-0.441628 0.08864,-0.659044 0.03377,-0.217417 0.07175,-0.432568 0.113958,-0.645455 0.04221,-0.212887 0.08863,-0.42351 0.139282,-0.631867 0.05065,-0.208358 0.105517,-0.41445 0.164607,-0.618278 0.05909,-0.203828 0.1224,-0.405392 0.18993,-0.60469 0.06753,-0.199298 0.139283,-0.396332 0.215255,-0.591101 0.07597,-0.194769 0.156165,-0.387273 0.240579,-0.577513 0.08441,-0.190239 0.173048,-0.378214 0.265903,-0.563924 0.09286,-0.18571 0.18993,-0.369155 0.291227,-0.550335 0.101296,-0.181181 0.206813,-0.360096 0.316551,-0.536747 0.109737,-0.176651 0.223696,-0.351037 0.341875,-0.523159 0.118179,-0.172121 0.240578,-0.341978 0.367199,-0.50957 0.12662,-0.167591 0.257461,-0.332919 0.392523,-0.495981 0.135062,-0.163062 0.273418,-0.322779 0.415068,-0.47915 0.14165,-0.156371 0.286594,-0.309397 0.434833,-0.459076 0.148238,-0.14968 0.299771,-0.296014 0.454598,-0.439003 0.154827,-0.142988 0.312948,-0.282631 0.474363,-0.418928 0.161416,-0.136297 0.326125,-0.269248 0.494129,-0.398854 0.168004,-0.129606 0.339301,-0.255866 0.513893,-0.37878 0.174593,-0.122915 0.352479,-0.242484 0.533659,-0.358707 0.181181,-0.116223 0.365655,-0.2291 0.553424,-0.338632 0.187769,-0.109532 0.378832,-0.215718 0.573189,-0.318558 0.194357,-0.102841 0.392009,-0.202336 0.592954,-0.298485 0.200946,-0.09615 0.405186,-0.188953 0.61272,-0.27841 0.207534,-0.08946 0.418362,-0.17557 0.632484,-0.258337 0.214122,-0.08277 0.431539,-0.162187 0.65225,-0.238262 0.22071,-0.07607 0.444715,-0.148805 0.672014,-0.218189 0.227299,-0.06938 0.457893,-0.135422 0.69178,-0.198114 0.233888,-0.06269 0.471069,-0.12204 0.711545,-0.178041 z M 25.089645,27.433093 c 0,0.191063 0.0037,0.379501 0.01112,0.565314 0.0074,0.185813 0.01853,0.369001 0.03335,0.549563 0.01482,0.180563 0.03335,0.358501 0.05559,0.533813 0.02224,0.175313 0.04818,0.348001 0.07783,0.518063 0.02965,0.170063 0.063,0.3375 0.100061,0.502313 0.03706,0.164812 0.07783,0.326999 0.122297,0.486562 0.04447,0.159562 0.09265,0.316499 0.144533,0.470812 0.05188,0.154312 0.107473,0.305999 0.166768,0.455061 0.0593,0.149062 0.122297,0.295499 0.189004,0.439311 0.06671,0.143812 0.137121,0.284999 0.21124,0.423561 0.07412,0.138562 0.151945,0.274498 0.233476,0.40781 0.08153,0.133312 0.166768,0.263999 0.255711,0.39206 0.08894,0.128062 0.181592,0.253498 0.277948,0.37631 0.09636,0.122811 0.196416,0.242998 0.300183,0.360559 0.103767,0.117562 0.211239,0.232498 0.322418,0.344809 0.111179,0.112312 0.226064,0.221998 0.344655,0.329059 0.120238,0.107061 0.243461,0.210777 0.36967,0.311147 0.126208,0.100369 0.255402,0.197394 0.387582,0.291072 0.132179,0.09368 0.267344,0.184011 0.405494,0.270999 0.13815,0.08699 0.279285,0.170628 0.423406,0.250924 0.144121,0.0803 0.291227,0.157246 0.441319,0.230851 0.150091,0.0736 0.303168,0.143863 0.45923,0.210777 0.156063,0.06691 0.31511,0.13048 0.477143,0.190702 0.162033,0.06022 0.327051,0.117098 0.495055,0.170629 0.168004,0.05353 0.338993,0.103716 0.512967,0.150555 0.173974,0.04684 0.350934,0.09033 0.530879,0.130481 0.179945,0.04015 0.362876,0.07695 0.548792,0.110406 0.185916,0.03346 0.374817,0.06357 0.566703,0.09033 0.191887,0.02677 0.386759,0.05018 0.584616,0.07026 0.197857,0.02007 0.3987,0.0368 0.602528,0.05018 0.203828,0.01338 0.410641,0.02342 0.62044,0.03011 0.209799,0.0067 0.422583,0.01004 0.638352,0.01004 0.214122,0 0.425311,-0.0033 0.633565,-0.01004 0.208255,-0.0067 0.413575,-0.01673 0.615962,-0.03011 0.202387,-0.01338 0.40184,-0.03011 0.598359,-0.05018 0.196519,-0.02007 0.390104,-0.04349 0.580755,-0.07026 0.190651,-0.02676 0.378368,-0.05688 0.563152,-0.09033 0.184783,-0.03346 0.366633,-0.07026 0.545548,-0.110406 0.178916,-0.04015 0.354898,-0.08364 0.527946,-0.130481 0.173048,-0.04684 0.343162,-0.09702 0.510342,-0.150555 0.16718,-0.05353 0.331426,-0.110407 0.492738,-0.170629 0.161313,-0.06022 0.319691,-0.123789 0.475136,-0.190702 0.155444,-0.06691 0.307955,-0.137173 0.457532,-0.210777 0.149577,-0.07361 0.296219,-0.150555 0.439928,-0.230851 0.143709,-0.0803 0.284485,-0.163937 0.422326,-0.250924 0.137841,-0.08699 0.272748,-0.17732 0.404722,-0.270999 0.131973,-0.09368 0.261013,-0.190703 0.387119,-0.291072 0.126105,-0.10037 0.249277,-0.204086 0.369515,-0.311147 0.121885,-0.107061 0.239961,-0.216747 0.354228,-0.329059 0.114268,-0.112311 0.224726,-0.227247 0.331375,-0.344809 0.10665,-0.117561 0.20949,-0.237748 0.308522,-0.360559 0.09903,-0.122812 0.194254,-0.248248 0.285668,-0.37631 0.09141,-0.128061 0.179019,-0.258748 0.262815,-0.39206 0.0838,-0.133312 0.163783,-0.269248 0.239961,-0.40781 0.07618,-0.138562 0.148547,-0.279749 0.217107,-0.423561 0.06856,-0.143812 0.133312,-0.290249 0.194255,-0.439311 0.06094,-0.149062 0.118076,-0.300749 0.171401,-0.455061 0.05332,-0.154313 0.10284,-0.31125 0.148547,-0.470812 0.04571,-0.159563 0.08761,-0.32175 0.125694,-0.486562 0.03809,-0.164813 0.07237,-0.33225 0.10284,-0.502313 0.03047,-0.170062 0.05713,-0.34275 0.07999,-0.518063 0.02285,-0.175312 0.0419,-0.35325 0.05713,-0.533813 0.01524,-0.180562 0.02666,-0.36375 0.03428,-0.549563 0.0076,-0.185813 0.01143,-0.374251 0.01143,-0.565314 0,-0.191063 -0.0038,-0.379501 -0.01143,-0.565314 -0.0076,-0.185813 -0.01904,-0.369 -0.03428,-0.549563 -0.01524,-0.180563 -0.03428,-0.3585 -0.05713,-0.533813 -0.02285,-0.175313 -0.04951,-0.348 -0.07999,-0.518063 -0.03047,-0.170062 -0.06475,-0.3375 -0.10284,-0.502312 -0.03809,-0.164813 -0.07999,-0.327 -0.125694,-0.486562 -0.04571,-0.159562 -0.09522,-0.3165 -0.148547,-0.470812 -0.05333,-0.154312 -0.110459,-0.305999 -0.171401,-0.455061 -0.06094,-0.149062 -0.125694,-0.295499 -0.194255,-0.439311 -0.06856,-0.143812 -0.140929,-0.284999 -0.217107,-0.423561 -0.07618,-0.138562 -0.156165,-0.274499 -0.239961,-0.40781 -0.0838,-0.133312 -0.171401,-0.263999 -0.262815,-0.39206 -0.09141,-0.128062 -0.186637,-0.253498 -0.285668,-0.37631 -0.09903,-0.122811 -0.201872,-0.242998 -0.308522,-0.360559 -0.106649,-0.117562 -0.217107,-0.232498 -0.331375,-0.344809 -0.114267,-0.112312 -0.232343,-0.221998 -0.354228,-0.329059 -0.120238,-0.107061 -0.24341,-0.210777 -0.369515,-0.311147 -0.126106,-0.100369 -0.255146,-0.197394 -0.387119,-0.291072 -0.131974,-0.09368 -0.266881,-0.184011 -0.404722,-0.270999 -0.137841,-0.08699 -0.278617,-0.170628 -0.422326,-0.250924 -0.143709,-0.0803 -0.290351,-0.157246 -0.439928,-0.230851 -0.149577,-0.0736 -0.302088,-0.143863 -0.457532,-0.210777 -0.155445,-0.06691 -0.313823,-0.13048 -0.475136,-0.190702 -0.161312,-0.06022 -0.325558,-0.117098 -0.492738,-0.170629 -0.16718,-0.05353 -0.337294,-0.103716 -0.510342,-0.150555 -0.173048,-0.04684 -0.34903,-0.09033 -0.527946,-0.130481 -0.178915,-0.04015 -0.360765,-0.07695 -0.545548,-0.110406 -0.184784,-0.03346 -0.372501,-0.06357 -0.563152,-0.09033 -0.190651,-0.02677 -0.384236,-0.05018 -0.580755,-0.07026 -0.196519,-0.02007 -0.395972,-0.0368 -0.598359,-0.05018 -0.202387,-0.01338 -0.407707,-0.02342 -0.615962,-0.03011 -0.208254,-0.0067 -0.419443,-0.01004 -0.633565,-0.01004 -0.215769,0 -0.428553,0.0033 -0.638352,0.01004 -0.209799,0.0067 -0.416612,0.01673 -0.62044,0.03011 -0.203828,0.01338 -0.404671,0.03011 -0.602528,0.05018 -0.197857,0.02007 -0.392729,0.04349 -0.584616,0.07026 -0.191886,0.02677 -0.380787,0.05688 -0.566703,0.09033 -0.185916,0.03346 -0.368847,0.07026 -0.548792,0.110406 -0.179945,0.04015 -0.356905,0.08364 -0.530879,0.130481 -0.173974,0.04684 -0.344963,0.09702 -0.512967,0.150555 -0.168004,0.05353 -0.333022,0.110407 -0.495055,0.170629 -0.162033,0.06022 -0.32108,0.123789 -0.477143,0.190702 -0.156062,0.06691 -0.309139,0.137173 -0.45923,0.210777 -0.150092,0.07361 -0.297198,0.150555 -0.441319,0.230851 -0.144121,0.0803 -0.285256,0.163937 -0.423406,0.250924 -0.13815,0.08699 -0.273315,0.17732 -0.405494,0.270999 -0.13218,0.09368 -0.261374,0.190703 -0.387582,0.291072 -0.126209,0.10037 -0.249432,0.204086 -0.36967,0.311147 -0.118591,0.107061 -0.233476,0.216747 -0.344655,0.329059 -0.111179,0.112311 -0.218651,0.227247 -0.322418,0.344809 -0.103767,0.117561 -0.203828,0.237748 -0.300183,0.360559 -0.09636,0.122812 -0.189005,0.248248 -0.277948,0.37631 -0.08894,0.128061 -0.17418,0.258748 -0.255711,0.39206 -0.08153,0.133311 -0.159357,0.269248 -0.233476,0.40781 -0.07412,0.138562 -0.144533,0.279749 -0.21124,0.423561 -0.06671,0.143812 -0.129709,0.290249 -0.189004,0.439311 -0.05929,0.149062 -0.114885,0.300749 -0.166768,0.455061 -0.05188,0.154312 -0.100061,0.31125 -0.144533,0.470812 -0.04447,0.159562 -0.08524,0.321749 -0.122297,0.486562 -0.03706,0.164812 -0.07041,0.33225 -0.100061,0.502312 -0.02965,0.170063 -0.05559,0.34275 -0.07783,0.518063 -0.02224,0.175313 -0.04077,0.35325 -0.05559,0.533813 -0.01482,0.180563 -0.02594,0.36375 -0.03335,0.549563 -0.0074,0.185813 -0.01112,0.374251 -0.01112,0.565314 z"
       id="text1"
       aria-label="8"
       sodipodi:nodetypes="sssssssssssssssscssssssssssssssssssssssssssssssscssssssssssssssssssssssssssssssscssssssssssssssssssssssssssssssscsssssssssssssssscssssssssssssssscssssssssssssssssssssssssssssssscssssssssssssssssssssssssssssssssssssssssssssssssssssssssssssssscssssssssssssssscssssssssssssssscssssssssssssssssssssssssssssssscssssssssssssssssssssssssssssssscssssssssssssssssssssssssssssssssssssssssssssssscsssssssssssssssscssssssssssssssssssssssssssssssscssssssssssssssssssssssssssssssscssssssssssssssssssssssssssssssscssssssssssssssss" />
  </g>
</svg>
