<?xml version="1.0" encoding="UTF-8" standalone="no"?>
<!-- Created with Inkscape (http://www.inkscape.org/) -->

<svg
   width="50.278172"
   height="70.79438"
   viewBox="0 0 50.278173 70.794383"
   version="1.1"
   id="svg1"
   inkscape:version="1.4 (e7c3feb100, 2024-10-09)"
   sodipodi:docname="9.svg"
   xmlns:inkscape="http://www.inkscape.org/namespaces/inkscape"
   xmlns:sodipodi="http://sodipodi.sourceforge.net/DTD/sodipodi-0.dtd"
   xmlns="http://www.w3.org/2000/svg"
   xmlns:svg="http://www.w3.org/2000/svg">
  <sodipodi:namedview
     id="namedview1"
     pagecolor="#ffffff"
     bordercolor="#cccccc"
     borderopacity="1"
     inkscape:showpageshadow="0"
     inkscape:pageopacity="1"
     inkscape:pagecheckerboard="true"
     inkscape:deskcolor="#d1d1d1"
     inkscape:document-units="mm"
     inkscape:zoom="2.0812827"
     inkscape:cx="386.54047"
     inkscape:cy="54.773914"
     inkscape:window-width="2752"
     inkscape:window-height="1086"
     inkscape:window-x="0"
     inkscape:window-y="0"
     inkscape:window-maximized="1"
     inkscape:current-layer="layer1" />
  <defs
     id="defs1" />
  <g
     inkscape:label="Layer 1"
     inkscape:groupmode="layer"
     id="layer1"
     transform="translate(-10.860916,-6.6028075)">
    <path
       style="font-size:80.958px;font-family:'DejaVu Sans';-inkscape-font-specification:'DejaVu Sans';fill:none;stroke:#000000;stroke-width:9.56199;stroke-linecap:round"
       d="M 19.436817,70.24438 V 69.789782 69.335184 68.880585 68.425987 67.971389 67.516791 67.062193 66.607595 66.152996 65.698398 65.2438 64.789202 64.334604 63.880005 63.425407 62.970809 c 0.125179,0.05929 0.250461,0.117716 0.375846,0.175261 0.125386,0.05755 0.250874,0.114216 0.376465,0.170011 0.125591,0.0558 0.251284,0.110716 0.377081,0.164761 0.125797,0.05405 0.251697,0.107216 0.3777,0.159511 0.126002,0.0523 0.252108,0.103716 0.378317,0.154261 0.126208,0.05054 0.25252,0.100215 0.378935,0.14901 0.126414,0.0488 0.252932,0.09672 0.379552,0.143761 0.12662,0.04704 0.253344,0.09322 0.38017,0.13851 0.126826,0.0453 0.253756,0.08972 0.380788,0.133261 0.127032,0.04354 0.254167,0.08621 0.381405,0.12801 0.127238,0.04179 0.254579,0.08271 0.382023,0.12276 0.127444,0.04004 0.254991,0.07922 0.382641,0.11751 0.12765,0.0383 0.255402,0.07571 0.383258,0.112259 0.127856,0.03654 0.255814,0.07221 0.383876,0.10701 0.128062,0.0348 0.256226,0.06872 0.384494,0.10176 0.128267,0.03304 0.256638,0.06521 0.385111,0.09651 0.128473,0.0313 0.256792,0.06161 0.384957,0.09095 0.128164,0.02934 0.256175,0.0577 0.38403,0.08508 0.127856,0.02738 0.255557,0.05379 0.383104,0.07922 0.127547,0.02543 0.25494,0.04988 0.382178,0.07335 0.127238,0.02347 0.254321,0.04596 0.381251,0.06748 0.126929,0.02151 0.253704,0.04205 0.380324,0.06161 0.126621,0.01956 0.253086,0.03814 0.379398,0.05574 0.126312,0.0176 0.252469,0.03423 0.378472,0.04988 0.126002,0.01565 0.251851,0.03032 0.377545,0.04401 0.125693,0.01369 0.251233,0.0264 0.376618,0.03814 0.125385,0.01174 0.250616,0.02249 0.375692,0.03227 0.125076,0.0098 0.249998,0.01858 0.374766,0.0264 0.124767,0.0078 0.24938,0.01467 0.373839,0.02054 0.124458,0.0059 0.248763,0.01076 0.372912,0.01467 0.12415,0.0039 0.248145,0.0068 0.371986,0.0088 0.123841,0.002 0.247528,0.0029 0.37106,0.0029 0.329419,0 0.653948,-0.0069 0.973587,-0.02069 0.31964,-0.01379 0.634389,-0.03449 0.944249,-0.06208 0.309859,-0.02759 0.614829,-0.06207 0.914909,-0.103458 0.30008,-0.04138 0.595271,-0.08966 0.885571,-0.144841 0.2903,-0.05518 0.575711,-0.117253 0.856232,-0.186225 0.280521,-0.06897 0.556152,-0.144841 0.826893,-0.227608 0.270741,-0.08277 0.536592,-0.17243 0.797554,-0.268991 0.260962,-0.09656 0.517033,-0.200019 0.768215,-0.310374 0.251182,-0.110356 0.497474,-0.227608 0.738877,-0.351758 0.241402,-0.12415 0.477914,-0.255197 0.709537,-0.393141 0.231623,-0.137944 0.458356,-0.282785 0.680199,-0.434524 0.221843,-0.151739 0.438796,-0.310375 0.65086,-0.475908 0.212063,-0.165533 0.419237,-0.337963 0.62152,-0.51729 0.202284,-0.179328 0.399678,-0.365552 0.592183,-0.558674 0.192504,-0.193122 0.380118,-0.393141 0.562843,-0.600058 0.182724,-0.206916 0.360559,-0.420729 0.533504,-0.64144 0.174592,-0.222358 0.3445,-0.45187 0.509724,-0.688537 0.165225,-0.236667 0.325765,-0.480489 0.481621,-0.731465 0.155856,-0.250976 0.307029,-0.509106 0.453517,-0.774391 0.146489,-0.265286 0.288293,-0.537725 0.425414,-0.81732 0.137121,-0.279594 0.269557,-0.566343 0.39731,-0.860246 0.127753,-0.293904 0.250822,-0.594962 0.369207,-0.903175 0.118385,-0.308212 0.232086,-0.623579 0.341103,-0.946101 0.109017,-0.322522 0.21335,-0.652198 0.312999,-0.989029 0.09965,-0.336831 0.194615,-0.680816 0.284896,-1.031956 0.09028,-0.35114 0.175879,-0.709435 0.256793,-1.074884 0.08091,-0.365449 0.157143,-0.738053 0.228688,-1.117811 0.07155,-0.379758 0.138408,-0.766671 0.200586,-1.160739 0.06218,-0.394067 0.119671,-0.795289 0.172481,-1.203666 0.05281,-0.408376 0.100936,-0.823907 0.144378,-1.246593 0.04344,-0.422686 0.0822,-0.852526 0.116275,-1.289521 0.03407,-0.436995 0.06347,-0.881144 0.08817,-1.332448 -0.09553,0.14165 -0.192659,0.281241 -0.291381,0.418774 -0.09872,0.137532 -0.199041,0.273006 -0.300955,0.406421 -0.101914,0.133414 -0.205424,0.26477 -0.310529,0.394067 -0.105106,0.129297 -0.211806,0.256535 -0.320103,0.381714 -0.108296,0.125179 -0.218188,0.2483 -0.329676,0.369361 -0.111488,0.121062 -0.224571,0.240064 -0.33925,0.357008 -0.114679,0.116944 -0.230954,0.231829 -0.348824,0.344655 -0.11787,0.112826 -0.237336,0.223593 -0.358398,0.332301 -0.121061,0.108708 -0.243718,0.215358 -0.367971,0.319948 -0.124252,0.104591 -0.250101,0.207122 -0.377545,0.307595 -0.127444,0.100473 -0.256483,0.198887 -0.387118,0.295242 -0.130636,0.09636 -0.262866,0.190651 -0.396693,0.282888 -0.133826,0.09224 -0.269248,0.182416 -0.406266,0.270536 -0.137018,0.08812 -0.275631,0.17418 -0.41584,0.258182 -0.140209,0.084 -0.282013,0.165944 -0.425414,0.245828 -0.1434,0.07988 -0.288396,0.15771 -0.434987,0.233476 -0.146591,0.07577 -0.294161,0.149165 -0.442708,0.220196 -0.148548,0.07103 -0.298073,0.139694 -0.448576,0.20599 -0.150503,0.06629 -0.301985,0.130223 -0.454444,0.191783 -0.152459,0.06156 -0.305896,0.120753 -0.460311,0.177578 -0.154415,0.05682 -0.309809,0.111282 -0.46618,0.163371 -0.156371,0.05209 -0.31372,0.101811 -0.472047,0.149165 -0.158327,0.04735 -0.317632,0.09234 -0.477915,0.134959 -0.160282,0.04262 -0.321543,0.08287 -0.483782,0.120753 -0.162239,0.03788 -0.325456,0.0734 -0.48965,0.106546 -0.164195,0.03315 -0.329368,0.06393 -0.495519,0.09234 -0.16615,0.02841 -0.333279,0.05446 -0.501386,0.07813 -0.168106,0.02368 -0.337191,0.04499 -0.507253,0.06393 -0.170063,0.01894 -0.341103,0.03552 -0.513122,0.04972 -0.172018,0.01421 -0.345015,0.02605 -0.518989,0.03552 -0.173974,0.0095 -0.348927,0.01657 -0.524857,0.02131 -0.17593,0.0047 -0.352839,0.0071 -0.530725,0.0071 -0.368949,0 -0.733112,-0.0069 -1.092487,-0.02085 -0.359375,-0.0139 -0.713964,-0.03474 -1.063766,-0.06254 -0.349802,-0.02779 -0.694816,-0.06254 -1.035044,-0.10423 -0.340228,-0.04169 -0.67567,-0.09033 -1.006324,-0.145923 -0.330654,-0.05559 -0.656521,-0.118127 -0.977602,-0.187614 -0.321081,-0.06949 -0.637374,-0.145922 -0.948881,-0.229307 -0.311507,-0.08338 -0.618227,-0.173717 -0.92016,-0.270998 -0.301933,-0.09728 -0.599079,-0.201512 -0.891438,-0.312691 -0.29236,-0.111179 -0.579932,-0.229306 -0.862718,-0.354382 C 25.732888,49.653894 25.454889,49.521869 25.181677,49.382896 24.908465,49.243922 24.64004,49.098 24.376402,48.945129 24.112764,48.792258 23.853913,48.632438 23.599849,48.46567 c -0.254065,-0.166769 -0.503342,-0.340486 -0.747833,-0.521151 -0.24449,-0.180666 -0.484194,-0.36828 -0.719111,-0.562843 -0.234917,-0.194563 -0.465047,-0.396075 -0.69039,-0.604536 -0.225343,-0.20846 -0.4459,-0.423869 -0.661669,-0.646227 -0.214122,-0.224005 -0.421553,-0.453105 -0.622293,-0.687302 -0.20074,-0.234196 -0.394788,-0.473488 -0.582145,-0.717876 -0.187357,-0.244387 -0.368023,-0.493871 -0.541997,-0.74845 C 18.860437,43.722706 18.693154,43.463031 18.532562,43.198261 18.37197,42.93349 18.21807,42.663624 18.070861,42.388662 17.923652,42.1137 17.783134,41.833643 17.649307,41.54849 c -0.133826,-0.285154 -0.260961,-0.575403 -0.381405,-0.870747 -0.120444,-0.295345 -0.234196,-0.595785 -0.341257,-0.901322 -0.107061,-0.305536 -0.207431,-0.616167 -0.30111,-0.931895 -0.09368,-0.315727 -0.180665,-0.636551 -0.260961,-0.962469 -0.0803,-0.325919 -0.153901,-0.656934 -0.220814,-0.993044 -0.06691,-0.33611 -0.127135,-0.677316 -0.180666,-1.023618 -0.05353,-0.346302 -0.100369,-0.697699 -0.140517,-1.054192 -0.04015,-0.356493 -0.07361,-0.718082 -0.10037,-1.084767 -0.02676,-0.366684 -0.04684,-0.738464 -0.06022,-1.11534 -0.01338,-0.376876 -0.02007,-0.758848 -0.02007,-1.145915 0,-0.378832 0.007,-0.75298 0.021,-1.122444 0.014,-0.369464 0.035,-0.734244 0.063,-1.09434 0.028,-0.360096 0.063,-0.715508 0.105002,-1.066236 0.042,-0.350728 0.091,-0.696773 0.147003,-1.038133 0.056,-0.34136 0.119003,-0.678037 0.189004,-1.010029 0.07,-0.331993 0.147004,-0.659302 0.231005,-0.981926 0.084,-0.322625 0.175004,-0.640566 0.273006,-0.953823 0.098,-0.313256 0.203005,-0.621829 0.315007,-0.925718 0.112003,-0.303889 0.231005,-0.603094 0.357008,-0.897615 0.126003,-0.294522 0.259006,-0.584359 0.399009,-0.869512 0.140003,-0.285153 0.287006,-0.565623 0.441009,-0.841408 0.154004,-0.275785 0.315007,-0.546887 0.483011,-0.813305 0.168003,-0.266417 0.343007,-0.528151 0.525011,-0.785201 0.182004,-0.257049 0.371008,-0.509415 0.567013,-0.757097 0.196004,-0.247682 0.399008,-0.49068 0.609013,-0.728994 0.210004,-0.238314 0.427009,-0.471944 0.651014,-0.70089 0.224005,-0.228946 0.452642,-0.450738 0.685912,-0.665375 0.23327,-0.214637 0.471172,-0.422119 0.713707,-0.622447 0.242534,-0.200328 0.489702,-0.393501 0.741501,-0.57952 0.2518,-0.186019 0.508232,-0.364883 0.769296,-0.536593 0.261065,-0.171709 0.526762,-0.336264 0.797091,-0.493665 0.27033,-0.1574 0.545292,-0.307646 0.824886,-0.450738 0.279594,-0.143091 0.563821,-0.279028 0.85268,-0.40781 0.288859,-0.128782 0.582351,-0.25041 0.880475,-0.364883 0.298124,-0.114473 0.600881,-0.221792 0.90827,-0.321956 0.307389,-0.100163 0.619411,-0.193173 0.936065,-0.279028 0.316654,-0.08586 0.63794,-0.164555 0.963859,-0.2361 0.325919,-0.07155 0.65647,-0.135937 0.991654,-0.193174 0.335184,-0.05724 0.675,-0.107318 1.019449,-0.150246 0.344448,-0.04293 0.693529,-0.0787 1.047243,-0.107318 0.353714,-0.02862 0.71206,-0.05008 1.075038,-0.06439 0.362979,-0.01431 0.73059,-0.02146 1.102833,-0.02146 0.426598,0 0.846864,0.01024 1.2608,0.03073 0.413935,0.02048 0.82154,0.05121 1.222813,0.09219 0.401273,0.04097 0.796216,0.09219 1.184827,0.153644 0.388612,0.06146 0.770892,0.133157 1.146841,0.2151 0.37595,0.08194 0.745568,0.174129 1.108856,0.276557 0.363287,0.102429 0.720243,0.215101 1.070868,0.338015 0.350626,0.122915 0.69492,0.256072 1.032883,0.399472 0.337964,0.1434 0.669596,0.297043 0.994897,0.460929 0.325301,0.163886 0.644271,0.338015 0.956911,0.522387 0.312639,0.184371 0.618947,0.378986 0.918924,0.583843 0.299977,0.204858 0.593623,0.419958 0.880938,0.645301 0.287315,0.225343 0.568299,0.460929 0.842952,0.706758 0.274654,0.245829 0.542976,0.501901 0.804967,0.768216 0.261991,0.266314 0.517651,0.542872 0.766979,0.829672 0.249329,0.286801 0.492327,0.583844 0.728994,0.89113 0.236667,0.307286 0.467003,0.624815 0.691008,0.952587 0.225652,0.326125 0.444252,0.661514 0.655801,1.006169 0.211549,0.344655 0.416046,0.698574 0.613491,1.061758 0.197446,0.363185 0.38784,0.735634 0.571182,1.117348 0.183342,0.381714 0.359633,0.772694 0.528872,1.172938 0.169239,0.400244 0.331426,0.809752 0.486562,1.228526 0.155135,0.418774 0.303219,0.846813 0.444252,1.284117 0.141032,0.437303 0.275013,0.883872 0.401942,1.339705 0.12693,0.455834 0.246807,0.920932 0.359633,1.395295 0.112826,0.474364 0.218601,0.957992 0.317323,1.450885 0.09872,0.492893 0.190394,0.995051 0.275014,1.506474 0.08462,0.511423 0.162187,1.03211 0.232703,1.562063 0.07052,0.529953 0.133981,1.069171 0.190394,1.617653 0.05641,0.548483 0.105774,1.10623 0.148084,1.673242 0.04231,0.567013 0.07757,1.14329 0.105775,1.728832 0.02821,0.585542 0.04936,1.180349 0.06346,1.784421 0.0141,0.604072 0.02116,1.217409 0.02116,1.840011 0,0.581424 -0.0086,1.15554 -0.02594,1.722346 -0.01729,0.566807 -0.04324,1.126304 -0.07782,1.678493 -0.03459,0.552188 -0.07783,1.097068 -0.129709,1.634639 -0.05188,0.53757 -0.112414,1.067832 -0.181592,1.590784 -0.06918,0.522953 -0.147003,1.038597 -0.233476,1.546931 -0.08647,0.508335 -0.181592,1.00936 -0.285359,1.503077 -0.103767,0.493717 -0.216181,0.980124 -0.337242,1.459223 -0.121062,0.479099 -0.250771,0.950889 -0.389127,1.415369 -0.138355,0.464481 -0.285359,0.921653 -0.441009,1.371515 -0.155651,0.449863 -0.319948,0.892417 -0.492893,1.327662 -0.172945,0.435245 -0.354537,0.86318 -0.544777,1.283807 -0.190239,0.420627 -0.389126,0.833945 -0.59666,1.239954 -0.207534,0.406009 -0.423715,0.804709 -0.648543,1.196099 -0.224829,0.391391 -0.458305,0.775473 -0.700427,1.152246 -0.242123,0.376773 -0.492894,0.746237 -0.752311,1.108392 -0.259417,0.362155 -0.527482,0.717001 -0.804194,1.064538 -0.275065,0.34589 -0.5561,0.680971 -0.843107,1.005242 -0.287006,0.324272 -0.579983,0.637735 -0.87893,0.940389 -0.298948,0.302653 -0.603866,0.594498 -0.914756,0.875533 -0.310889,0.281036 -0.627749,0.551262 -0.950579,0.81068 -0.322831,0.259417 -0.651632,0.508025 -0.986404,0.745825 -0.334772,0.237799 -0.675515,0.464789 -1.022228,0.68097 -0.346713,0.216182 -0.699398,0.421554 -1.058052,0.616117 -0.358655,0.194563 -0.723281,0.378317 -1.093877,0.551262 -0.370597,0.172945 -0.747164,0.335081 -1.129701,0.486407 -0.382538,0.151327 -0.771047,0.291845 -1.165526,0.421554 -0.394479,0.129708 -0.794929,0.248608 -1.20135,0.356699 -0.40642,0.10809 -0.818811,0.205372 -1.237174,0.291844 -0.418362,0.08647 -0.842694,0.162136 -1.272998,0.22699 -0.430303,0.06486 -0.866578,0.1189 -1.308823,0.162136 -0.442245,0.04324 -0.89046,0.07566 -1.344647,0.09728 -0.454186,0.02162 -0.914343,0.03243 -1.380471,0.03243 -0.125179,0 -0.250461,-7.72e-4 -0.375846,-0.0023 -0.125386,-0.0015 -0.250874,-0.0039 -0.376465,-0.0069 -0.125591,-0.0031 -0.251284,-0.0069 -0.377081,-0.01158 -0.125797,-0.0046 -0.251697,-0.01004 -0.3777,-0.01621 -0.126003,-0.0062 -0.252108,-0.01313 -0.378317,-0.02085 -0.126208,-0.0077 -0.25252,-0.01621 -0.378935,-0.02548 -0.126414,-0.0093 -0.252932,-0.0193 -0.379552,-0.03011 -0.12662,-0.01081 -0.253344,-0.02239 -0.38017,-0.03474 -0.126826,-0.01235 -0.253756,-0.02548 -0.380788,-0.03937 -0.127032,-0.0139 -0.254167,-0.02857 -0.381405,-0.04401 -0.127238,-0.01544 -0.254579,-0.03166 -0.382023,-0.04864 -0.127444,-0.01699 -0.254991,-0.03474 -0.382641,-0.05327 -0.12765,-0.01853 -0.255402,-0.03783 -0.383258,-0.0579 -0.127856,-0.02007 -0.255814,-0.04092 -0.383876,-0.06254 -0.128062,-0.02162 -0.256226,-0.04401 -0.384494,-0.06717 -0.128267,-0.02316 -0.256638,-0.0471 -0.385111,-0.0718 -0.128473,-0.02471 -0.257256,-0.05018 -0.386347,-0.07643 -0.129091,-0.02625 -0.258491,-0.05327 -0.388199,-0.08107 -0.129709,-0.0278 -0.259726,-0.05636 -0.390053,-0.0857 -0.130326,-0.02934 -0.260961,-0.05945 -0.391905,-0.09033 -0.130944,-0.03088 -0.262197,-0.06254 -0.393759,-0.09497 -0.131562,-0.03243 -0.263432,-0.06563 -0.395611,-0.0996 -0.13218,-0.03397 -0.264668,-0.06871 -0.397465,-0.10423 -0.132797,-0.03552 -0.265903,-0.0718 -0.399318,-0.108863 -0.133414,-0.03706 -0.267138,-0.07489 -0.40117,-0.113495 -0.134032,-0.0386 -0.268373,-0.07798 -0.403023,-0.118127 -0.13465,-0.04015 -0.269609,-0.08107 -0.404877,-0.12276 -0.135268,-0.04169 -0.270844,-0.08416 -0.406729,-0.127393 -0.135886,-0.04324 -0.27208,-0.08724 -0.408583,-0.132025 -0.136503,-0.04478 -0.273315,-0.09033 -0.410435,-0.136657 -0.137121,-0.04632 -0.27455,-0.09342 -0.412289,-0.14129 -0.137738,-0.04787 -0.275785,-0.09651 -0.414141,-0.145922 z m 15.89117,-25.022664 c 0.224005,0 0.445076,-0.0048 0.663213,-0.01436 0.218137,-0.0096 0.43334,-0.02393 0.64561,-0.04308 0.212269,-0.01915 0.421604,-0.04308 0.628006,-0.0718 0.206401,-0.02872 0.409869,-0.06223 0.610403,-0.100525 0.200534,-0.03829 0.398134,-0.08138 0.5928,-0.129245 0.194666,-0.04787 0.386398,-0.100524 0.575196,-0.157967 0.188798,-0.05744 0.374663,-0.119672 0.557593,-0.186688 0.18293,-0.06702 0.362927,-0.138819 0.53999,-0.215409 0.177062,-0.07659 0.351191,-0.157966 0.522386,-0.24413 0.171195,-0.08616 0.339456,-0.177114 0.504783,-0.272852 0.165327,-0.09574 0.327721,-0.196261 0.48718,-0.301572 0.159459,-0.105311 0.315985,-0.215409 0.469576,-0.330294 0.153592,-0.114885 0.30425,-0.234557 0.451974,-0.359015 0.147723,-0.124459 0.292513,-0.253704 0.434369,-0.387737 0.141856,-0.134032 0.280779,-0.272851 0.416767,-0.416457 0.135988,-0.143606 0.269042,-0.291999 0.399163,-0.445179 0.131768,-0.15318 0.259417,-0.309911 0.382949,-0.470194 0.123532,-0.160283 0.242947,-0.324117 0.358243,-0.491503 0.115297,-0.167386 0.226476,-0.338324 0.333537,-0.512813 0.107061,-0.174489 0.210005,-0.35253 0.30883,-0.534122 0.09883,-0.181592 0.193534,-0.366736 0.284124,-0.555431 0.09059,-0.188695 0.177063,-0.380942 0.259417,-0.576741 0.08235,-0.195798 0.160592,-0.395148 0.234711,-0.598049 0.07412,-0.202902 0.144121,-0.409355 0.210005,-0.61936 0.06588,-0.210004 0.12765,-0.42356 0.185298,-0.640668 0.05765,-0.217108 0.111179,-0.437767 0.160592,-0.661978 0.04941,-0.22421 0.09471,-0.451973 0.135885,-0.683287 0.04118,-0.231313 0.07824,-0.466179 0.111179,-0.704596 0.03294,-0.238417 0.06177,-0.480385 0.08647,-0.725905 0.02471,-0.245521 0.04529,-0.494592 0.06177,-0.747215 0.01647,-0.252624 0.02882,-0.508798 0.03706,-0.768525 0.0082,-0.259726 0.01235,-0.523004 0.01235,-0.789833 0,-0.265182 -0.0041,-0.526864 -0.01235,-0.785047 -0.0082,-0.258182 -0.02059,-0.512864 -0.03706,-0.764046 -0.01647,-0.251182 -0.03706,-0.498863 -0.06177,-0.743045 -0.02471,-0.244182 -0.05353,-0.484864 -0.08647,-0.722045 -0.03294,-0.237182 -0.07,-0.470864 -0.111179,-0.701045 -0.04118,-0.230181 -0.08647,-0.456863 -0.135885,-0.680044 -0.04941,-0.223182 -0.102944,-0.442863 -0.160592,-0.659044 -0.05765,-0.216181 -0.119414,-0.428862 -0.185298,-0.638043 -0.06588,-0.209181 -0.135886,-0.414862 -0.210005,-0.617043 -0.07412,-0.202181 -0.152356,-0.400862 -0.234711,-0.596042 -0.08235,-0.195181 -0.168827,-0.386862 -0.259417,-0.575042 -0.09059,-0.188181 -0.185298,-0.372861 -0.284124,-0.554042 -0.09882,-0.18118 -0.201769,-0.358861 -0.30883,-0.533041 -0.107061,-0.17418 -0.21824,-0.34486 -0.333537,-0.51204 -0.115296,-0.16718 -0.234711,-0.33086 -0.358243,-0.49104 -0.123532,-0.16018 -0.251181,-0.31686 -0.382949,-0.47004 -0.130121,-0.154827 -0.263175,-0.304815 -0.399163,-0.449966 -0.135988,-0.14515 -0.274911,-0.285462 -0.416767,-0.420935 -0.141856,-0.135474 -0.286646,-0.266109 -0.434369,-0.391906 -0.147724,-0.125797 -0.298382,-0.246755 -0.451974,-0.362876 -0.153591,-0.11612 -0.310117,-0.227402 -0.469576,-0.333845 -0.159459,-0.106444 -0.321853,-0.208049 -0.48718,-0.304816 -0.165327,-0.09677 -0.333588,-0.188695 -0.504783,-0.275785 -0.171195,-0.08709 -0.345324,-0.169342 -0.522386,-0.246755 -0.177063,-0.07741 -0.35706,-0.149989 -0.53999,-0.217726 -0.18293,-0.06774 -0.368795,-0.130635 -0.557593,-0.188695 -0.188798,-0.05806 -0.38053,-0.111282 -0.575196,-0.159665 -0.194666,-0.04838 -0.392266,-0.09193 -0.5928,-0.130636 -0.200534,-0.03871 -0.404002,-0.07258 -0.610403,-0.101605 -0.206402,-0.02903 -0.415737,-0.05322 -0.628006,-0.07258 -0.21227,-0.01935 -0.427473,-0.03387 -0.64561,-0.04354 -0.218137,-0.0097 -0.439208,-0.01451 -0.663213,-0.01451 -0.224005,0 -0.445127,0.0048 -0.663367,0.01451 -0.21824,0.0097 -0.433598,0.02419 -0.646073,0.04354 -0.212475,0.01935 -0.422068,0.04355 -0.628779,0.07258 -0.20671,0.02903 -0.410538,0.0629 -0.611484,0.101605 -0.200945,0.03871 -0.399008,0.08225 -0.594189,0.130636 -0.195181,0.04838 -0.387479,0.101605 -0.576895,0.159665 -0.189416,0.05806 -0.375949,0.120958 -0.5596,0.188695 -0.183651,0.06774 -0.36442,0.140312 -0.542306,0.217726 -0.177886,0.07741 -0.35289,0.159665 -0.525012,0.246755 -0.172121,0.08709 -0.34136,0.179019 -0.507717,0.275785 -0.166356,0.09677 -0.32983,0.198372 -0.490422,0.304816 -0.160592,0.106443 -0.318301,0.217725 -0.473128,0.333845 -0.154827,0.116121 -0.306771,0.237079 -0.455834,0.362876 -0.149062,0.125797 -0.295241,0.256432 -0.438539,0.391906 -0.143297,0.135473 -0.283712,0.275785 -0.421244,0.420935 -0.137532,0.145151 -0.272182,0.295139 -0.40395,0.449966 -0.130121,0.15318 -0.256175,0.30986 -0.378163,0.47004 -0.121988,0.16018 -0.239909,0.32386 -0.353765,0.49104 -0.113855,0.16718 -0.223644,0.33786 -0.329367,0.51204 -0.105723,0.17418 -0.20738,0.351861 -0.30497,0.533041 -0.09759,0.181181 -0.191115,0.365861 -0.280573,0.554042 -0.08946,0.18818 -0.174849,0.379861 -0.256174,0.575042 -0.08133,0.19518 -0.158585,0.393861 -0.231777,0.596042 -0.07319,0.202181 -0.14232,0.407862 -0.20738,0.617043 -0.06506,0.209181 -0.126054,0.421862 -0.182982,0.638043 -0.05693,0.216181 -0.109789,0.435862 -0.158584,0.659044 -0.0488,0.223181 -0.09352,0.449863 -0.134187,0.680044 -0.04066,0.230181 -0.07726,0.463863 -0.109789,0.701045 -0.03253,0.237181 -0.06099,0.477863 -0.08539,0.722045 -0.0244,0.244182 -0.04473,0.491863 -0.06099,0.743045 -0.01626,0.251182 -0.02846,0.505864 -0.0366,0.764046 -0.0081,0.258183 -0.0122,0.519865 -0.0122,0.785047 0,0.266829 0.0041,0.530107 0.0122,0.789833 0.0081,0.259727 0.02033,0.515901 0.0366,0.768525 0.01627,0.252623 0.0366,0.501694 0.06099,0.747215 0.0244,0.24552 0.05286,0.487488 0.08539,0.725905 0.03253,0.238417 0.06913,0.473283 0.109789,0.704596 0.04066,0.231314 0.08539,0.459077 0.134187,0.683287 0.04879,0.224211 0.101656,0.44487 0.158584,0.661978 0.05693,0.217108 0.117922,0.430664 0.182982,0.640668 0.06506,0.210005 0.134187,0.416458 0.20738,0.61936 0.07319,0.202901 0.150451,0.402251 0.231777,0.598049 0.08132,0.195799 0.166717,0.388046 0.256174,0.576741 0.08946,0.188695 0.182982,0.373839 0.280573,0.555431 0.09759,0.181592 0.199247,0.359633 0.30497,0.534122 0.105723,0.174489 0.215512,0.345427 0.329367,0.512813 0.113856,0.167386 0.231777,0.33122 0.353765,0.491503 0.121988,0.160283 0.248042,0.317014 0.378163,0.470194 0.131768,0.15318 0.266418,0.301573 0.40395,0.445179 0.137532,0.143606 0.277947,0.282425 0.421244,0.416457 0.143298,0.134033 0.289477,0.263278 0.438539,0.387737 0.149063,0.124458 0.301007,0.24413 0.455834,0.359015 0.154827,0.114885 0.312536,0.224983 0.473128,0.330294 0.160592,0.105311 0.324066,0.205835 0.490422,0.301572 0.166357,0.09574 0.335596,0.186688 0.507717,0.272852 0.172122,0.08616 0.347126,0.16754 0.525012,0.24413 0.177886,0.07659 0.358655,0.148393 0.542306,0.215409 0.183651,0.06702 0.370184,0.129246 0.5596,0.186688 0.189416,0.05744 0.381714,0.110098 0.576895,0.157967 0.195181,0.04787 0.393244,0.09095 0.594189,0.129245 0.200946,0.03829 0.404774,0.0718 0.611484,0.100525 0.206711,0.02872 0.416304,0.05265 0.628779,0.0718 0.212475,0.01915 0.427833,0.03351 0.646073,0.04308 0.21824,0.0096 0.439362,0.01436 0.663367,0.01436 z"
       id="text1"
       aria-label="9"
       sodipodi:nodetypes="cccccccccccccccccssssssssssssssssssssssssssssssssssssssssssssssscssssssssssssssscssssssssssssssssssssssssssssssssssssssssssssssscssssssssssssssssssssssssssssssssssssssssssssssssssssssssssssssscssssssssssssssssssssssssssssssscssssssssssssssssssssssssssssssssssssssssssssssscsssssssssssssssscssssssssssssssssssssssssssssssscssssssssssssssssssssssssssssssscssssssssssssssssssssssssssssssscssssssssssssssss" />
  </g>
</svg>
